<?xml version="1.0" encoding="UTF-8" standalone="no"?>
<!-- Created with Inkscape (http://www.inkscape.org/) -->

<svg
   xmlns:dc="http://purl.org/dc/elements/1.1/"
   xmlns:cc="http://creativecommons.org/ns#"
   xmlns:rdf="http://www.w3.org/1999/02/22-rdf-syntax-ns#"
   xmlns:svg="http://www.w3.org/2000/svg"
   xmlns="http://www.w3.org/2000/svg"
   xmlns:sodipodi="http://sodipodi.sourceforge.net/DTD/sodipodi-0.dtd"
   xmlns:inkscape="http://www.inkscape.org/namespaces/inkscape"
   width="900"
   height="700"
   viewBox="0 0 900.00001 700"
   id="svg2"
   version="1.1"
   inkscape:version="0.91 r13725"
   sodipodi:docname="fifi-drawing.svg">
  <defs
     id="defs4" />
  <sodipodi:namedview
     id="base"
     pagecolor="#ffffff"
     bordercolor="#666666"
     borderopacity="1.0"
     inkscape:pageopacity="0.0"
     inkscape:pageshadow="2"
     inkscape:zoom="0.35555425"
     inkscape:cx="-125.36358"
     inkscape:cy="686.24247"
     inkscape:document-units="px"
     inkscape:current-layer="layer1"
     showgrid="false"
     inkscape:window-width="1366"
     inkscape:window-height="705"
     inkscape:window-x="-8"
     inkscape:window-y="-8"
     inkscape:window-maximized="1"
     units="px" />
  <metadata
     id="metadata7">
    <rdf:RDF>
      <cc:Work
         rdf:about="">
        <dc:format>image/svg+xml</dc:format>
        <dc:type
           rdf:resource="http://purl.org/dc/dcmitype/StillImage" />
        <dc:title></dc:title>
      </cc:Work>
    </rdf:RDF>
  </metadata>
  <g
     inkscape:label="Layer 1"
     inkscape:groupmode="layer"
     id="layer1"
     transform="translate(0,-352.36219)">
    <path
       style="fill:#000000"
       d="m 291.62339,352.36223 c -34.32581,11.65461 -67.66718,25.34163 -99.33784,40.73366 -15.97339,11.29583 -33.07058,28.0445 -34.70897,17.91968 -1.67456,0.91666 -3.35479,1.8285 -5.01758,2.75462 1.59025,4.82995 -4.5219,5.50751 -5.06444,2.862 -2.84368,1.61205 -5.67535,3.23162 -8.48242,4.87085 2.72411,2.18241 0.52687,6.31851 -0.82813,0.49002 -4.11825,2.41199 -8.19064,4.85394 -12.22655,7.32288 1.77111,5.36727 0.20278,8.69645 -1.25391,0.76724 -9.77356,6.00592 -19.29561,12.175 -28.544898,18.49559 1.14759,7.26584 0.295938,9.7113 -1.357421,0.92732 -3.993128,2.74308 -7.942734,5.50871 -11.830071,8.30681 3.726208,6.54187 -5.711561,8.48836 -4.214842,3.07284 -4.799267,3.51438 -9.525605,7.06252 -14.150382,10.65732 7.915805,13.60416 21.408755,74.09679 -0.06445,62.26305 -4.598808,-12.40924 -7.682336,-52.09657 -25.374986,-25.37727 20.359399,0.143 35.941428,51.95363 33.0117,83.09352 1.441299,14.99614 16.088639,58.2079 -10.982416,28.12408 -10.469334,-16.12922 -6.736168,-65.39082 -10.539056,-20.95152 -3.923078,-21.40454 -11.978339,-43.80955 -6.234372,-7.6001 -9.622674,36.98158 62.269564,44.50835 38.107401,71.16919 -22.525668,2.07292 -35.138643,-32.81081 -34.888653,-6.2628 -22.835412,-1.00109 34.528876,11.99794 47.609349,9.74562 49.198317,26.10001 -62.00992,-3.25388 -54.365204,23.4543 0.0961,-0.45085 0.38777,-1.03553 0.96289,-1.7824 6.777486,1.08659 0.947313,3.90609 -0.628906,2.81905 0.35586,0.93625 0.847334,1.93107 1.484374,2.99865 18.65814,-17.49732 36.127277,-3.04786 65.146443,-7.33069 40.98128,-3.31085 63.12103,36.3332 74.62496,69.7831 11.64485,35.5513 0.8004,91.29314 -43.96091,93.97145 -16.60784,-0.27651 -123.980178,13.8218 -95.790962,12.84775 56.156669,-6.44728 126.809902,1.14607 163.822172,-51.50811 19.01099,-6.67968 30.48183,-54.38439 32.28123,-59.81493 -14.40324,24.96696 -38.23471,66.46338 -55.68747,74.40993 1.88016,-29.64321 15.55729,-89.15881 10.83202,-98.51238 0.35158,53.23266 -26.96545,-14.73669 -41.17965,-28.38958 -8.35897,-16.08226 -24.09892,-64.06942 -15.93554,-20.55132 -12.37276,0.36819 -15.37285,-12.04229 -16.81054,-27.41346 -0.0739,6.43409 -2.91509,11.80614 -10.38476,15.43251 -33.598198,-37.43445 -52.340132,-97.4295 -20.70116,-142.35987 5.410207,-9.44214 17.34524,-11.15711 23.12303,-19.17302 12.19534,12.48267 14.20765,63.31396 -3.32031,49.47191 1.22162,18.35145 -7.04663,64.70758 -12.17577,20.43613 -7.487846,18.71135 19.27799,49.42993 23.02928,71.21996 -1.27361,-17.02204 -1.68564,-36.27515 -10.77343,-45.82512 -0.29781,-34.95327 71.60839,-59.58307 46.72654,-88.96588 -7.92696,8.37843 -18.51401,60.70579 -27.28905,40.90154 3.09903,-3.55116 3.97115,-7.81814 3.72461,-12.36944 0.79498,-0.18159 1.63505,-1.05264 0.18945,-2.13186 -0.13206,0.13311 -0.22134,0.24758 -0.32617,0.36702 -2.03464,-18.03124 -19.32325,-39.60444 11.75975,-39.38464 18.22651,0.77005 42.12783,-16.59717 49.37498,-8.19554 0.19127,-0.40911 0.68472,-0.96931 1.59374,-1.71798 8.51216,-0.008 1.38836,2.96616 -0.97265,2.61016 1.40268,2.28797 1.92224,5.95532 1.27148,11.56121 8.74689,-7.30838 22.76915,-3.88274 32.05858,-1.0015 -2.07538,0.66251 1.3795,1.37167 1.96289,0.61691 4.22141,1.35495 7.10834,2.36999 7.42773,1.69064 12.27324,26.92349 2.97684,-17.03885 22.81835,1.78241 29.04158,20.74789 75.78577,53.81 65.17183,92.71224 1.01566,-23.57752 -25.40302,-17.80127 -9.20116,1.82731 12.5109,24.17459 -2.74715,58.90234 -9.78711,66.16949 27.86457,-15.46441 -23.23982,26.11385 3.04883,4.81815 12.94212,-16.13798 39.45645,-23.46659 15.16015,0.0312 -45.53288,17.65808 -43.8958,49.38919 -55.18943,83.27508 -0.84318,-1.11919 -1.61657,-2.27961 -2.35351,-3.45938 14.58448,31.72386 -15.13724,69.67404 -31.47264,95.45907 -7.48173,30.18009 -20.31082,68.99302 -58.61715,47.49233 -38.76765,-4.96168 -116.344161,-8.91584 -134.699141,-8.2502 44.886815,14.29582 93.710361,5.54974 139.394451,11.89895 28.24516,19.36375 -14.27902,84.15397 5.04492,89.68041 7.3748,-16.12341 3.74119,29.51751 11.46483,-3.06113 9.03824,12.81844 4.26453,23.93584 9.87891,3.47111 23.65957,21.67103 58.42078,-22.89844 35.93357,-50.5359 -25.17767,-57.35709 60.93566,-31.87257 50.48825,10.05994 7.29341,-2.94041 4.58303,71.05339 9.68554,20.36585 -3.56677,-55.86681 17.12733,57.23244 14.01563,2.54769 5.17409,-32.98894 28.44808,62.04555 18.96288,9.86665 8.0286,-35.41851 20.42934,27.3991 22.69138,-5.39601 12.25765,-13.10607 5.6553,35.78411 14.4707,-3.4301 22.26864,-26.15886 4.47495,-80.34215 57.08786,-74.72424 45.91908,-14.1111 52.71153,16.78976 25.38475,46.30927 1.08773,11.00356 8.24903,74.73588 11.36327,30.23642 5.04809,-28.2577 9.79088,60.22406 14.36718,8.18382 8.14883,-18.69404 17.71511,46.83724 15.09961,1.1733 14.46112,-39.67711 21.69972,38.10354 30.9492,-6.62789 -15.76798,-25.11394 -8.81074,-66.75335 -7.4668,-78.13676 -23.24747,-39.5009 -38.5144,-82.00932 -76.85737,-110.62217 -3.11083,-7.03376 -2.02911,-15.56593 1.12304,-23.49726 -7.92825,11.65804 -14.60943,13.46925 -4.82421,-11.32109 23.90209,-27.57158 -23.36524,26.22057 -15.73632,-11.47531 -10.56473,-30.36884 9.86605,-14.8907 12.74999,-10.74517 0.64582,-22.89916 6.53352,-18.43476 -5.75976,-14.38026 0.18938,-0.36478 -0.0248,-1.03948 -1.17579,-2.1338 -1.77966,1.32363 -0.72475,2.30148 0.23633,2.45007 -0.92751,0.28055 -1.94425,0.55287 -3.06445,0.81213 -18.63913,-16.77274 1.81256,-24.18233 16.5293,-27.07573 6.37023,12.88412 -9.45082,14.07989 8.6328,18.00168 10.0217,10.24705 6.01882,28.862 -0.64063,43.41018 11.76617,-16.07671 28.75801,-21.51425 20.16015,14.32365 -7.56883,59.67897 55.54454,100.12261 108.65814,98.11997 66.87193,20.98022 136.96842,26.48345 206.64441,24.58857 36.98665,-0.62891 74.2995,3.5898 111.16401,2.94398 l -0.0332,-2.30169 c -20.57642,-1.17467 -47.28299,-6.53853 -33.37693,-32.58888 -3.79601,-39.8993 8.85271,-128.0777 -43.49607,-127.59696 -46.56136,32.50962 -37.53302,101.87229 -80.08394,137.47924 4.31812,22.1333 -78.56955,28.66817 -76.77925,-3.10602 8.54864,-20.62535 42.49831,-69.40587 13.67381,-62.12639 8.62919,-17.80227 10.80377,-55.56401 -5.06249,-16.93965 -12.07249,17.99051 5.47416,-55.96438 -10.98242,-14.56768 -11.85313,37.03321 -5.62335,3.24891 -12.25389,-14.55401 -6.66053,35.10243 -41.13049,65.71088 -9.78906,99.25424 -11.33644,15.51427 9.24827,21.70538 -20.45507,14.84099 -21.97884,-5.93281 -89.9678,-14.00607 -46.50388,-18.40384 6.37701,-30.00121 29.06596,-63.04024 13.06836,-81.07295 7.74424,-20.76005 -2.17279,-44.73992 -10.96875,-11.59635 -11.60388,43.03421 5.4287,-69.21924 -11.80273,-13.04102 -13.2425,48.12298 -5.26429,-11.44562 -14.68358,-20.59426 -14.17139,15.81379 5.98634,68.64883 -18.39257,47.56066 -6.9581,24.22302 40.29651,94.98136 -13.97656,71.59478 -45.74898,-33.4303 -20.0696,-100.8995 19.30858,-128.21778 24.76954,-16.91964 8.58949,-19.50277 2.70703,-15.20215 18.80486,-20.15205 39.81306,-15.86614 61.79099,-7.09837 -0.96742,-1.04377 -1.90632,-2.22056 -2.80859,-3.57847 -15.79759,-31.8137 65.59299,-21.63333 90.21674,-39.86101 25.63812,-1.62495 55.60903,-57.64973 46.15818,-51.64671 -12.67666,21.59171 -49.15133,57.56551 -24.03514,13.74968 -2.92311,-15.05247 21.37876,-46.25749 21.61131,-51.93565 -10.08689,13.06929 -20.3692,12.42574 -0.041,-0.45292 -0.44072,-1.40623 -3.91669,0.36208 -12.52538,7.00857 -12.72891,43.86219 -28.88405,100.72274 -85.77729,91.10751 -22.17703,6.66322 -92.87556,36.66419 -51.07419,-9.82372 -20.78012,12.08135 -65.36465,65.11433 -79.79098,102.044 -11.32851,23.15652 -15.35384,88.45234 -27.0781,32.42878 -2.36883,-53.72144 48.334,-86.38013 67.16793,-131.74744 -22.27094,24.79714 -45.84253,71.83077 -68.21676,82.4239 29.8381,-32.79761 43.46096,-70.50461 53.70505,-113.10933 19.31865,-31.70022 36.44823,-68.99889 54.0488,-86.78719 -15.76855,-18.85184 -27.22746,45.85946 -39.60155,1.88588 -27.17799,11.77943 24.82842,20.43131 4.2461,49.16151 -18.22506,33.69218 -2.8355,-17.07437 -20.95116,-22.58556 -2.81997,-24.12467 -29.1398,4.64675 -2.30274,11.48703 5.53883,44.87599 -10.29619,97.49446 -37.20701,135.12093 -33.13706,25.26316 -1.37982,-50.03035 -3.89063,-67.17294 7.46956,-49.77857 -8.84661,-112.38912 32.50585,-150.01463 22.00562,-21.93884 25.55686,-52.81561 53.09568,-34.62313 10.6818,-8.36389 27.9808,-45.007 16.52538,-14.35292 18.19875,8.76754 21.55012,-12.29386 46.29684,2.28218 1.83615,-28.18458 24.74107,-3.16125 40.1328,-10.8955 -0.18289,4.07531 5.10732,0.37486 2.12109,-1.31777 2.72899,-2.05441 5.14651,-5.39932 7.07225,-10.57728 -2.84177,10.55239 -11.17093,52.72222 9.23047,24.3582 -11.02888,43.70393 29.72363,-14.81571 4.48243,-25.76967 18.59588,7.50987 12.65315,31.8009 22.31052,11.0751 4.53547,21.84241 9.57776,20.81687 15.14648,14.30413 -0.94773,1.05589 -6.81557,1.64367 -3.18554,-1.43882 2.97934,0.36623 3.60326,0.93765 3.20507,1.41734 6.33036,-7.41592 13.3413,-21.89535 21.06053,-17.9314 13.56556,-15.71178 -30.76925,-26.77343 0.79297,-38.41243 8.69873,-11.84095 16.35191,-19.5908 23.25195,-25.76772 -6.67498,-3.69084 -13.47344,-7.17428 -20.38085,-10.4621 l -120.91985,0 c 3.66125,3.07515 -7.07152,0.79613 -4.7793,0 l -2.57031,0 c 3.47054,0.96906 -6.80188,2.77159 -1.33399,0 l -334.07793,0 z m 484.06223,10.4621 c 45.0925,24.93332 84.67915,59.17346 116.11711,104.10947 -22.38004,-76.53548 -11.95546,-94.0401 -88.48041,-114.57157 l -8.13281,0 c 0.23148,3.81259 -3.69625,1.98169 -1.99218,0 l -5.22657,0 c -3.821,3.23778 -7.90144,6.53779 -12.28514,10.4621 z m -44.79686,196.22239 c 0.0391,0.12432 0.0482,0.28012 0.041,0.45292 0.25452,-0.32975 0.50999,-0.62692 0.76367,-0.97417 -0.2957,0.18446 -0.52101,0.34154 -0.80469,0.52125 z M 599.78727,692.7718 c 4.27905,4.6167 9.14871,6.29716 14.22851,6.03635 -4.77871,-2.09051 -9.52668,-4.16064 -14.22851,-6.03635 z m 14.22851,6.03635 c 22.14947,9.68953 44.99129,19.58287 67.33395,10.22977 -26.47528,-17.94054 56.69666,-59.16889 5.34961,-33.66846 -8.10352,18.7476 -43.98984,46.4997 -53.80857,20.98471 11.66169,-1.91204 16.10808,-5.89337 19.20312,-10.30201 -0.21743,-0.35057 -0.12163,-1.06989 0.74413,-2.33684 0.21141,0.13501 0.3812,0.27024 0.52344,0.40412 1.57836,-2.51385 3.01072,-5.08167 5.28711,-7.43027 2.55942,-7.06856 1.98256,-8.36406 -0.67969,-6.62788 2.42237,1.52543 -1.48054,2.71967 -2.03906,1.54228 -8.08463,6.74596 -26.00846,26.3879 -41.91404,27.20458 z m 41.91404,-27.20458 c 0.77927,-0.65024 1.45344,-1.16035 2.03906,-1.54228 -0.28029,-0.17648 -0.61593,-0.35697 -1.08203,-0.53882 -0.96615,1.02375 -1.14598,1.6828 -0.95703,2.0811 z m -2.56836,12.51587 c -0.40747,0.64897 -0.82108,1.2967 -1.26757,1.93272 0.51355,0.82803 2.82501,-0.46669 1.26757,-1.93272 z M 451.2522,751.07372 c -2.71969,3.71603 -5.1679,7.98011 -6.94726,12.4573 2.34097,-3.44226 4.7795,-7.72162 6.94726,-12.4573 z m -14.7578,-21.08427 c -0.009,0.32258 -0.0301,0.58596 -0.0371,0.9195 0.52547,0.084 0.47064,-0.29627 0.0371,-0.9195 z m -143.06633,217.293 c -1.42776,0.57561 -3.2361,4.07879 -5.56445,12.06489 2.80801,-4.12955 4.59312,-8.16636 5.56445,-12.06489 z m -27.416,-196.21458 c -0.83504,-1.81641 -1.8187,-3.61219 -2.95508,-5.3843 0.87175,1.83434 1.86239,3.63499 2.95508,5.3843 z m -2.95508,-5.3843 c -10.44742,-21.98373 -5.57119,-48.00621 1.65234,-28.54382 -0.0303,-24.14494 33.79807,-37.18716 1.83008,-45.26872 -22.74865,-22.36291 -5.29402,-55.46455 9.95313,-64.11768 -6.52612,-29.93801 -31.6404,45.0089 -28.21093,-1.47004 -0.80431,-20.8812 68.10775,-52.23636 29.72654,-52.37101 -15.88323,27.34527 -26.23808,31.21249 -30.49607,12.86727 -4.61644,49.26899 -1.16281,-19.06912 -14.96483,-23.90528 0.51955,-0.17113 0.79297,-0.88989 -0.0547,-2.53597 -1.77492,0.83749 -1.60464,1.80176 -1.00977,2.28219 -0.73911,-0.0781 -1.52243,0.0165 -2.35547,0.3065 0.48972,-2.14575 0.73991,-4.07313 0.81055,-5.8216 1.8215,-0.066 3.88338,-0.68718 1.82227,-2.02448 -0.73082,0.17528 -1.31876,0.3396 -1.82227,0.49391 -0.58633,-22.58726 -35.66673,-9.15928 -9.22069,6.40143 23.58849,26.77467 22.1403,73.46556 25.63474,88.52467 3.78886,16.1367 36.11873,85.85061 6.03711,39.56621 -2.14002,-1.65446 -4.00241,-3.48843 -5.67578,-5.44092 3.51725,7.42757 6.07316,15.00124 7.32031,21.68948 11.33208,18.92106 -23.8725,62.87154 0.92578,49.68276 3.2962,3.13 5.9685,6.36483 8.09765,9.6851 z m -16.34374,-81.05734 c -2.35961,-4.98293 -5.15302,-9.89429 -8.29882,-14.43101 1.99938,5.27605 4.64826,10.17153 8.29882,14.43101 z m -8.29882,-14.43101 c -8.99988,-23.74919 -5.23678,-54.99817 -24.32616,-68.62932 16.89838,20.60406 5.593,55.70225 -19.11132,27.60283 1.91382,-3.98102 2.83424,-13.38601 2.90625,-22.11116 0.0872,-0.18676 0.11004,-0.49974 0.01,-0.99369 0.009,-12.06458 -1.6356,-22.348 -4.64063,-14.30412 -1.39277,-4.57404 -17.83623,-31.01301 -14.08202,-6.7743 14.8433,15.90152 12.44778,67.09494 -14.71093,33.81293 -11.04392,13.3576 -10.57258,18.29323 -5.07812,19.54981 0.17245,-0.25702 0.41543,-0.54372 0.83398,-0.89608 2.09758,0.39542 2.77047,0.85499 2.72266,1.24944 13.71403,0.0717 41.54718,-10.20756 38.31248,2.16504 -22.36802,-5.45252 -43.93023,28.20744 -19.87694,22.41766 20.1406,-27.18448 42.35465,-14.26887 57.04098,6.91096 z m -75.47652,-31.49366 c -1.33729,-0.007 -2.52822,-0.11864 -3.55469,-0.35336 -1.27922,1.90662 3.43451,1.34479 3.55469,0.35336 z m 30.68553,-127.65749 c -0.19441,-0.3171 -0.39296,-0.62559 -0.6211,-0.89023 -0.25545,0.54929 0.0595,0.80555 0.6211,0.89023 z m -74.00778,154.71174 c 0.12643,1.69044 0.27681,3.33797 0.42969,4.97238 0.0183,-1.59574 -0.13412,-3.25551 -0.42969,-4.97238 z M 238.82654,751.185 c 0.0871,-0.15107 0.19285,-0.33234 0.2793,-0.4822 0.003,-0.29527 -0.11205,-0.0226 -0.2793,0.4822 z M 41.21923,690.23778 c -0.13537,-0.35616 -0.237254,-0.69867 -0.333984,-1.03665 -0.10771,0.50555 0.04204,0.83536 0.333984,1.03665 z M 64.605936,471.54306 c -2.177649,-3.74252 -3.93738,-3.95467 -4.425779,1.88587 0.1833,0.61904 0.223931,0.71999 0.394531,1.29239 1.340789,-1.06089 2.674979,-2.12402 4.031248,-3.17826 z m -4.031248,3.17826 c -0.54767,0.43333 -1.091668,0.86773 -1.636718,1.30215 5.619537,9.38973 8.151054,20.55559 1.636718,-1.30215 z m -1.636718,1.30215 c -2.706428,-4.52219 -6.09589,-8.51164 -9.476557,-7.98079 0.164999,-1.2425 0.235123,-2.66466 0.126953,-4.33594 -3.024038,3.51241 -4.223518,6.18015 -4.462888,7.91832 -0.64294,1.03406 -1.273829,2.29938 -1.886718,3.85764 -10.749234,-21.67598 -23.567539,1.89247 -24.023424,-7.66258 -10.1178939,-38.26499 -2.286273,17.14277 -2.123046,35.24589 -0.187582,-0.31684 -0.426529,-0.67327 -0.783202,-1.11864 -1.621399,1.10324 -0.03898,2.51813 0.773436,2.54574 -0.110324,6.06714 -1.430284,6.21157 -5.412106,-6.96172 -0.984509,7.96645 -1.9372722,15.93675 -2.9062477,23.90528 C 23.838084,505.77408 40.65762,490.59363 58.93797,476.02347 Z m -50.1737997,45.4132 c -2.9538293,3.0692 -5.8318623,6.15878 -8.65038585,9.26341 -0.82391854,80.30836 2.90485805,38.02846 8.65038585,-9.26341 z M 78.756318,460.88574 c 1.401219,-1.02607 2.799232,-2.05386 4.214842,-3.07284 -0.3166,-0.55586 -0.724344,-1.14441 -1.246094,-1.76483 -1.742489,2.01449 -2.629808,3.61129 -2.968748,4.83767 z m 16.044913,-11.37965 c 0.4509,-0.30972 0.905221,-0.61829 1.357421,-0.92732 -0.563989,-3.57085 -1.596463,-8.25791 -3.277342,-13.37875 l 0.619141,6.0344 c 0.469759,3.48389 0.90478,6.16778 1.30078,8.27167 z m 29.902319,-19.42291 c 0.41716,-0.25633 0.83583,-0.51149 1.25391,-0.76724 -0.4364,-1.3225 -1.06365,-2.76002 -1.95898,-4.18952 0.22085,2.00623 0.46091,3.6277 0.70507,4.95676 z m 13.48046,-8.09012 c 0.27722,-0.16237 0.55054,-0.32792 0.82813,-0.49002 -0.29862,-0.23922 -0.63747,-0.46263 -1.0625,-0.63838 0.0734,0.42089 0.15363,0.78104 0.23437,1.1284 z m 9.31055,-5.36087 c 1.68534,-0.95538 3.36659,-1.91634 5.06444,-2.862 -0.24635,-0.74825 -0.67201,-1.59308 -1.33788,-2.54378 -3.11283,2.40764 -3.96717,4.23247 -3.72656,5.40578 z m 10.08202,-5.61662 c 11.31742,-6.19524 22.89307,-12.17712 34.70897,-17.91968 4.32852,-3.06099 8.57464,-5.72313 12.40625,-7.33655 21.0502,-18.91122 -10.50293,6.5594 -1.32227,-10.51676 -24.37816,-2.36698 9.66549,16.0517 -17.97851,13.92929 -26.75695,18.54454 -6.51881,-9.0386 -14.3789,-14.43883 -26.40364,1.13238 3.60627,24.67423 -12.62694,27.55598 -0.88935,4.00095 -1.11571,6.82864 -0.8086,8.72655 z m 410.82399,-57.84901 c 2.07869,7.77679 -9.78651,7.04652 0,0 z m 124.12688,0.14837 c 7.31464,0.41459 -5.2774,1.87251 0,0 z m -137.32218,0.6911 c 6.01847,-0.10962 -2.03253,3.26762 0,0 z m 37.48435,0.11713 c 6.23883,2.6653 -13.28946,1.87861 0,0 z m -63.41403,0.18937 c 6.93366,13.21959 -46.6488,-3.40508 -8.93358,2.29584 l 8.93358,-2.29584 z m -42.63669,0.0859 c 25.81027,11.59074 -38.49748,-6.11485 -20.41405,21.36735 -2.58407,-3.2087 -24.78714,-12.74463 -22.01171,13.44904 -30.41003,13.70614 -1.79363,15.79553 13.93554,22.07016 -26.91892,24.14659 -43.5301,-44.50083 -57.54293,-6.84849 3.27077,-23.07386 -35.85617,-56.22117 -22.3203,-12.72865 13.56268,12.31336 17.84547,43.24172 6.44335,22.03502 -0.44254,1.23669 -4.83896,1.4699 -1.83007,-1.71407 0.59324,0.23155 0.98851,0.45798 1.28711,0.67938 -0.93232,-1.79122 -1.95245,-3.86853 -3.08203,-6.34871 -18.75472,-15.18546 -26.7881,-49.71377 -33.9785,-41.45208 -9.12452,-7.82595 -13.98386,-4.88697 -17.09765,0.3475 0.0355,-0.0388 0.0521,-0.0692 0.0899,-0.10933 4.69684,1.83313 -0.80793,3.54907 -1.02344,1.88588 -3.57883,7.29066 -4.69528,16.89138 -8.73633,10.50699 8.53607,-14.49263 -26.44482,0.26361 -1.2832,-10.87987 -17.79215,-9.85362 -68.18048,-5.97212 -21.58788,-8.1604 62.99791,-2.43979 126.3593,0.87334 189.15224,-4.09972 z m -157.54483,12.633 c 0.29808,-0.60722 0.59792,-1.21226 0.93359,-1.77655 -0.73462,0.80604 -0.98417,1.38606 -0.93359,1.77655 z m 55.09177,45.67674 c 0.18509,0.35559 0.36549,0.70464 0.54296,1.03469 0.10659,-0.29775 -0.0292,-0.65382 -0.54296,-1.03469 z M 34.020015,354.5058 c -12.329282,5.45682 -2.954508,6.23917 0,0 z m 177.749895,0.6091 c 3.75579,9.15406 15.63156,5.55003 0,0 z m 400.45486,0.63839 c 14.95539,0.13895 -7.93962,4.69527 -3.51563,0.0351 1.35278,-0.034 2.5186,-0.0444 3.51563,-0.0351 z m -477.49388,0.65205 c -7.86565,5.46901 13.24894,0.48658 0,0 z m -66.503863,0.0508 c -19.021229,1.41692 2.974439,8.40501 0,0 z m -22.22655,0.006 c -1.089519,-0.004 -2.48146,0.0636 -4.232419,0.23623 4.547867,3.41052 11.859085,-0.20402 4.232419,-0.23623 z m 44.048804,0.14838 c -24.000947,3.7187 15.394059,9.36137 0,0 z m 753.673409,0.0996 c -12.31425,8.73661 11.69097,4.47428 0,0 z m -676.47814,0.0449 c -2.45106,0.002 -5.11113,0.1276 -7.96484,0.40607 -2.37914,-0.21388 -4.39221,-0.27275 -6.07227,-0.20889 -16.2406,0.61726 -1.59583,12.72898 9.52149,7.71138 32.23406,3.60358 28.20923,-7.92603 4.51562,-7.90856 z m 370.86307,0.0371 c 8.00131,0.29378 -7.64234,3.55907 0,0 z m -437.60913,0.004 c -9.692528,4.90461 8.94851,4.46619 0,0 z m 134.82805,0.43535 c -1.19823,0.71454 -1.90539,1.30098 -2.27734,1.79802 0.25312,-0.19407 0.88504,-0.39772 2.16015,-0.57591 1.67407,1.75885 -2.46772,1.39324 -2.29296,0.73404 -3.19775,5.11863 35.01482,-1.34067 2.41015,-1.95615 z m -163.745999,0.24598 c 2.038919,6.91159 14.657102,2.99504 0,0 z m 366.880649,0.0508 c -6.59411,2.31715 5.41686,4.43614 0,0 z m -10.99609,0.24599 c -6.19363,0.86264 2.2698,2.38826 0,0 z m -160.98037,0.12104 c -4.43057,3.84115 10.06046,0.82603 0,0 z m -66.24801,0.27917 c -6.84061,3.28397 6.14467,0.89458 0,0 z m 6.73046,0.28502 c -5.27825,1.87268 7.31478,0.42075 0,0 z m 290.18148,0.0879 c 3.50614,2.23898 -3.09727,4.53276 0,0 z m 7.25195,0.12104 c 6.01844,-0.10949 -2.03261,3.26764 0,0 z m 70.88082,0.0371 c 1.69432,10.73174 -16.98131,6.25181 0,0 z m -460.15208,0.10932 c -19.178022,15.02963 23.72841,5.19339 0,0 z m 425.94116,0.17961 c 7.98825,1.59891 -5.54711,4.26868 0,0 z m -187.92959,0.041 c -6.18721,0.86463 2.27178,2.38681 0,0 z m 18.61914,0.10347 c -4.17457,1.97503 2.40997,4.67514 0,0 z m -117.74603,0.72233 c -5.12002,5.53169 7.02805,2.46448 0,0 z m 175.92764,0.008 c -6.74523,0.18721 1.11358,3.13784 1.55078,0 -0.58601,-0.0147 -1.10108,-0.0126 -1.55078,0 z m -278.25766,0.006 c 3.40314,5.12099 -5.60215,6.32359 0,0 z m 215.03503,0.0293 c -16.34671,7.89167 6.65749,9.77666 0,0 z m -190.89833,0.42364 c 3.9233,4.57868 -5.47798,2.01491 0,0 z m -132.507731,0.1146 c -7.308846,4.66897 10.646814,1.09168 0,0 z m 74.046831,0.0449 c 2.47311,-0.15882 3.61178,6.55131 -2.6914,3.08065 0.89482,-2.21052 1.86704,-3.0277 2.6914,-3.08065 z m 392.7322,0.082 c 6.01844,-0.10948 -2.03261,3.26763 0,0 z m -375.76542,0.42169 c -15.74609,3.51833 16.89373,0.40959 0,0 z M 259.62926,361.53 c -2.03255,3.26762 6.01846,-0.10961 0,0 z m -56.87887,0.0898 c -2.03262,3.26762 6.01843,-0.10961 0,0 z m 5.74413,0.50759 c 1.63893,8.33596 12.42857,4.00008 0,0 z m -150.415924,0.18937 c -6.357607,1.91456 8.818285,0.40702 0,0 z m 526.650094,0.006 c 15.7414,9.04568 -0.93283,7.35202 0,0 z m -384.99002,0.9566 c -19.46044,2.60189 5.39522,12.86623 0,0 z m 223.69909,0.34165 c -5.62012,4.97911 2.42747,8.74141 0,0 z m -158.54483,0.0996 c 5.85283,2.28428 -4.15442,4.39617 0,0 z m 165.38858,0.14252 c -5.19964,12.56627 8.50904,20.93215 0,0 z m -16.79101,0.1796 c -10.7723,2.04456 4.11066,2.12871 0,0 z m -206.61317,1.2963 c -4.15438,4.39615 5.8528,2.28428 0,0 z m -105.60736,0.35531 c -4.154377,4.39617 5.85283,2.28429 0,0 z m -25.595681,0.99369 c -4.154378,4.39615 5.852826,2.28423 0,0 z m 10.982416,0.51539 c -2.841039,6.85979 14.351905,7.65067 0,0 z m 627.136365,0.1718 c 3.08262,2.44603 -2.52529,5.75375 0,0 z m -653.214476,0.10542 c -7.307996,4.66841 10.646614,1.08563 0,0 z m 416.294686,0.87461 c 5.85281,2.2843 -4.1544,4.39611 0,0 z m 232.71276,0.0195 c 6.57997,10.34511 -9.76715,10.16146 0,0 z m -145.40617,0.22842 c 9.62902,9.73215 -3.40392,12.26388 0,0 z m 152.8339,0.2206 c 6.31294,2.0965 -2.56988,4.68917 0,0 z M 29.756345,369.052 c -2.750176,1.87129 3.742018,4.67261 0,0 z m 692.835555,0.77504 c 4.33134,2.23712 2.46744,7.79179 0,0 z m -229.4491,0.0293 c 3.74202,4.67259 -2.75018,1.87128 0,0 z M 380.15459,371.137 c 8.63901,3.17775 -7.78337,6.54287 0,0 z m 375.29666,0.12104 c 6.01843,-0.10948 -2.03256,3.26762 0,0 z m -614.38638,0.10738 c -2.80957,3.97636 6.14383,0.95127 0,0 z m 424.0857,0.27526 c -2.17037,2.05171 1.8521,4.59238 0,0 z m -412.865,0.23427 c -3.09726,4.53276 3.50614,2.23899 0,0 z m 419.8025,0.1679 c 5.58787,1.73005 1.88668,4.42588 0,0 z m 195.48036,1.34119 c 3.60383,11.18202 20.14895,2.93603 0,0 z m -400.37673,0.12885 c -5.57463,13.38326 12.78331,15.13277 0,0 z m 120.46869,0.29674 c 4.66683,2.03103 -0.57219,8.0096 0,0 z m -353.74394,0.52515 c -9.75902,5.08664 3.84793,8.0435 0,0 z m 448.24583,0.55835 c 6.10932,4.37414 -4.13607,5.59642 0,0 z m 143.67375,0.86484 c 3.50631,2.23495 -3.09743,4.53082 0,0 z m 23.6328,0.66572 c 7.98823,1.59894 -5.54716,4.26867 0,0 z m -702.3414,0.59348 c -1.735779,11.87754 20.588858,10.00709 0,0 z m 685.75157,0.0586 c 8.55562,18.4759 -4.40107,13.09907 0,0 z m -384.99978,0.18351 c 4.21652,5.95555 -2.42877,2.6092 0,0 z m -253.267442,0.0918 c -2.750178,1.87128 3.742018,4.6726 0,0 z m 287.919762,0.19327 c 8.57408,7.84438 -3.1692,8.76133 0,0 z m -90.18354,0.31822 c 5.45661,6.00331 -6.86374,1.12587 0,0 z m 268.50961,0.0644 c 6.70081,4.47799 -5.58065,5.82775 0,0 z m -521.175488,0.13471 c 3.914418,30.08161 19.403039,19.49603 0,0 z m 48.294894,0.25574 c -2.750179,1.87129 3.742019,4.67261 0,0 z m 14.660144,0.40412 c -13.966385,6.43387 20.41781,1.91312 0,0 z m 381.69705,0.59543 c 6.01844,-0.10962 -2.03261,3.26758 0,0 z m -6.62304,0.18742 c 4.15812,4.15724 -3.19145,10.29474 0,0 z m -394.18923,0.32993 c -18.589059,5.4089 2.419209,7.42167 0,0 z m 336.37091,0.65595 c 5.95552,22.05444 31.91672,13.86994 0,0 z m -21.60155,0.43731 c 0.78674,3.81266 8.37623,1.74056 0,0 z m 183.61512,0.46463 c -0.69475,12.01304 -17.48829,4.80574 0,0 z m -253.65219,0.44902 c 6.13706,0.89064 -6.84059,3.28246 0,0 z m 25.72068,0.69695 c 5.4566,6.0033 -6.86377,1.12583 0,0 z m 338.95684,0.18351 c 4.58013,0.96745 -0.59008,6.25733 0,0 z m -8.27343,0.20108 c 3.74203,4.6726 -2.75018,1.8713 0,0 z m 24.54686,0.29284 c 5.75674,18.08964 -1.60996,21.57024 0,0 z m 7.66992,1.14987 c 5.1823,1.44949 4.3539,6.91027 0,0 z m -618.458636,0.61496 c -2.750178,1.87128 3.742016,4.6726 0,0 z m 623.739886,0.14642 c 4.83929,9.78299 1.80284,18.69488 0,0 z m -236.3612,1.11669 c 0.90012,4.03461 -6.89384,0.82454 0,0 z m -112.85541,0.004 c -4.17445,1.97034 2.40958,4.67387 0,0 z m -350.173625,0.18937 c -2.750174,1.87129 3.742022,4.67259 0,0 z m 533.960635,0.27136 c 3.50617,2.23898 -3.09723,4.53277 0,0 z m -107.39642,0.23622 c 19.4423,2.07633 20.89686,13.60195 0,0 z m -380.513459,0.17766 c -7.308246,6.01459 10.618774,1.91669 0,0 z m 19.548817,0.4783 c -22.530638,17.88169 -6.639327,26.53095 0,0 z m 298.234202,0.14642 c 5.95578,0.62004 -3.19263,4.8711 0,0 z m -360.505652,0.74966 c 14.757501,23.61104 13.012602,9.85429 0,0 z m 668.749622,1.64379 c 28.8026,-0.004 3.40649,34.29811 1.4668,24.14736 -17.12206,-10.87949 27.68871,-14.1271 -8.29687,-15.6297 -6.12502,-2.87222 2.63132,-8.1263 6.19335,-8.5079 0.23748,-0.0254 0.45138,-0.0301 0.63672,-0.01 z m -649.380491,0.11323 c 6.025856,4.69579 0.593049,5.54161 0,0 z m 75.458941,0.23427 c -1.69447,5.21269 5.357,14.79318 0,0 z m -84.837843,0.64425 c 13.906392,21.49345 9.826954,12.82906 0,0 z m 167.445223,0.5232 c 11.19623,2.167 -9.2831,3.93451 0,0 z m 560.00358,0.20108 c -6.0649,3.67605 2.22937,6.64033 0,0 z m -741.325748,0.11713 c -2.750176,1.87131 3.742023,4.6726 0,0 z m 423.751708,0.59544 c 3.50338,3.3062 -3.83583,8.33325 0,0 z m 103.59369,0.11323 c 1.89905,13.32603 -10.62337,12.43514 0,0 z m -62.64058,0.26746 c 4.27709,4.51307 -4.69311,8.17589 0,0 z m -274.68344,0.25184 c 5.85274,2.28997 -4.15531,4.39681 0,0 z m 28.06249,0.11908 c -2.81445,4.63847 -9.68896,3.39531 0,0 z m 110.92375,0.0703 c 5.85903,1.23265 5.57462,21.54096 0,0 z m 143.21867,0.43535 c 12.82231,3.43515 -3.3069,22.9741 0,0 z M 28.12744,394.0603 c -4.155309,4.39681 5.852727,2.28998 0,0 z m 78.27534,0.08 c -2.81121,3.9731 6.13719,0.94894 0,0 z m 363.93926,0.49197 c 9.06825,3.77103 -5.3692,3.67506 0,0 z m -410.099383,0.15032 c -7.424016,1.93923 10.258974,-0.0621 0,0 z m 84.122993,0.67743 c -9.35796,11.2883 12.69853,4.40006 0,0 z m 532.63056,0.0879 c 4.63331,8.95062 -2.19708,3.21197 0,0 z m 23.64843,0.23037 c -6.59414,2.31712 5.41688,4.43614 0,0 z m -222.41199,0.95464 c 7.30142,15.06903 1.04548,25.68337 0,0 z m -59.92379,0.86095 c -5.25721,7.12655 -8.51652,0.90527 0,0 z m -59.13864,0.10737 c 4.15938,6.12214 0.0616,13.1325 0,0 z m -250.09751,0.33383 c 3.67025,7.68628 5.60229,0.33585 0,0 z m 89.45307,0.5154 c 6.76087,18.33147 -13.12922,8.56584 0,0 z m 361.81035,0.19327 c 6.27408,0.29946 -6.65246,5.08533 -1.52149,0.004 0.59999,-0.0242 1.10321,-0.0239 1.52149,-0.004 z m 165.34951,0.33383 c 29.00399,14.91712 -2.41557,21.8922 0,0 z m -378.27713,0.53102 c 1.94665,4.54552 -5.99128,5.80665 0,0 z m 224.828,0.3104 c 0.33328,-0.0254 0.72008,-0.0249 1.16797,0.008 1.04543,6.70501 -6.16695,0.37337 -1.16797,-0.008 z m -178.9667,0.83166 c 3.74202,4.6726 -2.75019,1.8713 0,0 z m 173.0292,0.006 c 2.50525,4.47421 -5.4211,5.43232 0,0 z m 151.64054,0.0293 c 5.23789,5.18332 -1.66092,8.47529 0,0 z m -529.91963,0.63643 c 7.94787,1.32106 -2.9018,5.95448 0,0 z m 273.97055,0.35922 c 8.81828,0.4071 -6.35762,1.9142 0,0 z m -215.99597,0.11128 c 3.50616,2.23899 -3.09722,4.53276 0,0 z m 437.38257,0.15618 c 13.81128,18.86217 -10.99099,9.05448 0,0 z m -346.56621,0.31626 c 5.85281,2.2843 -4.15442,4.39615 0,0 z m 135.56633,0.74185 c 5.85272,2.28998 -4.15532,4.39681 0,0 z m -308.61506,0.10933 c 7.69292,3.32663 -3.07631,5.28621 0,0 z m -55.15427,0.57396 c -0.93063,-0.005 -2.01571,0.0114 -3.27344,0.0547 -3.62754,5.06054 17.233,0.0192 3.27344,-0.0547 z m 264.4979,0.3885 c 16.68557,17.73702 -9.39536,15.94619 0,0 z m 32.46287,0.0156 c 10.38362,4.44816 -6.70164,10.23917 0,0 z m -366.134555,0.42949 c -2.573159,4.68612 6.309506,2.10128 0,0 z m 139.308515,0.16204 c 11.64554,0.38584 -20.33674,28.34033 -6.17188,4.01382 l 4.90625,-3.96306 c 0.46946,-0.0476 0.88997,-0.0632 1.26563,-0.0508 z m 375.26737,0.14642 c 4.64989,1.21658 -1.91037,6.03968 0,0 z m -33.65037,0.76528 c 4.12863,1.35421 -1.37912,4.94402 0,0 z m 25.58982,0.31236 c 3.50618,2.239 -3.09727,4.53277 0,0 z m -497.79659,0.10542 c -3.097248,4.53276 3.506158,2.239 0,0 z m 187.01552,0.11323 c 3.29672,3.11427 -2.31354,6.97975 0,0 z m 162.47452,0.55053 c 3.35696,3.79207 -7.74322,2.32936 0,0 z m -311.822093,0.0293 c -18.140649,7.14983 -8.612664,16.45166 0,0 z m 21.388653,0.30259 c -4.15438,4.39616 5.85287,2.28424 0,0 z m 552.53094,0.0937 c 7.98824,1.59894 -5.54714,4.26865 0,0 z m -412.98219,0.0722 c 5.85285,2.28426 -4.15442,4.39616 0,0 z m 252.16588,0.73014 c 15.48262,11.96412 -12.70238,2.30348 0,0 z m -26.60154,0.53686 c 7.98151,1.60778 -5.54919,4.26691 0,0 z m -128.60931,0.24209 c 3.82384,1.2932 1.08639,5.85426 0,0 z m 70.90426,0.73404 c 6.81653,17.75164 -19.12456,13.35829 0,0 z m -78.30465,0.13666 c 4.27675,7.44416 -2.30525,2.90326 0,0 z m 307.39241,0.28503 c 6.97352,8.59644 -6.83592,1.03961 0,0 z m -101.09369,1.56375 c 11.97013,3.9629 -9.71599,11.56553 0,0 z m 173.61709,0.40606 c 18.23482,2.92932 1.1073,17.89943 0,0 z M 241.432,412.14017 c 3.29758,3.11264 -2.31483,6.97396 0,0 z m 110.87689,0.18547 c 6.0317,2.39583 -5.18966,3.79858 0,0 z m -9.95702,0.15813 c 7.36228,1.36273 -4.25515,5.01513 0,0 z m -218.29675,0.14056 c -2.75018,1.87129 3.74202,4.67258 0,0 z m 128.55657,0.17376 c 5.11241,3.46158 -7.60852,6.92949 0,0 z m -64.02536,1.02687 c 5.89167,0.7833 -1.37741,4.73684 0,0 z m 143.4921,0.29479 c 6.89063,17.75412 -1.46131,16.86328 0,0 z M 196.23086,414.555 c 11.19177,5.52313 -2.34948,5.88617 0,0 z m 322.20685,0.13275 c 6.14297,0.94605 -2.80839,3.97502 0,0 z m 19.43163,0.17766 c 5.00658,0.976 -4.00185,4.49102 0,0 z m -49.19919,0.0605 c 6.14299,0.94608 -2.80841,3.97504 0,0 z m -127.66204,0.24794 c 3.50617,2.23898 -3.09722,4.53278 0,0 z m 38.39842,0.28112 c 6.99967,4.93032 -8.93158,4.37682 0,0 z m 67.63277,0.13861 c 17.87192,3.84812 -18.07767,7.2732 0,0 z m -111.33978,0.35336 c 3.50631,2.23492 -3.09742,4.53081 0,0 z m -237.79479,0.0644 c -8.2919,16.00875 5.68713,19.63958 0,0 z m 543.57587,1.90345 c 6.10821,4.38042 -4.13562,5.59619 0,0 z m -185.93154,0.3924 c 2.82886,4.7057 -5.65666,7.04461 0,0 z m -57.23629,0.1347 c 13.66778,9.14136 33.2182,1.31562 48.207,12.53539 21.50371,-8.62726 -3.60811,14.30146 3.94336,24.03803 -29.1719,2.39347 24.29517,5.9962 14.69335,10.22391 -10.66271,30.50923 -5.72928,82.19871 -24.08202,118.15786 -17.49071,21.69203 0.91246,-38.84375 -19.40038,-35.34545 14.65047,-4.14793 11.10738,-24.52681 5.2539,-33.09841 -2.93791,9.3522 -17.73345,1.69124 -0.14257,-0.2089 -4.37141,-6.21889 -9.93759,-5.81211 -10.20898,12.75795 2.52116,18.93954 -2.4347,77.89994 -24.5996,35.19708 -14.99053,-47.27813 60.37432,-87.61417 39.47264,-127.14796 -9.66044,2.56596 -15.66561,25.04897 -21.39648,38.68379 -0.0212,-0.41553 -0.78829,-1.05557 -3.02539,-1.80583 -0.51555,2.2771 2.34636,2.65947 2.92188,2.05377 -3.25797,7.69517 -6.43398,12.45938 -10.14843,9.01939 1.31315,0.0108 3.10413,-1.00459 0.85937,-2.73706 -1.05914,0.71281 -1.59289,1.26836 -1.80663,1.69456 -1.81402,-2.31302 -3.76081,-6.57998 -5.91016,-13.39243 6.58023,-17.84298 5.36508,-31.12224 5.36914,-50.62569 z m 28.47264,96.30243 c 0.0475,0.0677 0.0953,0.13976 0.14257,0.2089 0.0256,-0.0814 0.0563,-0.15411 0.0801,-0.23817 -0.0834,0.008 -0.14071,0.0205 -0.22265,0.0293 z m 134.97257,-96.24191 c 0.32977,12.40702 -17.54301,16.39701 -3.416,2.9108 l 3.416,-2.9108 z m -401.72047,0.89218 c -5.90361,19.81827 -28.27453,44.47164 -8.10547,10.60461 l 5.98828,-8.18187 2.11719,-2.42274 z m 301.22639,0.19327 c 4.44735,5.3607 -6.43995,6.27228 0,0 z M 20.05518,419.8163 c -5.327834,18.48021 1.677681,10.79739 0,0 z m 127.29876,0.18156 c 5.77734,9.16541 -5.37919,2.51503 0,0 z m -58.765596,0.12299 c -2.759928,7.66969 3.483169,3.23759 0,0 z m 468.445046,0.28894 c 7.92655,2.81072 -3.68316,3.10579 0,0 z m -398.12282,0.0234 c 6.92476,8.42459 -7.37019,1.32543 0,0 z m 86.23823,0.26941 c 6.20647,3.83479 0.93409,8.65736 0,0 z m -152.218661,0.13861 c -2.525279,5.75378 3.082637,2.44603 0,0 z m -17.152334,0.10737 c -6.672197,8.92278 12.423993,2.83545 0,0 z m 662.105095,0.32408 c 3.019,18.97574 -12.43405,16.03786 0,0 z m -388.07596,0.0566 c 2.49769,4.47515 -5.42037,5.4327 0,0 z m 53.35544,0.61886 c 3.42944,8.86548 -7.05018,3.07374 0,0 z m -297.99202,0.51931 c -3.45898,7.26164 6.88392,4.08178 0,0 z m 282.23812,0.53101 c 20.46048,30.88854 28.65559,118.45902 -21.25388,115.81515 -11.97102,-7.21651 18.21352,50.19388 12.41796,8.43762 46.24172,-3.87018 17.54371,-88.81189 32.40427,-87.31819 -6.32376,20.92656 -1.65945,46.65806 10.22265,43.20129 -20.17783,28.13667 -24.20001,81.49943 12.65234,79.28274 20.0969,-45.50432 7.68355,30.7265 30.75389,7.28189 8.07827,-12.48015 19.22724,-74.10224 17.0371,-27.55013 -11.86615,20.73581 2.77472,70.34169 -20.27929,101.921 -11.01792,27.11268 -55.0476,45.62667 -65.3398,12.57443 -25.83281,-12.84716 -34.2243,19.20751 -5.06836,19.31555 -56.17585,9.32379 -47.47763,-87.76777 -29.74998,-98.94188 40.77527,-16.71228 -39.40565,-60.80308 -19.18163,-70.59134 -18.70576,-14.80287 -8.375,-49.41143 9.13671,-44.55615 -0.41116,-30.84265 24.47711,-17.41356 18.11131,-43.60931 12.58841,-0.32718 30.49265,-4.1404 12.47266,-13.13276 l 5.66405,-2.12991 z m -148.98233,0.16008 c 10.612,5.91223 -4.43457,8.45897 0,0 z m 131.2675,0.36312 c 6.10285,4.38529 -4.13758,5.59263 0,0 z m 176.61904,0.0312 c -1.31103,17.04976 -6.76092,7.94783 0,0 z m 236.32604,1.05617 c -16.74214,23.92179 16.1872,16.23668 0,0 z M 186.11368,424.773 c 2.60282,13.49611 -13.17522,1.44242 0,0 z m 481.54661,0.17571 c 3.74203,4.67261 -2.75018,1.8713 0,0 z m 59.63277,0.1347 c 4.27673,7.44415 -2.30526,2.90324 0,0 z m -190.93153,0.23817 c -12.75633,30.31799 -16.69214,13.6843 0,0 z m 20.37889,0.0488 c 5.71672,5.66704 -3.46582,11.80886 0,0 z m -150.88077,0.24599 c 11.49311,18.24512 -8.4601,20.55823 0,0 z m -319.546695,0.20504 c -1.26746,13.68639 3.533298,6.92767 0,0 z m 264.954925,0.37679 c 4.12867,1.35419 -1.37911,4.94404 0,0 z m 307.10334,0.10543 c 3.74203,4.67262 -2.75019,1.8713 0,0 z m -105.60736,0.35335 c 3.74203,4.67261 -2.7502,1.87129 0,0 z m -289.02718,1.14987 c 7.88361,6.78729 -8.90163,6.25646 0,0 z m -12.42577,0.65206 c 4.05402,2.33601 -0.22902,7.23491 0,0 z m 194.35145,0.23621 c -13.47501,2.69416 4.64336,2.89336 0,0 z m -368.031041,0.0391 c 1.422779,27.21881 9.628454,20.4428 0,0 z m 607.819971,0.24792 c 20.10015,10.40061 -13.44085,9.08115 0,0 z m 129.65813,0.0527 c -8.94983,6.1332 -41.58981,68.04713 -5.14453,41.21781 -3.77883,22.05904 12.69516,26.209 19.30663,3.25049 4.58238,28.39948 15.68774,-44.30978 -1.73242,-24.60028 -5.33213,-5.86097 -7.45872,-13.76325 -12.42968,-19.86802 z m -467.1345,0.32212 c 7.98123,1.60191 -5.54843,4.26641 0,0 z m 261.9061,0.27722 c 17.08348,2.03237 -18.46303,3.96723 0,0 z m -446.24194,0.45877 c 7.91286,5.82034 -8.36191,6.51261 0,0 z m -19.50389,0.0508 c 5.51734,13.60321 -5.90076,10.68185 0,0 z m 9.18749,0.0156 c 1.46477,6.67602 -8.90697,6.29294 0,0 z m 84.33003,0.043 c 3.74203,4.67259 -2.75019,1.87127 0,0 z m -59.53317,0.47439 c 3.74204,4.67259 -2.75015,1.8713 0,0 z m 543.23017,0.0351 c 4.67737,10.46395 -2.0699,3.44744 0,0 z m -448.58569,0.34359 c -1.92653,10.31256 -8.19794,5.46955 0,0 z m 278.63265,0.49978 c -0.38408,11.08233 -5.15171,12.50389 0,0 z m -350.03495,0.10737 c 7.03599,6.3631 -3.30434,8.44025 0,0 z m 486.91184,0.0234 c -5.63219,1.74527 2.309,5.42507 0,0 z m -553.24189,0.0508 c 5.58842,3.60004 -2.3451,9.07525 0,0 z m -64.164019,0.53882 c -11.321744,18.58156 17.265211,21.61848 0,0 z m 171.128799,0.0137 c 6.30638,2.56333 -6.34869,4.09284 0,0 z m 165.31046,0.49587 c -2.1671,2.05331 1.84747,4.6001 0,0 z m -350.759564,0.4822 c -2.428778,2.60919 4.216528,5.95556 0,0 z m 380.949004,0.26746 c -21.38059,3.39723 28.12126,0.99812 0,0 z M 53.975082,433.6422 c -1.503349,6.06813 5.687517,17.63334 0,0 z m 202.845588,1.31582 c 5.15745,0.96018 2.23311,7.15517 0,0 z m 490.82394,0.16399 c -2.17041,2.05168 1.85205,4.59238 0,0 z m -397.34158,0.0137 c 4.5803,3.53931 1.48068,9.6718 0,0 z m 113.70307,0.32798 c -0.85466,-0.0994 -0.7123,0.947 2.92773,4.07629 0.9183,-1.92661 -1.82885,-3.94853 -2.92773,-4.07629 z m 181.85732,1.1733 c -34.47875,16.42965 9.31802,34.40262 0,0 z m -526.41377,0.46659 c 4.27674,7.44415 -2.30526,2.90324 0,0 z m 370.04472,0.33969 c 5.85274,2.28993 -4.15529,4.39685 0,0 z m 190.05653,0.28698 c 12.00488,7.85641 -5.89501,10.38495 0,0 z m -155.97061,0.27331 c 0.0274,2.84747 -7.99765,6.36241 0,0 z m 265.36704,0.15032 c -15.76981,17.83703 11.5501,8.64657 0,0 z m -312.48812,0.48222 c 4.41826,19.51509 2.92409,-8.85414 9.375,8.32243 -5.58291,9.32126 -15.53746,0.37946 -9.375,-8.32243 z m -223.96471,0.40606 c 5.26378,1.84639 1.8036,6.75452 0,0 z m -4.67187,0.0566 c 3.81907,1.29604 1.08528,5.85245 0,0 z m 172.2128,0.24012 c -3.52621,2.62989 4.10965,3.90376 0,0 z m -263.7401,0.22646 c 6.97681,0.32875 6.29002,7.83216 0,0 z m -18.51366,0.0957 c 8.26567,-0.12852 -9.12222,4.88977 -2.00977,0.0976 0.79394,-0.0587 1.45873,-0.0891 2.00977,-0.0976 z m 322.75177,0.0176 c -4.06158,8.88547 5.70056,8.502 0,0 z m 151.19719,0.30454 c -9.84407,7.76149 7.31337,10.05991 0,0 z m 225.41979,0.1308 -0.98242,4.42575 0.98242,-4.42575 z M 330.8304,440.3014 c 4.98929,7.30461 -4.56192,14.2226 0,0 z m -116.71479,0.15423 c 1.07217,4.99005 -8.78546,3.10092 0,0 z m -143.46085,0.004 c 5.090288,4.82606 -5.749156,3.56552 0,0 z m -12.751945,0.28698 c -4.615838,34.52497 7.946315,8.49318 0,0 z m 444.542715,0.008 c 19.21351,4.88509 -7.13984,4.9738 0,0 z m 33.41014,0.31626 c 1.57914,11.37527 -9.23828,12.69427 0,0 z m -104.47064,0.69696 c -6.18723,0.86463 2.2718,2.38683 0,0 z m -105.1308,0.32211 c 5.85283,2.28431 -4.15437,4.39616 0,0 z m -173.26944,0.38265 c 6.77694,2.29782 2.26614,7.74806 0,0 z m 508.42354,0.0273 c -4.17458,1.97501 2.41001,4.67516 0,0 z m -467.61497,0.20304 c 11.27724,2.42354 2.72105,6.58266 0,0 z m 151.36125,0.12104 c 3.4762,3.24045 -2.75873,7.66743 0,0 z m 431.67944,0.1386 c -9.66484,21.84696 18.49661,8.9086 0,0 z m -327.75372,0.002 c -2.42777,8.07734 -2.21883,4.22484 -2.39258,2.93228 l 2.39258,-2.93228 z m 114.86907,0.0332 c 7.02804,2.46447 -5.12003,5.53169 0,0 z m -474.501681,0.75942 c -3.097228,4.53278 3.506158,2.239 0,0 z m 249.382671,0.0547 c 5.01285,0.97101 -4.00086,4.49439 0,0 z m -199.51161,0.039 c -0.61267,6.72166 -10.21883,3.65967 0,0 z m 574.7282,0.86486 c -1.8126,0.2269 0.80753,4.22816 0,0 z m -460.98803,0.11713 c 9.07512,2.19922 1.04229,7.59164 0,0 z m 15.72265,1.33729 c 6.4346,3.4276 -2.17432,7.98419 0,0 z m -139.70305,0.006 c 3.50616,2.23899 -3.09723,4.53276 0,0 z m 81.10542,0.29674 c 3.74203,4.67261 -2.75019,1.8713 0,0 z m -32.38474,0.11713 c 5.82304,2.27143 -3.40694,5.69149 0,0 z m 639.47425,0.10932 c 19.09471,10.90139 -19.49788,4.39386 0,0 z m -646.10511,0.21476 c 5.85283,2.28428 -4.15441,4.39612 0,0 z m 321.08576,0.26746 c 4.892,18.24204 -2.13032,14.81489 0,0 z m 241.5233,0.21864 -0.47265,0.35727 0.47265,-0.35727 z m -234.69713,0.4256 c 6.3973,5.87983 -3.30414,14.83714 0,0 z M 19.449711,448.2957 c -2.750183,1.87129 3.742026,4.67261 0,0 z m 135.447179,0.63643 c 24.00317,5.17556 -0.23847,10.09185 0,0 z m 253.46666,0.37873 c 6.51815,1.78222 -3.52475,6.08065 0,0 z m -62.13082,0.10152 c -0.41193,5.89758 -3.44228,2.60932 0,0 z m 371.08768,0.0625 c -6.01448,12.65972 7.39406,10.44348 0,0 z m -590.14225,0.82774 c -1.77013,6.04646 -5.49666,0.19701 0,0 z m 571.19304,0.16985 c -2.17042,2.05171 1.85208,4.59241 0,0 z m -23.7578,0.25965 0.0605,0.61301 -0.0605,-0.61301 z m -568.40788,0.16985 c 7.9416,3.72401 -5.59562,6.29431 0,0 z m 283.14437,0.008 c -6.73081,1.78398 -1.18205,5.2444 0,0 z m 271.26938,0.42169 -0.75195,6.12225 0.75195,-6.12225 z m -510.48994,0.006 c 5.85283,2.28425 -4.15437,4.39616 0,0 z m -105.800727,0.94098 c -6.374046,6.83779 7.726506,4.35963 0,0 z m 505.499707,0.0449 c -0.0918,-0.0184 -0.17111,-0.009 -0.23828,0.0195 -1.16407,0.50782 1.227,7.57736 1.44336,0.94683 -0.53839,-0.62287 -0.92959,-0.91118 -1.20508,-0.96635 z m -35.02537,0.11518 c 0.21068,-0.004 0.42695,-5.6e-4 0.65039,0.0117 0.46131,0.0254 0.95055,0.0868 1.46876,0.18742 3.05384,16.73858 -33.41485,51.07974 -14.85546,12.76379 11.14293,19.86693 -0.53639,-12.69013 12.73631,-12.96292 z m -443.917711,0.40801 c 0.88211,12.52865 6.245997,2.05549 0,0 z m 458.847391,0.61301 c 9.35061,3.1134 -4.0086,6.55728 0,0 z m -123.61712,0.041 c 2.35324,8.13416 -3.67868,3.89324 0,0 z m -277.71077,0.0761 c -1.64899,6.24543 -9.60169,5.16601 0,0 z m 85.54292,0.44707 c 4.21652,5.95556 -2.42877,2.60919 0,0 z m -184.306539,0.97027 c -12.227248,6.67016 -4.037542,5.9735 0,0 z m 59.790983,0.2616 c 6.142977,0.9461 -2.808418,3.97505 0,0 z m 88.089786,0.14446 c 10.06046,0.82606 -4.43056,3.84113 0,0 z m -140.954991,0.2089 c -1.24209,21.97878 17.15229,16.63805 0,0 z m 10.365229,0.25964 c -5.134577,9.09554 11.359703,5.44327 0,0 z m 116.445242,0.15618 c 0.74465,6.65333 -3.47403,10.68159 -4.79883,9.97208 -1.41796,1.98809 -7.0027,1.53972 -1.59765,-3.66632 0.70402,0.52771 1.17724,1.02242 1.48242,1.48177 0.53764,-1.62538 1.97116,-4.15398 4.91406,-7.78753 z m -4.91406,7.78753 c -0.41109,1.24271 -0.30398,1.96 0.11523,2.18455 0.39651,-0.55592 0.47464,-1.29665 -0.11523,-2.18455 z m 114.66205,-7.60043 c 4.36255,3.14299 2.89539,8.98831 0,0 z m 206.64636,0.0703 c 4.21652,5.95555 -2.42879,2.60919 0,0 z m -89.14643,0.27524 c -2.22251,8.38808 4.03911,11.59818 0,0 z m -287.36117,0.008 c 3.74203,4.67257 -2.75016,1.87128 0,0 z m 721.47226,0.12884 c 17.5632,0.65514 -11.78981,27.94761 -8.67774,10.60267 -12.3102,-0.6161 -14.76091,-10.88465 -1.58203,-9.14043 3.43262,-0.8682 6.20458,-1.31732 8.41211,-1.43881 0.66686,-0.0367 1.2811,-0.0446 1.84766,-0.0234 z m -55.2695,0.0117 c -6.18722,0.86465 2.2718,2.38684 0,0 z m -326.1092,0.47439 c 6.51426,1.78646 -3.52784,6.0779 0,0 z m -387.443136,0.13666 c -6.630847,3.48881 7.049136,11.06095 0,0 z m 469.265366,0.0664 c 12.35921,8.12554 -12.20848,11.91479 0,0 z m -289.90023,0.68524 c 4.12861,1.35421 -1.37909,4.94403 0,0 z m -87.5605,0.32798 c 8.81829,0.41311 -6.3583,1.91454 0,0 z m -77.992144,0.23426 c -2.046718,3.64622 5.063858,12.15027 0,0 z m 192.703014,0.164 c 3.0572,4.16401 -3.08964,7.90996 0,0 z m -89.873,1.01516 c -1.30421,11.86328 -12.64116,5.96227 0,0 z m -81.455026,0.68329 c 3.807698,2.91896 -2.256978,7.99509 0,0 z m 120.228446,0.47635 c 4.82908,2.30735 -2.87181,5.32913 0,0 z m 377.57987,0.0781 c -10.7771,-0.0483 -0.95082,3.51363 0,0 z m -320.63654,0.40606 c 4.12865,1.35928 -1.37957,4.94514 0,0 z m 152.3085,0.27137 0.36719,3.89473 -0.36719,-3.89473 z m -307.65216,0.12299 c 0.84007,5.099 -2.18969,-0.17455 0,0 z m 92.68159,0.47245 c 7.30835,0.41656 -5.27877,1.87181 0,0 z m -93.89253,0.18155 c -2.12092,13.32874 -25.452615,27.14239 -5.5957,5.28474 l 5.5957,-5.28474 z m 104.96869,1.42514 c 0.26442,10.36344 -6.97734,1.71188 0,0 z m 69.60152,0.0703 c 6.39624,3.42885 7.0333,9.41093 0,0 z m 252.32603,0.17961 c -1.59006,0.72128 -1.19299,1.09104 -0.32421,1.21625 -8.65754,1.13664 23.13832,6.01139 2.38867,-0.17766 -0.0134,4.9e-4 -0.0182,0.004 -0.0312,0.004 0.54393,-0.22656 0.33052,-0.60347 -2.03321,-1.0425 z m -118.80657,1.15378 c -5.47796,2.01496 3.92331,4.5787 0,0 z m 35.05858,0.19913 c -6.56464,12.27178 27.62982,16.80141 -0.33789,2.11233 l 0.33789,-2.11233 z m 324.46465,0.35141 c -41.44907,-0.32051 -24.14623,73.25273 -1.33789,22.72612 4.29156,-5.17408 15.39024,-22.02964 1.33789,-22.72612 z m -260.42758,0.45682 c -0.70495,27.94516 -32.71439,33.44468 -36.76561,58.13794 0.3924,-19.08728 1.31652,-35.78125 21.73241,-33.17649 7.35087,-6.56966 11.93861,-15.71511 15.0332,-24.96145 z m -389.16385,0.25184 c 7.97643,3.32799 -2.70117,5.80249 0,0 z m -31.396462,0.43144 c 4.929952,0.64642 -2.983058,5.11198 0,0 z m 151.314362,0.52321 c 4.11771,7.09061 -4.06875,14.37727 0,0 z m -108.27337,0.29674 c 51.99957,9.61542 -79.041527,58.28411 -28.46483,14.86442 5.08567,16.04636 12.10747,-21.11169 29.6367,-3.10798 8.51895,4.16316 -6.63464,-11.238 -1.17187,-11.75644 z m 635.54847,0.43535 c 12.12294,11.73615 -15.07571,14.39759 0,0 z m -492.56223,0.68915 c 5.08186,2.75367 1.28814,8.8216 0,0 z m 324.42365,0.25574 c -2.31008,4.90759 5.30127,7.36123 0,0 z m -527.540716,0.15423 c 5.931226,8.19631 -4.543508,17.90001 0,0 z m 413.066166,0.10738 c 1.11137,20.01329 -13.5979,19.44803 0,0 z m -372.70487,0.08 c 8.27854,13.37513 -18.527,6.34798 0,0 z m 105.71479,0.51344 c 3.49993,2.24238 -3.09858,4.53037 0,0 z m -20.35546,0.24013 c 16.9256,12.62875 12.48207,27.95753 0,0 z m 67.75778,0.0976 c 16.39755,6.82191 3.29087,11.62393 0,0 z m 189.23036,0.44706 c 0.005,8.82313 13.79397,6.05463 0,0 z m -47.11716,0.0918 c -2.16707,2.05329 1.84745,4.6001 0,0 z m -192.92568,1.51494 c 4.52875,1.87896 1.43935,8.25411 0,0 z m -50.43942,0.0234 c 5.85739,2.27959 -4.15162,4.39937 0,0 z m 247.37486,0.0879 c -0.5095,4.51484 6.39536,3.82345 0,0 z m -126.27922,0.1308 c 10.29395,11.35628 4.46767,19.4817 0,0 z m 235.86705,1.11083 c -4.18035,1.97247 2.40839,4.67709 0,0 z m -440.499748,0.58372 c 7.235146,13.10938 4.06396,39.83178 -0.304687,32.10862 -6.222267,18.78156 -11.96253,17.64935 -1.966796,-9.59725 1.632699,-7.33011 -0.983575,-15.52648 2.271483,-22.51137 z m -14.384757,0.0137 c 3.506138,2.23901 -3.097269,4.53276 0,0 z m 491.079795,2.03033 c -2.1704,2.0517 1.85208,4.59241 0,0 z m -278.06429,0.14251 c 3.6442,0.99918 2.22815,5.61978 0,0 z m 295.44905,0.32213 c -5.48391,2.01204 3.92106,4.58104 0,0 z m -512.851272,0.19132 c 18.76462,9.24335 11.972144,27.22835 0,0 z m 169.497952,0.0781 c 5.00655,0.97599 -4.00186,4.49104 0,0 z m -70.42966,0.80628 c 28.03427,12.54766 -23.25542,12.3051 0,0 z m 601.37272,0.23036 c 13.46954,14.58855 -23.77792,7.44148 0,0 z m -519.69307,0.0176 c 5.03935,4.06763 2.26408,11.20121 0,0 z m -73.72847,0.16594 c 3.74204,4.67258 -2.75015,1.87128 0,0 z m 348.84551,0.006 c -4.17458,1.97501 2.40999,4.67515 0,0 z m 5.83983,0.43144 c -6.18723,0.86466 2.27177,2.38681 0,0 z m -253.17173,0.59545 c 2.07236,4.77542 -5.45448,7.30603 0,0 z m -53.93747,0.95855 c 8.22457,2.36742 6.73352,10.17398 0,0 z m -131.716719,0.22256 c 9.223139,5.57242 0.69662,9.7469 0,0 z m 213.285039,0.15812 c 20.52156,12.01216 6.42814,21.08724 0,0 z m -73.8691,0.0722 c 3.40682,5.39423 -1.02237,11.24305 0,0 z m 559.8493,0.43145 c -20.83686,23.71978 6.45088,26.71558 0,0 z m -655.97621,0.5681 c -26.83712,10.2672 6.01331,8.59467 0,0 z m 134.33197,1.23773 c 14.77428,9.15893 1.34849,12.29286 0,0 z m -60.97849,0.45096 c 11.62132,2.14476 -3.92379,6.63475 0,0 z m 29.04686,0.12886 c -0.12925,9.69952 -6.43351,1.95238 0,0 z M 45.652821,484.1253 c -1.944288,3.74171 -13.452602,0.14189 0,0 z M 284.973,485.81204 c 1.71446,18.67848 17.40976,32.63958 34.11716,45.5108 -1.97549,-1.6482 -4.20958,-3.89589 -6.74608,-6.92656 -3.39874,-5.9564 -19.01454,-23.08287 -6.17773,-26.9137 23.56236,-0.41402 32.7471,47.35019 14.99608,35.41378 27.16266,20.71316 55.57768,38.96858 30.14451,70.13451 -0.70158,3.39208 -3.18208,9.54259 -6.43554,16.34226 0.48517,-0.49078 1.00983,-0.9981 1.58789,-1.5247 6.21811,10.64555 -4.47545,14.20852 -5.96875,10.15754 -10.85872,20.23506 -25.21575,39.11799 -20.70506,7.66257 1.3106,-18.23296 34.83375,-62.02758 15.41795,-55.69372 3.91243,-18.56073 15.28975,-28.04236 -1.64453,-10.94236 -23.39759,-17.96879 -47.71998,-51.86547 -48.5859,-83.22042 z m 55.51754,142.19393 c 1.56308,-2.91281 3.03004,-5.80964 4.38086,-8.63284 -4.08948,4.13686 -4.9822,7.00154 -4.38086,8.63284 z m -19.32811,-95.10961 c -0.69144,-0.52728 -1.38336,-1.04279 -2.07227,-1.57352 0.72693,0.6065 1.41898,1.13422 2.07227,1.57352 z M 155.4926,486.5168 c -2.15292,7.8854 -13.03791,7.88986 0,0 z m 140.9882,0.45488 c 9.20223,11.10095 -3.60959,12.29412 0,0 z m -92.89643,0.18156 c 32.75691,3.14508 -0.43233,5.91818 0,0 z m 320.35334,0.36117 c -3.25348,3.93224 2.90019,4.72214 0,0 z m -48.05662,0.17765 c -11.25771,13.67123 2.24103,5.16781 0,0 z m -216.49012,0.60714 c 9.00775,14.88522 -4.26625,14.80783 0,0 z m -9.63084,0.0156 c 8.21158,5.2595 6.91394,13.51466 0,0 z m 160.13858,0.0371 c 3.74202,4.67259 -2.75018,1.87128 0,0 z m -294.74397,2.0889 c 5.17152,2.79026 11.87306,-0.0819 0,0 z m 402.53297,0.17766 c -0.84269,3.68987 7.21255,2.41858 0,0 z m -178.18935,0.49978 c 0.83763,5.42207 7.00739,1.20414 0,0 z m -106.92182,1.38414 c 3.50616,2.23901 -3.09729,4.53274 0,0 z m -87.23432,1.22796 c 4.58076,0.96205 -0.59039,6.25599 0,0 z m 620.61879,0.66377 c -2.29015,2.74462 -12.93037,3.77124 0,0 z m -277.37289,1.85268 c -5.48397,2.01204 3.92105,4.58105 0,0 z m -429.366947,0.32017 c -4.563418,6.47442 5.422127,10.94944 0,0 z m 612.964497,1.60865 c -4.75245,3.79507 4.66141,5.99599 0,0 z m -394.35525,0.17375 c 14.40645,9.39082 18.79504,48.62165 2.59961,14.0269 -0.13206,-3.14038 -7.43427,-10.54474 -2.59961,-14.0269 z m -96.91986,0.2167 c 2.4644,3.33308 9.83307,1.70231 0,0 z m 16.41405,0.41973 c 7.31478,0.42077 -5.27822,1.8727 0,0 z m 21.24999,0.43536 c -5.17439,0.78447 4.16975,3.99976 0,0 z m -51.582,0.98392 c -6.74779,0.18298 1.10866,3.1401 1.55078,0.004 -0.5862,-0.0151 -1.10093,-0.016 -1.55078,-0.004 z m 103.39056,0.77895 c 5.15746,0.96017 2.23315,7.15519 0,0 z m 36.65428,0.65791 c -5.81724,14.36258 4.21322,11.94605 0,0 z m -170.91202,0.57203 c -0.39743,5.14855 8.81095,4.01896 0,0 z m 17.18163,0.55444 c -2.18739,5.35506 3.61969,9.03636 0,0 z m 359.91386,0.0722 c -13.48171,2.6978 4.64131,2.89657 0,0 z m -363.26151,0.20108 c -4.18018,1.96781 2.408,4.6758 0,0 z m 63.08981,0.46464 c 0.99936,7.04964 17.95247,5.90289 0,0 z m 403.98024,0.95269 c -14.38446,13.49757 11.14538,7.09728 0,0 z m -308.09357,0.23428 c -2.23661,20.11452 24.79077,9.8725 0,0 z m -177.30654,0.0137 c -0.66337,0.005 -1.41465,0.0253 -2.26172,0.0605 2.40694,2.87895 12.2126,-0.13611 2.26172,-0.0605 z m 55.35348,0.47049 c -5.74917,3.56552 5.09028,4.82609 0,0 z m 8.98046,0.27527 c -7.74635,4.26059 19.34134,2.19186 0,0 z m -149.314365,0.0644 c 3.742027,4.67258 -2.75018,1.87127 0,0 z m 200.558475,0.81994 c -2.17037,2.05172 1.8521,4.59239 0,0 z m -77.31051,0.21474 c -1.44691,3.32318 2.7107,4.55489 0,0 z m 458.72827,1.09717 c -21.6018,8.68487 6.63387,10.09496 0,0 z m -335.15411,0.14252 c -2.1704,2.05171 1.8521,4.5924 0,0 z m -60.78317,0.3514 c -16.45836,9.6603 -2.78106,13.29533 0,0 z m -89.90229,0.0586 c -6.9055,5.2122 2.94073,7.29739 0,0 z m 78.3105,1.97373 c -17.19589,11.76523 11.59686,8.66868 0,0 z M 60.898907,510.9863 c -1.284489,4.2362 2.760008,6.95168 0,0 z m 45.654263,1.29434 c -4.18037,1.97247 2.4084,4.67709 0,0 z m 152.71672,0.33774 c -4.25003,4.7966 7.99793,6.09471 0,0 z m 313.9881,0.0215 c -10.605,13.56133 10.48977,7.75765 0,0 z m -525.646186,0.9117 c -1.296519,-0.11029 -1.108152,5.42307 1.748046,2.51254 -0.718149,-1.81317 -1.315876,-2.47577 -1.748046,-2.51254 z m 584.152016,1.15768 c -14.82376,6.57296 8.3075,9.27321 0,0 z m -45.35154,0.83556 c -15.64751,4.95345 -4.656,11.53177 0,0 z m -570.767255,0.41193 c -4.174439,1.97033 2.409614,4.67386 0,0 z m 228.634635,0.0722 0.42382,0.95074 -0.42382,-0.95074 z m -39.57224,1.00931 c -6.30605,9.18197 22.32886,1.25126 0,0 z m -3.57226,0.49782 c -6.18722,0.86464 2.2718,2.38684 0,0 z m 68.86519,0.30064 c -7.63149,4.04336 5.87418,4.47965 0,0 z m -171.007714,1.0464 -3.39453,4.00601 3.39453,-4.00601 z m 25.548814,0.3436 c 11.47982,13.93583 -4.28292,17.16126 0,0 z m 487.74387,0.60715 c -17.24165,0.36764 -10.28699,47.71282 -0.14649,56.21498 7.78627,-25.07473 -11.5849,-40.69686 10.64648,-52.24607 -4.20925,-2.83175 -7.67861,-4.02909 -10.49999,-3.96891 z m -69.2695,0.039 c -7.10958,14.09514 11.03791,6.68254 0,0 z m -269.07992,0.1269 c 0.12349,7.96716 5.77919,0.68294 0,0 z m 69.62496,0.0234 c -3.52617,2.6299 4.10967,3.9037 0,0 z m -108.29487,2.09671 c -5.63214,1.74528 2.30903,5.42507 0,0 z m -81.77925,0.91561 c 3.95678,3.63095 -4.0511,6.75385 0,0 z m 288.73812,0.39239 c 5.8528,2.28432 -4.1544,4.39613 0,0 z m 145.44719,0.17375 c -15.34122,7.28314 9.61986,5.35165 0,0 z m -53.96287,0.55054 c -5.33799,7.12564 8.59732,6.93212 0,0 z m -208.54089,0.68524 c -5.17418,0.77897 4.16891,3.99876 0,0 z m 300.94124,0.12104 c -1.73884,10.71181 12.62018,3.40372 0,0 z m -321.37873,2.57111 c -4.94636,1.63176 3.41983,3.89648 0,0 z m -101.56635,0.52515 -4.24609,2.14748 4.24609,-2.14748 z m 386.41384,1.33534 c -12.46896,6.47592 11.31132,4.99842 0,0 z m -61.80465,0.17765 c -2.57703,8.07879 9.87651,2.74998 0,0 z m 114.45697,0.53101 c -2.92334,7.26824 10.98341,1.09865 0,0 z m -294.64046,0.92147 c 14.64263,10.23935 17.14054,5.10046 0,0 z m -62.03512,0.94294 c -5.18007,0.77526 4.16608,4.00161 0,0 z m -49.65818,3.79126 c -4.17446,1.97033 2.40963,4.67387 0,0 z m 164.80851,0.36898 c -9.88074,19.8734 9.07706,14.54379 0,0 z m 232.44713,0.23036 c -4.41193,7.04162 13.11221,6.02486 0,0 z m 16.60546,0.0176 c -1.74684,-0.0327 -4.98499,2.14105 -10.67578,7.9515 -5.99087,15.69908 8.13128,32.57058 -0.12305,48.16977 22.22951,-12.40887 62.90226,-46.43286 31.41015,-36.51289 1.60651,-0.6292 -2.99228,-1.40182 -0.44531,0.13275 -15.91219,16.30079 -26.22103,19.98004 -10.63867,-3.70537 -18.79217,18.19024 -2.67439,-15.90784 -9.52734,-16.03576 z m -136.33782,0.46854 c -1.13796,12.14202 16.84809,11.48856 0,0 z m 79.13668,0.49391 c -10.26393,3.63362 -4.4152,8.25522 0,0 z m -84.55659,1.8254 c -4.58148,7.64729 10.66762,3.30389 0,0 z m -157.64836,0.39045 c -3.272,7.04672 10.66192,7.61403 0,0 z m 325.99006,2.36807 c -7.56773,5.37002 7.48263,14.3687 0,0 z m -46.46677,0.56616 c -7.70391,6.95933 10.9245,4.04662 0,0 z m 189.22645,0.26355 c -0.5164,-0.029 -1.042,-0.0274 -1.57617,0.006 -15.66475,0.0379 -50.09179,69.62432 -37.90818,22.68317 8.09549,-18.95508 -19.50427,33.40161 -23.01561,45.34096 -29.82635,39.8705 -25.53505,89.45505 -48.78709,129.60583 -2.9764,-24.03747 -17.36101,-46.0752 -7.66991,-8.36538 4.26697,24.52393 -22.07748,2.83447 0.56055,24.407 28.35383,32.30068 -0.81918,100.74641 -0.23047,117.10949 37.87973,-45.96175 -5.30865,-111.37131 25.58201,-159.33662 17.85572,-15.25493 55.39523,-34.59037 12.01953,-13.9371 -29.91832,-11.92581 24.30864,-42.21683 -3.49414,-40.23192 16.41864,-48.72634 96.71574,-51.90519 100.33588,-102.79952 -2.36587,-6.85062 -8.07037,-14.04754 -15.8164,-14.48177 z m -540.22431,0.0761 c -13.35961,11.62651 10.23689,4.11535 0,0 z m -99.74017,1.15573 c -5.47798,2.01493 3.9233,4.5787 0,0 z m 6.125,0.72428 c -9.04356,9.45152 7.43139,6.96594 0,0 z m 206.85339,0.55639 c -13.73479,10.70376 10.1777,6.12159 0,0 z m -218.24597,1.01907 c -4.57607,9.56084 11.11516,12.25192 0,0 z m 653.43128,0.0391 c 3.74201,4.67261 -2.75019,1.87131 0,0 z m -466.3845,0.62472 c -1.84414,10.48508 11.96343,11.6749 0,0 z m 141.74796,0.63447 c -7.68193,5.19424 11.6032,4.1739 0,0 z m 315.4217,0.14837 c 4.33191,2.55973 -4.68234,4.8251 0,0 z m -623.62661,1.02298 c -12.00336,13.09063 7.89282,5.08622 0,0 z m 629.58559,3.3813 c 6.73744,7.62167 -5.77259,18.1872 -1.30664,3.34029 l 1.30664,-3.34029 z m -657.65002,0.37874 c -7.33506,10.79387 12.59565,4.89559 0,0 z m 57.8691,1.30214 c -4.17461,1.975 2.41,4.67514 0,0 z m 26.49609,0.18742 c -2.28213,3.92093 4.18009,6.03163 0,0 z m 192.56434,0.50172 c 2.2132,9.19034 -12.676,2.20362 0,0 z m 55.46481,0.39826 c -7.40731,5.94586 11.58512,3.2372 0,0 z m -116.59172,0.6911 c -0.70635,11.83864 14.13723,12.39794 0,0 z m -86.02535,0.2128 c -6.08841,5.63718 -4.63882,6.42682 -2.56249,5.2613 -0.69669,2.87366 5.37352,8.01496 2.50194,-1.50713 -0.27476,0.0142 -0.5157,0.0487 -0.74024,0.0937 1.00213,-1.1025 1.62952,-2.5254 0.80079,-3.84788 z m 513.47042,1.49151 c 37.02669,18.80578 -53.34201,79.41419 -41.77928,44.73186 13.30948,-14.9424 27.15404,-32.99881 41.77928,-44.73186 z m -626.25551,0.98003 c 6.30929,2.10798 -2.57369,4.68587 0,0 z m 216.17175,0.44901 c -7.93893,13.93096 6.92389,15.8178 0,0 z m -292.38851,0.91365 c -2.15847,2.05509 1.84458,4.60241 0,0 z m 580.7907,0.69696 c -7.63325,3.87013 12.20586,3.38366 0,0 z m -102.44722,1.19282 c -11.58291,8.64437 4.11358,8.89716 0,0 z m -84.65815,1.09717 c -9.95477,7.64969 10.74671,3.05082 0,0 z m 60.38864,0.55053 c 1.67582,12.12556 12.65726,12.82331 0,0 z m 29.77928,1.63208 c -14.19653,10.37957 5.77113,9.69813 0,0 z m -204.1288,1.75702 c -3.05479,16.5851 11.76476,6.12349 0,0 z m 287.84359,1.37049 c -6.05139,1.16402 0.74755,3.08206 0,0 z m 13.08399,0.54467 c -5.92776,5.87914 10.41885,2.41757 0,0 z m -109.23432,2.63163 c -6.89673,0.0108 -19.0935,14.63682 -6.66601,33.06327 -8.21961,14.32638 -17.40511,28.06694 -26.96288,41.5165 34.55537,-37.25377 86.44314,-4.13976 128.31633,-10.95797 -23.28623,-13.94838 -47.2924,3.21691 -68.17769,-15.90496 13.8472,-9.55353 35.4443,-19.275 8.57812,-13.06444 4.54057,-24.61562 -39.23262,43.23852 -34.48045,0.11714 11.34277,-15.8244 10.51813,-17.35802 -0.38086,-16.6683 6.14082,-12.85211 3.91148,-18.10756 -0.22656,-18.10124 z m -60.33786,2.40322 c -2.17041,2.0517 1.8521,4.59239 0,0 z m -123.99602,3.35786 c -14.348,23.8049 9.14782,9.4441 0,0 z m 218.60144,0.23817 c -0.94516,0.14665 -2.50929,7.41013 -1.28711,18.49755 2.4734,-13.21547 2.12105,-18.62689 1.28711,-18.49755 z m -204.02919,0.88047 3.27735,8.84563 -3.27735,-8.84563 z m -104.34564,3.48085 2.76758,2.5516 -2.76758,-2.5516 z m 77.99019,2.17677 c -12.5314,14.26173 9.53736,12.71623 0,0 z m 20.68944,1.82729 c -8.77299,7.65969 5.87325,7.11927 0,0 z m 35.89646,1.83122 c -22.89451,11.82847 7.76052,8.33046 0,0 z m -16.21483,0.22841 c -8.47177,21.16124 11.23173,7.01934 0,0 z m -148.59562,1.31972 c -7.10919,10.88976 7.3008,8.62858 0,0 z m 143.41008,0.65986 c -16.08558,10.01295 7.49606,11.1831 0,0 z m -262.73619,2.16309 c -5.73916,7.69605 9.19294,7.97415 0,0 z m 484.03293,1.04641 c -0.82797,0.0975 -4.40431,2.85613 -9.52928,8.94715 7.41269,-5.41175 10.14471,-8.6602 9.65819,-8.93154 -0.0304,-0.0169 -0.0737,-0.0221 -0.12891,-0.0156 z m -167.04872,0.62472 c -15.16406,22.9876 10.97217,7.73442 0,0 z m -189.53897,0.47439 c -13.15036,6.33031 6.06822,5.5528 0,0 z m 120.99993,1.01322 c -12.50158,12.35111 6.65083,10.27074 0,0 z m -115.45891,0.79456 c -13.2265,7.94336 3.61852,9.84982 0,0 z m 174.57998,0.22451 c -12.53175,17.00862 2.64887,32.23088 0,0 z m -98.90229,0.61106 c -9.48755,6.99002 1.48907,2.73468 0,0 z m 85.72066,1.30995 c -12.30184,19.29968 10.05682,13.07006 0,0 z m -55.2363,0.26551 c -9.35482,12.1786 8.85107,8.43734 0,0 z m -101.67963,0.01 c -16.47128,11.29743 4.22696,12.95936 0,0 z m 92.77143,1.15963 c -14.34796,16.90174 9.33789,7.8127 0,0 z m 54.77536,0.24794 c -21.75255,16.75984 4.99583,16.79184 0,0 z m -67.09176,0.75356 c -19.30537,4.89593 18.10006,5.88262 0,0 z m 38.291,0.6052 c -12.17422,16.51767 7.93425,10.67494 0,0 z m -261.04868,0.76333 c -7.67469,5.19591 11.60482,4.1714 0,0 z m 268.98227,2.39932 c -6.32045,18.60546 6.66545,7.2051 0,0 z m 425.87085,1.98543 c -28.38089,12.73263 -8.86649,81.87207 -5.63867,99.06487 11.35533,-31.78144 -0.94515,-66.49532 5.63867,-99.06487 z m -5.63867,99.06487 c -0.30845,0.86334 -0.6245,1.72587 -0.96875,2.58478 1.60909,2.52952 1.68794,1.2459 0.96875,-2.58478 z M 427.95534,610.17829 c -10.26714,14.75132 7.71787,10.12979 0,0 z m -277.96469,0.77308 c -10.81128,1.79415 5.17292,5.20403 0,0 z m 321.74397,0.32212 c -5.74917,3.56554 5.09029,4.8261 0,0 z m 397.34351,3.18216 c -16.02375,15.3291 -24.90397,100.5153 -4.90623,42.60391 3.41844,-13.48237 9.55434,-28.97908 4.90623,-42.60391 z m -487.28682,2.09477 c -39.19187,12.1931 19.34853,39.69478 10.24999,47.91597 17.64665,-12.22213 4.84695,-57.10951 18.40819,-16.98455 -7.24504,25.9836 16.81893,-30.37052 -13.73046,-28.23537 l -7.5918,-2.18652 -7.33592,-0.50953 z m 62.53511,0.4412 c -18.47256,16.68654 10.01183,8.7451 0,0 z m -9.43944,0.99175 c -8.78618,17.97494 10.10019,8.99094 0,0 z m 222.9276,1.5169 -7.11522,5.36478 7.11522,-5.36478 z m -205.18152,0.3514 c -16.37287,17.7892 9.99956,8.27253 0,0 z m 13.71093,0.082 c -10.79505,16.69596 4.10168,20.29073 0,0 z m -314.69318,0.0332 c -12.92263,8.30404 4.78266,5.80054 0,0 z m 235.74986,3.78345 c 14.23741,0.21142 -12.62862,5.35368 -3.41796,0.0273 1.33739,-0.0343 2.4688,-0.0414 3.41796,-0.0273 z m 84.47848,4.23833 c -2.15849,2.05509 1.84462,4.60236 0,0 z m 326.84356,4.74005 c -31.15155,7.66496 37.70356,92.31824 27.7871,77.41835 -6.31859,-25.46416 -11.72235,-58.72294 -27.7871,-77.41835 z m -634.20082,0.93124 c -15.20488,8.89932 9.19458,4.01466 0,0 z m 312.74592,3.0045 c 3.57892,7.37548 -5.64348,13.18367 0,0 z m -32.02342,1.43685 c -18.39532,4.053 -30.43529,32.62052 -42.25779,28.26074 25.51178,30.24519 29.66283,-43.49967 30.62108,-1.92882 -2.19604,50.14925 54.12514,-19.97994 11.63671,-26.33192 z m -276.785,3.69952 c -8.32109,13.1296 2.58027,10.04649 0,0 z m 43.18357,5.29059 c -0.0718,-0.10002 -0.31115,0.55228 -0.75391,2.11428 0.11785,0.54417 0.19105,1.08537 0.26367,1.62622 0.39399,-2.25178 0.58166,-3.61302 0.49024,-3.7405 z m -0.49024,3.7405 c -0.55281,3.15954 -1.58669,8.35739 -2.78515,14.17723 2.27761,-4.4121 3.45115,-9.21825 2.78515,-14.17723 z m -2.78515,14.17723 c -7.21224,13.97128 -25.31026,23.9747 -29.93944,22.36495 10.09607,5.65822 20.07836,15.34259 18.31835,28.04404 3.00406,-10.45246 8.21527,-33.86991 11.62109,-50.40899 z m -29.93944,22.36495 c -0.22965,-0.12865 -0.45982,-0.26595 -0.68945,-0.39045 0.1739,0.17638 0.41751,0.29592 0.68945,0.39045 z m -3.13476,-38.74236 c -9.95728,12.67087 8.84925,4.89401 0,0 z m 7.88086,1.16744 c -4.60193,5.83004 6.01294,9.55377 0,0 z m 156.35928,9.44107 c 10.31591,18.57567 13.20184,30.03715 -5.64258,35.90575 -6.60071,42.25958 0.82734,-31.77791 -11.39647,2.47154 -14.60096,-10.79183 16.31113,-24.94468 17.03905,-38.37729 z m 417.2068,1.20649 c -0.75846,-0.0631 -4.14048,0.56386 -10.1289,2.44812 7.74174,-1.14654 11.10406,-2.36713 10.1289,-2.44812 z m -426.57593,0.74966 c -4.97866,2.72607 -1.94204,4.18453 0,0 z m -4.67187,3.06895 c -7.11646,3.20566 -2.33387,5.69568 0,0 z m 145.83976,3.54332 c 3.88963,19.08186 -2.51951,13.29845 0,0 z m -318.73225,0.36507 c -0.29328,-0.0203 2.7566,3.16846 10.02539,9.62459 -6.09573,-6.37499 -9.73214,-9.60428 -10.02539,-9.62459 z m 144.62297,1.97567 c -1.06611,-0.12202 -5.37982,2.29935 -12.63867,9.1209 10.01143,-4.60378 14.00938,-8.96394 12.63867,-9.1209 z m 167.30264,2.36027 c 9.15209,21.64313 -0.37638,84.18102 -10.85741,28.58287 -1.97465,-9.85633 3.53288,-22.3536 10.85741,-28.58287 z m -132.55462,3.46915 c -5.94402,13.73537 4.24902,7.9579 0,0 z m -10.31835,0.30845 c -12.83782,30.32955 -44.25923,21.22752 0,0 z m -252.51743,0.74772 c 8.043446,1.17871 -2.816948,4.43375 0,0 z m 93.45112,0.97612 c 0.12134,0.25696 3.73823,2.59542 10.48827,6.24524 -7.23516,-4.67771 -10.60957,-6.50223 -10.48827,-6.24524 z m -145.195232,1.80583 c -4.056427,8.12166 15.791896,9.6946 3.455076,1.78436 l -3.455076,-1.78436 z m 53.585907,5.63809 c -2.254038,0.0571 1.592101,5.10224 2.644531,0.93123 -1.279159,-0.69281 -2.12438,-0.94441 -2.644531,-0.93123 z m 802.708535,0.74771 c -24.97931,1.75401 -31.41647,46.67885 -4.26758,18.60883 3.04141,-3.76788 15.04392,-16.78735 4.26758,-18.60883 z m -868.7651376,0.6462 c -4.67794142,7.46202 17.8169036,3.51372 0,0 z m 309.4236476,4.61121 c 0.38961,33.72734 -12.65595,27.70169 0,0 z m 44.89256,0.24207 c 22.06277,0.12729 43.63107,36.15911 10.26171,12.7599 -15.36164,-7.24031 -39.93776,11.97406 -18.02734,-11.56903 l 5.62891,-1.0874 c 0.71089,-0.0739 1.42502,-0.10753 2.13672,-0.10347 z m -336.784968,1.88001 c -17.3432376,2.61511 7.007586,4.80363 0,0 z m 319.825988,1.27287 c -0.72332,23.08505 -17.50662,19.11304 0,0 z m -65.81832,0.68134 c -12.51394,7.40373 4.83049,18.12713 0,0 z m -245.558453,2.71948 c -20.9902925,10.72693 3.155038,10.98885 0,0 z m 376.216583,0.49001 c 24.68655,13.11592 7.94591,95.00377 1.17969,32.10472 4.33692,-35.54399 -10.34624,21.0424 -12.44531,-17.18369 -4.51418,-7.58738 5.41493,-13.15911 11.26562,-14.92103 z m -107.07807,2.22556 c 5.87747,21.10612 13.30922,83.68577 -18.51366,61.33183 -3.49012,45.94325 -9.57093,-75.55269 0.0234,-20.35219 19.3037,-6.53751 -7.73905,-21.46479 18.49022,-40.97964 z m 21.74999,2.18652 c 28.7262,14.23153 -28.27915,61.32985 -10.88085,15.2334 6.7426,-16.52128 11.67967,26.65633 7.83398,-10.17317 l 1.12695,-3.73855 1.91992,-1.32168 z m 88.44527,1.35291 c -0.42571,0.0763 -1.49977,3.2276 -2.33985,10.32739 2.4718,-6.55011 2.82232,-10.41384 2.33985,-10.32739 z m 29.64841,2.24899 -0.0996,0.16985 0.0996,-0.16985 z m -348.978311,1.2592 c -2.622508,19.60483 2.520778,73.05408 -11.238275,24.48314 -30.573742,-50.94198 18.677233,84.85869 -17.029287,35.67147 -0.77246,30.22309 33.899836,65.87789 34.078106,81.09443 12.124987,-8.82787 73.005767,-0.34487 35.052717,-13.82582 -7.31269,-25.3564 32.61458,-88.14975 2.16015,-86.88674 -3.65449,52.19536 -19.25132,-73.28847 -22.6328,-17.47848 2.3419,43.4183 -12.703661,-5.85818 -17.181629,-19.2023 l -3.208982,-3.8557 z m 286.109211,1.95029 c 14.68541,13.29061 11.87779,34.46471 0,0 z m -4.40039,1.87416 c 7.94543,2.78889 -3.74434,3.1512 0,0 z m 20.45116,0.50759 c 9.89711,22.8581 -1.92695,19.98007 0,0 z m -33.66599,0.18546 c 36.5714,11.10862 -22.64715,14.72995 0,0 z m 410.69899,1.40952 c -15.23328,10.1896 -55.49887,66.67654 -43.13475,58.66701 16.22718,-17.77835 35.21857,-35.26638 43.13475,-58.66701 z m -420.8611,1.85073 c 13.60636,8.48419 -11.01327,16.90086 0,0 z m -16.18554,0.12105 c 3.87906,3.22111 -3.76265,4.85194 0,0 z m -242.128763,3.05916 c 7.024446,17.00415 31.707163,71.21164 24.005843,21.48645 -3.53703,-55.24728 8.50492,64.12523 25.68748,19.9754 0.74777,31.28864 -19.81097,115.60934 -53.156212,57.97395 -8.218285,-17.85242 -36.675599,-62.31467 -7.337886,-26.41586 8.288796,-17.3287 -19.402818,-92.33185 5.019528,-35.98774 15.07693,23.94725 7.249056,-32.75066 5.781247,-37.0322 z m 249.624863,2.95181 c 7.09897,7.72137 -7.74723,10.72433 0,0 z m 473.91574,0.47634 c -0.94923,5.54235 7.72257,1.38097 0,0 z m -444.19897,0.26551 c 6.13716,0.94892 -2.81123,3.9731 0,0 z m -106.37299,0.48416 c -1.16613,17.15265 0.45525,15.65884 0,0 z m 592.81217,0.73795 c -11.58852,6.49702 4.03057,7.9816 0,0 z m -522.66377,5.54048 c 2.30566,19.9904 -25.75853,30.12387 -4.81249,3.71708 l 4.81249,-3.71708 z m 11.69727,0.8746 c -2.31745,13.7353 -11.04111,5.12602 0,0 z m 456.86302,1.58328 c -6.84059,3.70486 5.94968,4.6907 0,0 z m -357.13066,2.6492 c -6.48344,4.31683 3.16443,4.97916 0,0 z m 122.96477,0.33383 c -3.74022,16.93867 -5.26846,79.41228 8.6836,29.99824 10.16138,-27.10669 -1.20837,33.12502 5.16405,41.24124 -4.44672,22.67678 -28.46777,68.03847 -37.78708,21.40249 0.99707,-18.53686 -20.65877,-54.54885 0.82422,-42.26616 3.59981,-23.41791 0.73355,-55.17821 7.09374,-13.89025 12.23996,21.06727 10.97048,-30.95597 16.02147,-36.48556 z m 253.43932,0.21085 c -18.90994,23.78124 -0.76337,3.58166 -1.00586,23.83499 6.54667,-23.28083 4.67675,-20.50826 11.76952,1.01517 -25.68993,14.73135 -37.13787,-17.26909 -10.76366,-24.85016 z m 39.16795,0.78285 c -10.26581,5.32156 8.87771,3.65242 0,0 z m -17.73046,0.9527 c 12.71472,19.58518 -8.45759,27.20526 -7.26953,2.15918 0.56545,7.46643 12.34242,18.02489 7.64062,2.22556 l -0.37109,-4.38474 z m -457.4646,1.01516 c 8.15626,23.1598 0.99651,13.40019 0,0 z m 406.39041,0.0137 c -5.57674,5.81135 9.58132,6.96819 0,0 z m -352.40216,0.0468 c -3.52616,2.62988 4.10968,3.90371 0,0 z m 10.02344,0.28503 -2.45898,3.13141 2.45898,-3.13141 z m 236.25378,2.15138 2.88085,2.44421 -2.88085,-2.44421 z m -442.61109,1.37219 -1.99414,4.21296 1.99414,-4.21296 z m 165.76553,2.62578 c 10.29641,22.53692 -14.59823,39.25471 -3.42382,6.60836 l 1.74609,-4.81424 1.67773,-1.79412 z m 423.19312,2.20604 c 4.83725,7.24764 -0.63553,15.64657 0,0 z m -499.23018,0.0254 c 5.20061,2.48273 -4.15578,6.80427 0,0 z m 68.11911,3.46524 c 4.21651,5.95557 -2.42877,2.6092 0,0 z m -101.14449,0.0703 c -13.92692,12.55801 -15.02419,24.91711 0,0 z m 570.56218,1.76093 c -12.20389,5.12404 7.71782,4.34152 0,0 z m -93.42572,3.5609 c -0.10472,10.08933 17.94853,6.36857 0,0 z m -354.50957,0.80433 c 11.87801,11.8873 -6.99217,12.95631 0,0 z m -28.75194,1.68283 c 7.43541,11.41944 -9.14015,10.20276 0,0 z m -72.5605,2.40712 c 4.43804,21.47375 -13.08357,12.81521 0,0 z m 477.32785,4.40818 c 16.0125,3.35905 20.54765,14.35588 19.87109,28.15336 3.75361,-16.69608 11.53389,-27.88587 31.18357,-24.00874 12.39698,32.72017 16.78529,87.29276 -0.0801,113.2499 -29.15234,4.31496 -77.92038,4.03164 -95.60345,-7.23307 10.1609,-38.43954 29.04213,-73.81095 44.62887,-110.16145 z m 19.87109,28.15336 c -1.08604,4.83063 -1.83343,10.12435 -2.4336,15.64727 1.29122,-5.42965 2.19171,-10.71439 2.4336,-15.64727 z m -2.4336,15.64727 c -6.29462,26.46892 -21.66445,56.22079 -13.04296,63.6999 10.60511,-14.44879 10.57768,-41.01421 13.04296,-63.6999 z M 274.42418,765.8171 c 6.6689,27.72272 -5.24252,15.23968 0,0 z m 142.96281,0.0312 c 6.24611,4.76136 9.77368,8.61151 11.49218,11.6022 -0.34144,-2.18397 -0.55965,-4.86215 -0.57032,-8.11158 9.09812,12.69926 4.66668,20.26212 1.79493,12.9805 -1.51377,7.11221 -22.43711,1.16446 -12.71679,-16.47112 z m 12.71679,16.47112 c 0.26188,-1.23037 -0.0636,-2.84859 -1.22461,-4.86892 0.3212,2.05452 0.75065,3.66713 1.22461,4.86892 z m 442.70482,-14.9757 c -18.1794,7.12506 8.95606,3.47022 0,0 z m -481.67551,2.13771 c 6.31273,2.10319 -2.57044,4.68888 0,0 z m 413.10915,1.61451 c -3.83464,6.15904 8.23871,1.06529 0,0 z m -477.00754,1.29824 c 6.40031,10.07056 -4.91337,4.76628 0,0 z m 519.13056,0.76529 c -4.70055,3.53075 5.85619,5.68443 0,0 z m -83.42574,1.7375 c 11.06761,10.90714 19.18658,2.82288 0,0 z m -352.17363,0.004 c 4.13383,1.35617 -1.37761,4.94691 0,0 z m 252.8944,0.89609 c -0.14824,20.67232 -1.09467,36.4881 8.52733,28.91668 -12.00768,32.60151 22.29537,-13.2063 7.10742,17.78889 -9.33049,23.03397 -34.22384,65.29887 -43.74607,17.45505 -14.40248,-27.435 20.21458,-21.80607 9.26367,-56.29502 2.76189,-21.67781 7.1775,54.58623 12.94921,10.87402 2.02052,-6.17509 2.22009,-13.16049 5.89844,-18.73962 z m -365.59355,0.25378 c 15.36551,14.0397 13.02784,40.52964 40.94334,39.88443 -8.66715,21.77373 -3.48769,22.45911 5.25781,1.78826 -8.02423,28.20877 19.56989,-18.10404 5.6035,17.17978 -9.75216,18.01402 -64.3342,16.80378 -81.91206,3.36958 2.58637,-1.01743 2.95359,-1.57864 2.40625,-1.70627 -0.58486,-0.13639 -2.18702,0.22776 -3.19921,1.04056 -2.12274,-1.79317 -3.63637,-3.77661 -4.29102,-5.96218 6.94743,-19.78066 19.42533,-53.2694 9.08789,-11.00872 -2.11511,35.95252 10.16255,-33.22689 18.39452,-38.66622 3.1866,29.13643 10.55665,36.68683 7.70898,-5.91922 z m -27.70116,60.51578 c 14.88329,2.2948 38.14663,-38.65968 13.01171,-10.71198 l -6.79296,5.74741 -6.49414,4.93725 c 0.0902,0.0173 0.18454,0.0133 0.27539,0.0273 z M 389.07059,776.2207 c -1.4469,16.33147 -18.67285,24.24967 -2.72851,1.921 l 2.72851,-1.921 z m -110.77923,1.01711 c 5.00656,0.97599 -4.00186,4.49102 0,0 z m 522.57392,0.87851 c -6.59412,2.31712 5.41687,4.43612 0,0 z M 320.2347,778.5263 c 5.58839,3.60006 -2.34515,9.07527 0,0 z m 75.94722,3.92987 c -4.16717,15.662 -2.56965,70.15114 -18.79101,54.74298 21.83102,-19.68835 -5.90182,-37.84935 18.79101,-54.74298 z m 444.50366,0.98393 c -4.01504,4.14185 7.24073,3.95575 0,0 z M 412.678,785.68323 c 1.82427,0.10122 4.06138,1.07601 6.79102,3.15484 9.22494,17.71264 -13.25853,65.80138 5.75194,19.4151 6.01664,-7.67461 10.77418,-3.77811 13.16015,4.13292 l 0.54297,-4.7674 1.35156,-6.92267 c 0.67264,16.27276 15.38427,50.19749 6.94336,13.16011 12.68642,-20.60076 38.39651,41.0722 45.34567,59.58065 30.70124,49.74305 -49.22535,8.7809 -65.88277,14.68481 -21.35284,4.01563 -107.71139,38.66218 -75.55074,-10.46601 13.27644,-32.69109 40.22243,-30.51601 68.28708,-27.50521 -1.88165,-0.54577 -3.90309,-1.39666 -6.08203,-2.62187 -41.13523,7.8498 -4.71864,-82.28207 -9.49805,-23.11267 11.03848,36.88764 -7.81194,-37.38267 8.08203,-38.72479 0.24399,-0.0206 0.49721,-0.0223 0.75781,-0.008 z m 6.74024,64.46714 c 2.29425,0.66544 4.37005,0.85468 6.24413,0.65205 -2.0868,-0.21848 -4.16462,-0.42895 -6.24413,-0.65205 z m 6.24413,0.65205 c 13.00189,1.36138 26.04361,2.37553 37.89646,-0.32603 21.11521,-2.64615 -12.42212,-4.08505 -24.14061,-17.65808 -1.51141,9.14047 -5.79139,17.12303 -13.75585,17.98411 z m 13.75585,-17.98411 c 1.1669,-7.05692 0.67177,-14.76615 -1.03711,-20.43222 l -0.16992,1.50518 c -4.30025,8.12359 -2.83649,14.24359 1.20703,18.92704 z M 323.07844,785.87254 c 8.48984,10.30175 -5.87752,2.72659 0,0 z m -213.76745,0.6911 c -4.54108,-0.0312 -11.535554,5.55792 -14.886712,11.04778 13.892112,8.10491 0.712857,11.32053 -0.908202,1.66917 -2.857259,6.08144 -0.313185,11.30035 16.357414,7.53372 6.81433,-1.03526 27.48188,-14.07708 12.95116,-18.48583 -3.11355,13.37988 -11.9677,13.03509 -15.86132,10.05407 1.27608,-0.36298 1.86591,-1.55458 -0.88477,-3.77565 -0.3975,0.2343 -0.69667,0.45398 -0.98437,0.66962 0.0426,-1.87022 2.32849,-3.55044 8.42969,-3.43986 -0.19902,-3.75746 -1.88024,-5.25703 -4.21289,-5.27302 z m -15.794914,12.71695 c 0.25898,-0.55124 0.566782,-1.10982 0.908202,-1.66917 -0.34543,-0.20153 -0.690781,-0.40166 -1.070311,-0.60911 -0.0174,0.82917 0.04566,1.58489 0.162109,2.27828 z m 27.515604,-12.38702 c -8.74486,0.74978 7.10635,3.18959 0,0 z m 462.15404,0.56225 c 5.00655,0.97598 -4.00187,4.49099 0,0 z m -181.66591,0.50368 c 1.62661,8.26318 -7.83333,9.39095 0,0 z m -52.65037,1.03664 c 17.87021,2.83096 -3.44511,3.35959 0,0 z m 483.96848,2.6004 c -6.84759,3.69695 5.94849,4.69248 0,0 z m 44.70897,0.0605 c -22.98406,6.49561 16.15269,5.37826 0,0 z m -76.40036,1.49348 c -4.34847,5.04855 4.79953,8.03909 0,0 z m -428.76538,1.55008 c 6.4575,7.16962 -11.04614,8.18944 0,0 z m -42.87692,0.45683 c 38.39213,11.49712 -13.0206,13.23113 0,0 z m -219.32996,1.61841 0.004,2.53401 -0.004,-2.53401 z m 156.89053,2.48131 c 10.73146,20.25884 -35.4268,69.11634 -13.27538,24.21373 3.21717,-8.44928 5.9355,-18.36842 13.27538,-24.21373 z m 78.9902,1.40952 c 10.97836,7.12103 -9.23418,11.59588 0,0 z m 7.41405,0.93903 c 3.8796,3.22509 -3.76281,4.85375 0,0 z m 6.69336,0.082 c 7.74611,1.86039 -3.86549,6.97159 0,0 z m 388.14626,0.19328 c 16.07715,10.86964 18.58547,0.76318 0,0 z m -438.24975,0.49977 c -12.98857,0.42975 -9.60546,13.07178 0,0 z m 67.45699,1.13816 c 13.05121,24.46813 -11.34875,38.84662 -3.00976,5.39797 l 1.45508,-3.96306 1.55468,-1.43491 z m 173.28701,0.62472 c -21.79775,16.99882 49.41313,13.21418 11.69141,1.17721 l -6.09766,-0.97222 -5.59375,-0.20499 z m 0.87891,0.26941 c 9.29972,4.88293 -3.4176,8.65179 0,0 z m 8.14844,0.61886 c 5.85284,2.28431 -4.15438,4.39623 0,0 z m -130.80853,0.20109 c -6.11578,10.54277 5.0531,15.67488 0,0 z m 356.45098,1.08935 c -4.75882,3.7926 4.66034,5.998 0,0 z m 20.21092,0.9488 c -7.30246,1.98676 4.75203,5.21414 0,0 z m 29.49022,0.26745 c -3.13887,7.39508 15.17703,1.14748 0,0 z m 40.74217,2.03034 c -3.48034,5.35097 23.76327,0.73343 0,0 z m -307.95101,0.87656 c 6.96854,2.03317 -4.86454,4.31808 0,0 z m -8.64452,0.14446 c 6.10396,4.37896 -4.138,5.59283 0,0 z m 289.27328,0.0644 c -2.10666,3.0347 7.5182,7.75257 0,0 z m -529.19502,2.14356 c -4.97167,2.72489 -1.94267,4.18599 0,0 z m 40.1367,3.16069 c -6.88585,20.58996 16.95847,22.35596 -7.37696,30.1271 -1.24499,-10.45687 3.86385,-20.58111 7.37696,-30.1271 z m 470.82005,3.61753 c -3.23324,8.01073 6.72855,4.76479 0,0 z m -520.45479,0.49196 c -18.06934,15.64309 -11.21116,29.44142 0,0 z m 18.45507,0.81995 c -7.68728,4.27047 -4.42495,7.01261 0,0 z m 470.12082,1.26505 c -8.69758,2.17992 5.65439,4.7484 0,0 z m -52.56833,2.8659 c -5.19608,8.24631 25.26736,3.19131 0,0 z m -100.15814,1.07181 c -0.91302,0.82101 -1.64337,1.58086 -2.23047,2.2939 8.05431,3.92481 -3.02887,7.67433 -0.77344,1.02883 -9.64464,14.58926 52.04883,4.18126 8.72266,-2.9928 l -5.71875,-0.32993 z m -3.00391,3.32273 c 0.21754,-0.32905 0.4813,-0.67402 0.77344,-1.02883 -0.10766,-0.0524 -0.17842,-0.10368 -0.29297,-0.15619 -0.2135,0.43503 -0.35523,0.816 -0.48047,1.18502 z m -321.79279,-2.82295 c -13.9901,8.4207 -13.53722,19.14845 0,0 z m 556.28095,3.67412 c -0.68862,0.009 -1.42696,0.0275 -2.2168,0.0566 -2.49899,8.68812 23.564,-0.33254 2.2168,-0.0566 z m -215.7616,0.86486 c 10.64682,1.09168 -7.30888,4.66897 0,0 z m -244.63072,1.75116 0.46679,8.04912 -0.46679,-8.04912 z m 431.57788,0.6501 c -7.39239,3.21639 6.53841,3.95897 0,0 z m -64.41794,3.05137 c -7.20653,1.42375 3.54816,5.29493 0,0 z m 41.72655,3.03769 c -5.97742,7.25334 6.24404,5.82059 0,0 z m -638.84144,3.56481 c -11.38916,13.84904 69.6091,4.60033 20.00388,2.28607 -6.61128,-1.1615 -13.26708,-2.27768 -20.00388,-2.28607 z m 611.85902,1.07569 c -6.49102,6.26923 9.17278,3.04685 0,0 z m -531.80829,1.11083 c 1.79217,-0.0275 3.51684,0.2117 5.14062,0.75552 24.13872,8.07237 72.35499,-2.91973 83.26363,14.67114 -18.51848,48.62565 -65.469,39.53992 -106.39838,39.22651 -51.09354,6.20116 -8.8885,-54.24283 17.99413,-54.65317 z m 475.53879,3.03769 c -1.08796,-0.0165 -2.31771,-0.005 -3.70311,0.0371 4.32776,6.45801 20.02265,0.20993 3.70311,-0.0371 z m 132.39446,0.94294 c -1.88334,6.49401 28.63683,3.92475 0,0 z m -26.71091,7.13741 c -4.95079,3.83683 4.86622,4.48975 0,0 z m -508.61691,1.29239 c -6.00496,8.29092 8.65512,15.41298 0,0 z m 438.10132,1.74922 c -3.84055,6.15311 8.23728,1.06516 0,0 z m 15.67773,1.8761 c -5.25691,3.79968 7.49976,2.77243 0,0 z m 29.72459,2.44227 c -3.98929,5.34824 8.51509,2.84812 0,0 z m 53.74997,0.54663 c -11.31568,5.78201 21.03654,2.17167 0,0 z m -632.55239,0.83361 c -5.87969,16.12393 9.14508,9.76965 0,0 z m 138.08001,0.0527 c -3.13828,14.81295 8.89588,7.97237 0,0 z m 56.12496,0.25184 c -9.36609,11.4756 7.28176,11.12773 0,0 z M 38.738762,870.3053 c -0.900174,-0.0152 -1.817348,-0.005 -2.746091,0.0312 -10.808727,0.41904 -23.202064,4.13867 -30.9081861,7.35607 l 0.052734,3.75808 c 3.2501712,-0.76577 7.6382621,-1.98336 13.4277261,-3.79713 4.601045,-2.85593 56.495449,-4.67906 27.724594,-6.42289 -2.297196,-0.59407 -4.850253,-0.87963 -7.550777,-0.92537 z m 292.943188,2.8171 c -8.32106,13.12961 2.58026,10.04648 0,0 z m 549.75556,1.66722 c -23.86487,2.76844 17.80509,6.29279 0,0 z m -484.77121,1.58522 c -10.06693,17.87406 2.99556,25.52614 0,0 z m 9.48631,1.29239 c -10.53142,10.26715 19.90286,0.0289 0,0 z m -142.33195,1.45442 c -13.87428,4.19543 9.43911,7.66382 0,0 z m 160.2421,0.99565 -5.17577,2.81123 5.17577,-2.81123 z m -148.99796,0.0176 c -2.5629,10.08793 18.96403,0.38872 0,0 z m -22.84764,2.15333 c -16.45288,10.41797 9.42012,9.61065 0,0 z m 38.49216,1.6516 c -5.60742,6.71278 12.40428,4.07398 0,0 z m 26.78123,3.85374 c -16.31766,7.00965 11.29502,9.24401 0,0 z m -16.67381,0.31821 c -1.63379,9.42765 15.05846,6.07509 0,0 z m 519.14228,13.07616 c -40.24382,2.84752 12.95827,13.52192 11.66992,3.70147 l -3.05859,-2.16309 -8.61133,-1.53838 z m -289.32991,1.67503 c -0.88923,-0.005 -1.81725,-0.002 -2.78516,0.0117 20.54365,8.82378 30.35128,0.1437 2.78516,-0.0117 z m -219.58776,0.51345 c 24.99783,-0.15812 -2.28294,37.04455 32.07029,33.6997 23.79971,-5.56224 50.9839,18.23226 14.166,25.45926 -29.2673,13.52694 -82.33256,-40.47543 -48.82223,-59.02426 0.91902,-0.0855 1.77954,-0.1296 2.58594,-0.1347 z m 275.75179,0.78285 c -2.65043,-0.0121 -5.29783,0.008 -7.9414,0.0605 -9.7609,0.19558 -19.46766,0.83919 -29.06444,1.96201 51.26998,1.97059 103.12421,11.4215 154.47843,18.13247 -37.31359,-12.54549 -77.71625,-19.97385 -117.47259,-20.155 z m -236.203,1.7004 c 34.00954,23.00375 -41.6209,24.81824 -10.91405,3.06698 l 5.51367,-2.08109 5.40038,-0.98589 z m -226.10924,0.17961 c -32.382517,5.23561 -74.502123,-4.25431 -99.61127,11.73692 34.982282,-4.92258 70.570544,4.94144 103.46869,-10.0697 l 0.6875,-1.29825 -4.54492,-0.36897 z m 369.14432,1.23187 c 9.3462,0.51204 -14.67419,23.42645 8.80859,30.1388 -32.65415,-8.07973 -2.95459,44.18247 3.00782,9.95841 34.45678,5.48483 -32.78012,44.69085 -37.35936,4.67954 -10.62684,-22.5331 10.98504,-29.76056 23.20312,-44.56787 0.94362,-0.17642 1.71677,-0.24303 2.33983,-0.20888 z m -118.56634,0.87265 c 0.4991,-0.005 1.03278,0.005 1.60547,0.0332 32.82511,9.57844 -15.04219,50.00867 -11.02733,15.79954 12.77252,0.52478 -6.05007,-15.64509 9.42186,-15.83273 z m -169.39444,0.0156 c 9.41789,0.50285 -8.82112,49.00101 10.5293,29.93772 -6.89604,-27.73385 15.97647,-35.77928 9.46093,-3.04161 4.63844,24.09367 0.77082,69.56289 -29.33397,39.28119 -8.77728,-18.78745 -11.04625,-54.22502 8.875,-66.16559 0.16371,-0.0166 0.31925,-0.0197 0.46874,-0.0117 z m 236.94909,0.44902 c -17.94669,0.14771 -50.32609,14.45277 -15.12889,6.71182 3.46203,1.60437 43.41937,-6.28941 18.50194,-6.54198 -1.04386,-0.12676 -2.1766,-0.1797 -3.37305,-0.16984 z m -269.35141,0.52906 c -5.204,6.6338 15.87365,5.41685 0,0 z m 529.91963,0.64229 c 31.60769,22.26575 82.81691,4.42679 121.10149,13.85705 24.45946,-2.30993 -38.63976,-15.78496 -48.56637,-8.58208 -24.10361,0.79921 -49.54349,3.98086 -72.53512,-5.27497 z m -472.62083,0.79846 c 6.73868,9.67926 -4.98515,4.64552 0,0 z m -178.896384,1.46223 c 13.365223,2.10594 -15.18722,3.88372 0,0 z m 490.775114,0.25575 c -9.96395,2.64808 4.38509,4.37886 0,0 z m -179.41005,4.24028 c -0.89733,11.54288 -6.83635,5.79874 0,0 z m 133.64445,2.74096 c 16.40913,6.8263 -2.08587,13.91958 0,0 z m -222.84948,0.0488 c -41.66259,1.35065 20.86112,3.43553 0,0 z m 275.54085,0.7848 c 15.5002,17.15181 94.71713,22.86152 98.79097,11.42065 -31.21729,-12.14968 -67.9608,3.76682 -98.79097,-11.42065 z m -434.27514,1.23577 c -4.0348,8.33737 61.18493,0.74881 12.61718,0.43145 l -5.1875,-0.29674 -7.42968,-0.13471 z m 307.96662,2.21776 c 0.75849,6.55525 31.06833,-0.2696 0,0 z m -90.85347,2.81904 c 27.12981,3.4616 18.82669,10.34968 0,0 z m 282.47446,1.87807 c 21.82154,5.34656 -19.92282,6.33201 0,0 z m -381.49197,0.21084 c 4.06223,11.5607 -3.47015,28.33376 -1.65821,5.51705 l 1.65821,-5.51705 z m -71.86129,0.695 c -6.20997,9.64638 24.57405,3.53925 0,0 z m 109.58783,2.6902 c -11.86485,6.43622 22.03607,1.55615 0,0 z m 595.50553,1.09326 c -24.06039,7.41249 62.3229,5.00646 13.28905,0.46463 l -7.5332,-0.36507 -5.75585,-0.0996 z m -505.12081,1.07374 c 6.13717,0.94894 -2.81124,3.97309 0,0 z m -242.99597,0.0898 c -8.81988,8.77489 27.96734,0.52058 0,0 z m 597.73014,1.20843 c 11.11774,9.80526 82.82903,14.24705 26.44334,3.47501 -8.78232,-1.37646 -17.55846,-2.92461 -26.44334,-3.47501 z m 84.27925,4.80449 c 23.53419,6.32311 73.1418,18.34501 82.5566,11.61977 -27.30003,-5.28496 -55.11388,-7.25367 -82.5566,-11.61977 z m -771.392144,5.58733 c 24.380875,6.29503 93.192104,7.35993 91.896424,6.27647 -30.352122,-4.80063 -61.193972,-6.49928 -91.896424,-6.27647 z m 606.814104,1.85854 c -0.70367,0.003 -1.41195,0.0307 -2.12108,0.0839 -32.7336,6.15937 93.7791,8.8462 33.49217,4.08606 -10.83078,1.00547 -20.8161,-4.21658 -31.37109,-4.17001 z m -225.22252,1.41148 c -29.8523,0.16369 17.31881,5.63973 26.05077,0.45682 -6.32818,-0.5112 -12.6785,-0.45499 -19.01952,-0.41387 -2.70899,-0.0411 -5.04108,-0.0538 -7.03125,-0.0429 z m 304.00373,2.54377 c -1.44332,7.71153 80.26011,8.94479 24.42382,2.34466 -7.76275,-2.81371 -16.36099,-1.48756 -24.42382,-2.34466 z m -477.72238,0.50759 c 21.13369,5.40505 6.43869,24.13176 -8.27344,17.31254 -0.42167,-5.78845 -0.12512,-17.22806 8.27344,-17.31254 z m 2.3457,0.94684 c -22.27327,8.22552 17.97104,5.43124 0,0 z m 334.09942,2.82295 c -26.97356,0.42206 35.38148,6.18443 47.17575,10.31373 21.99383,2.15333 60.1003,13.45502 73.66988,-0.99175 -40.24432,13.58925 -80.49021,-9.47002 -120.84563,-9.32198 z m -313.56233,0.68524 c -4.18036,1.97246 2.40841,4.67709 0,0 z m 259.44908,5.10708 c 5.03095,5.98249 2.2444,13.23096 0,0 z M 8.8012796,963.65595 c -0.8585724,0.0979 -1.6843328,0.26376 -2.4804673,0.45292 l 0.011719,0.79652 c 0.7563465,-0.3715 1.5674202,-0.77978 2.4687486,-1.24944 z m 12.0644454,1.84682 c 1.302954,23.97737 106.149435,11.83518 42.470681,10.97164 -14.034024,0.13149 -33.970252,3.54359 -42.470681,-10.97164 z m 812.868685,1.09522 c -68.67553,1.81393 67.57982,10.26555 10.2539,0.75747 l -5.87305,-0.58958 -4.38085,-0.16789 z m -697.62071,0.58177 c -25.05113,3.34007 32.2805,0.20321 0,0 z m 123.5722,6.47365 c 0.74899,9.11759 11.05872,7.54494 0,0 z m 10.97851,0.68719 c 3.93885,24.36786 22.41144,15.28115 0,0 z m 134.76555,4.57217 c -5.48395,2.01205 3.92107,4.58105 0,0 z m 13.39258,0.42364 c -31.0161,1.66423 8.05966,4.48902 0,0 z m 8.8867,1.13035 c -0.91911,-0.0115 -1.94666,-0.005 -3.09375,0.0215 6.00627,4.19133 16.88047,0.15145 3.09375,-0.0215 z m -328.767386,0.73795 c -5.477937,2.01493 3.923276,4.57867 0,0 z m 146.716706,1.41733 c -18.35399,9.5517 2.69824,9.41978 0,0 z m 479.30833,0.34555 c 47.16831,5.47964 94.55303,11.5335 141.96086,13.17181 -28.33731,-3.80153 -97.73789,-12.84193 -141.96086,-13.17181 z m -454.36302,2.99865 c -35.14865,26.87596 -74.87829,23.46016 -116.42182,24.66466 -14.39629,-4.9548 -36.99877,-3 -25.19724,10.4973 9.42777,-22.42397 1.07209,5.0185 14.93358,-1.9288 -5.48985,31.848 10.45829,33.9173 36.96482,30.3847 l 82.69526,-1.2006 c -0.66948,-7.5823 3.26795,-16.3281 7.20704,-25.0727 -6.01038,17.4087 8.5173,41.7772 9.70897,8.3107 -1.60639,-4.6325 0.25979,-13.184 -4.70702,-16.2798 -1.39219,1.3095 -2.50403,2.806 -3.4082,4.4082 5.67503,-12.8452 9.99238,-25.34403 -1.77539,-33.78366 z m 389.32009,2.50474 c -44.11527,5.51946 6.73689,1.41133 28.17577,8.46103 -8.94598,-4.14623 -18.38488,-7.55392 -28.17577,-8.46103 z m 28.17577,8.46103 c 2.08496,0.96638 4.15326,1.95885 6.18163,2.98499 -1.5055,-1.17697 -3.65199,-2.15315 -6.18163,-2.98499 z m -288.32601,-5.42334 c -0.85618,-0.001 -1.60215,0.007 -2.24805,0.0234 -18.0851,0.45546 43.58075,7.45141 34.70506,3.54138 -7.12999,-1.55929 -14.33656,-2.85084 -21.63476,-3.28563 -4.70765,-0.18957 -8.25373,-0.27561 -10.82225,-0.27918 z m 195.20301,0.8219 c 19.55977,2.73597 45.83369,0.32952 11.89062,0.45487 l -6.11914,-0.30651 -5.77148,-0.14836 z m 123.84173,5.55804 c -20.68677,2.06947 -31.88876,8.37359 0,0 z m -663.267207,5.94849 c -16.415341,0.2871 -31.992521,5.1696 -48.587863,5.1286 l 0.1445312,10.0267 c 4.1453008,8.0186 2.0373517,11.4516 0.1542968,10.7354 l 0.1914061,13.4666 c 1.1137894,1.7227 0.7859577,2.9137 0.048828,3.356 l 0.080078,5.6127 c 5.9390679,0.2558 12.2823659,0.3684 17.1933499,-0.3124 l 53.197235,-0.7731 c -3.937498,-27.3272 11.68155,21.0155 11.35351,-11.4109 0.859189,-20.564 15.015025,3.1302 17.791005,-5.0778 1.19606,10.6969 8.15195,15.7986 14.12889,-4.1426 0.84633,-6.4491 5.20106,-18.8431 -3.21484,-21.8711 -6.47044,4.1312 -9.66713,11.0955 -10.69921,17.7635 -0.12295,-1.2374 -0.27859,-2.562 -0.50195,-4.0899 -5.43423,-30.33628 -11.988302,18.4323 -19.843738,-11.6101 -11.075744,-5.4356 -21.411875,-6.9769 -31.435529,-6.8016 z m 738.581617,1.921 c 18.93871,5.6876 82.68366,8.7231 77.79292,1.6028 -26.23548,3.687 -51.73743,1.029 -77.79292,-1.6028 z m -754.52692,2.5165 c 5.276327,34.6933 -1.850309,30.8465 0,0 z m 309.8299,1.0542 c -9.82691,6.6803 -8.95761,28.3774 -23.04295,3.5277 -24.54726,-8.6697 0.0859,27.5029 3.02539,14.8859 -0.78392,7.9201 2.09257,31.7324 7.02733,11.8267 5.37656,24.9283 19.29067,-17.6773 17.4082,7.5025 11.8496,-2.3159 34.05403,5.6718 34.52146,-8.3068 4.36784,18.3766 9.1392,-43.43474 7.33008,-4.7713 8.46749,27.8242 10.17361,-36.92253 -11.14649,-18.2086 -32.90058,-20.17751 -12.60309,53.7307 -25.71873,11.815 -0.19588,-6.4953 0.29014,-18.5665 -9.40429,-18.2711 z m -54.97457,0.07 c -19.64882,14.8489 -1.6047,65.2226 -4.71875,19.7099 -4.61525,-9.4383 12.81095,-11.3798 4.71875,-19.7099 z m 146.77335,2.2275 c -20.63519,15.3882 -1.41816,22.1738 -0.59376,21.4259 2.05276,39.8689 19.82065,-14.3052 0.59376,-21.4259 z m -321.72053,0.6638 c 5.85282,2.2842 -4.15443,4.3961 0,0 z m 294.04281,0.043 c -19.48243,13.2643 -1.65149,57.4432 -5.04883,14.103 -6.54092,-18.1693 19.98548,18.5812 8.76367,-10.8545 l -1.79687,-2.5711 -1.91797,-0.6774 z m -107.2851,0.096 c -3.23029,3.3977 2.2527,6.8774 0,0 z m 118.44329,0.5153 c -5.086,26.2271 13.59552,50.1923 0.31446,10.3587 l -0.36719,-5.0876 0.0527,-5.2711 z m -260.55258,0.061 c 5.07508,13.291 -1.76543,4.788 0,0 z m 350.50175,2.1689 c -5.51395,23.1838 37.7525,44.166 12.54492,9.7222 l -4.98046,-5.9192 -7.56446,-3.803 z m -18.15233,0.2265 c -18.77051,26.5818 23.23031,44.5048 7.76562,8.3654 l -3.29101,-4.7557 -4.47461,-3.6097 z m -430.861083,0.3182 c 5.064057,12.1501 -2.046859,3.6464 0,0 z m 373.288843,0.062 c 4.23753,6.3934 -0.88566,13.4746 0,0 z m 104.66988,0.2967 c -27.51909,19.8036 8.94209,15.0586 0,0 z m -81.4902,0.057 c -28.31345,7.7006 3.27866,52.4238 -0.0606,13.0391 12.10785,44.4536 31.07962,-7.8797 0.0606,-13.0391 z m -344.6834,0.5486 c 5.85741,2.2796 -4.15165,4.3994 0,0 z m 364.59355,0.3416 c -5.79948,18.2486 8.91521,45.0749 5.32226,9.4411 l -3.33789,-7.2975 -1.98437,-2.1436 z m 143.10148,2.5419 c -0.7423,-0.037 -1.58488,0.1234 -2.57031,0.5642 -22.87097,-2.0694 7.74142,45.4118 3.06836,10.1927 2.06135,-13.7848 14.03562,32.4604 18.49217,5.2339 -7.37266,-25.8022 -4.53642,27.3456 -11.31249,-11.0184 -3.11014,-0.9405 -4.4611,-4.8139 -7.67773,-4.9724 z m -15.50585,0.1874 c -12.78371,26.9599 8.50142,36.5429 0,0 z m -533.935246,0.047 c 3.742018,4.6727 -2.750189,1.8714 0,0 z m 274.339686,0.3241 c 7.60549,9.0013 -6.0626,20.987 0,0 z m 210.92567,0.2401 c -7.5035,18.0879 19.51517,28.76 0,0 z m 21.18943,0.088 c -20.49221,-0.4165 -7.45347,42.6922 -3.83007,13.0488 2.72789,31.86 13.61592,-10.5833 3.83007,-13.0488 z m -280.0682,0.2323 c -6.91291,4.8547 -1.21469,10.0252 0,0 z m 288.41195,0.1933 c -3.06325,13.1627 4.11194,22.5247 0.86133,3.8205 l -0.86133,-3.8205 z m 68.45699,0.2538 c -18.15141,15.0958 18.24611,36.0168 9.13086,2.124 l -9.13086,-2.124 z m 31.18553,0.035 c -20.89617,23.077 15.18207,22.948 31.90233,20.5572 8.58115,-38.2418 -16.68469,-5.2596 -31.90233,-20.5572 z m -395.39625,0.5174 c -4.12097,2.2299 2.3246,5.8318 0,0 z m 484.1794,0.1288 c -0.6276,-0.01 -1.26904,0.029 -1.92382,0.1074 -34.60935,18.9646 4.33134,21.9847 23.37108,18.6674 3.09595,-1.7634 8.54983,-1.4672 15.46874,-0.9215 -0.82637,-0.3467 -2.21073,-2.4045 -0.95313,-3.9884 1.56557,2.7251 1.67096,3.8345 1.29493,4.0158 7.70037,0.6122 17.19671,1.4962 27.52733,0.2655 30.88666,-5.3409 -28.02086,-18.918 -39.23045,-9.937 -9.58716,0.6848 -16.14075,-8.1338 -25.55468,-8.2092 z m 37.2578,17.8807 c -0.11838,-0.01 -0.2243,-0.017 -0.3418,-0.027 0.13393,0.056 0.25098,0.071 0.3418,0.027 z m -511.12667,-17.621 c -8.44453,23.3369 14.22507,19.7194 0,0 z m 341.29083,0.365 c -3.05154,18.6883 8.19304,35.4522 0,0 z m 31.36912,0.2831 c -17.95278,24.299 17.47238,30.6455 0,0 z m -79.80073,0.051 c -7.96113,24.068 14.87081,32.0902 0,0 z m -47.11912,0.1132 c -10.78473,14.2332 14.86852,3.1245 0,0 z m -482.989963,0.076 c 16.383711,14.3801 6.645666,23.4513 0,0 z m 103.283133,0.2929 c 7.0373,6.3564 -3.30507,8.4407 0,0 z m 296.67172,0.8199 c 4.21653,5.9555 -2.42877,2.6092 0,0 z m 283.13851,0.8805 c -5.98972,20.4329 17.07256,13.8384 0,0 z m -666.280872,0.367 c 3.742048,4.6725 -2.750159,1.8713 0,0 z m 33.312472,0.2753 c 3.24181,4.336 -5.27266,4.5935 0,0 z m 43.59764,0.5583 c 22.87944,16.8917 -27.20596,6.8484 0,0 z m 90.7187,0.3495 c 8.59852,32.051 -29.94888,20.4748 0,0 z m 484.18723,0.5466 c -33.15293,23.4411 32.3626,14.6194 0,0 z m 133.85929,1.146 c -17.80882,14.0948 14.80398,11.6137 29.71679,11.0145 l -0.0781,-5.5209 c -11.59485,-0.022 -22.22911,-1.2337 -29.63867,-5.4936 z m -740.56012,0.2245 c -6.04708,8.0658 1.41509,16.9673 0,0 z m 261.47446,0.053 c 3.74203,4.6726 -2.75018,1.8713 0,0 z m -9.74023,0.2967 c 3.59123,4.0505 -3.01529,8.5703 0,0 z m -81.48433,1.6009 c -6.30528,13.4959 4.01141,21.1979 0,0 z m 536.86493,1.3509 c 3.66618,7.8756 -6.9817,0.6842 0,0 z m -51.98044,1.1011 c 5.85283,2.2844 -4.15442,4.3962 0,0 z m 92.87495,0.1952 c 7.48183,1.2518 -3.81668,6.3237 0,0 z m -741.91951,0.9488 c -4.64842,12.9294 9.08639,2.6963 0,0 z m 418.79079,0.7321 c -2.17035,2.0516 1.8521,4.5923 0,0 z m -121.21283,0.2967 c -3.49801,6.8545 4.69298,10.88 0,0 z m -118.34759,2.3096 c -13.999,14.261 13.69813,14.844 0,0 z m 431.37867,2.3348 c -3.47421,3.1962 5.84668,1.9674 0,0 z m -592.87467,1.8195 c 6.10285,4.3853 -4.13754,5.5927 0,0 z m 169.18741,0.1328 c -9.52963,9.3767 11.17857,7.7633 0,0 z m 270.38266,0.4646 c -6.10541,2.2527 4.75169,2.5713 0,0 z m -456.531,0.9332 c -5.2318,6.366 8.93541,12.8356 0,0 z m -7.80468,1.9659 c -14.72664,6.8784 10.9887,8.5747 0,0 z m 176.46084,2.208 c -0.72105,0.9416 1.39506,0.7267 0,0 z m -207.021369,0.1542 c -8.431015,5.3767 8.888089,4.592 0,0 z"
       id="path4147"
       inkscape:connector-curvature="0" />
  </g>
</svg>
