<?xml version="1.0" encoding="UTF-8" standalone="no"?>
<!-- Created with Inkscape (http://www.inkscape.org/) -->

<svg
   xmlns:dc="http://purl.org/dc/elements/1.1/"
   xmlns:cc="http://creativecommons.org/ns#"
   xmlns:rdf="http://www.w3.org/1999/02/22-rdf-syntax-ns#"
   xmlns:svg="http://www.w3.org/2000/svg"
   xmlns="http://www.w3.org/2000/svg"
   xmlns:sodipodi="http://sodipodi.sourceforge.net/DTD/sodipodi-0.dtd"
   xmlns:inkscape="http://www.inkscape.org/namespaces/inkscape"
   width="900"
   height="700"
   viewBox="0 0 900.00001 700"
   id="svg2"
   version="1.1"
   inkscape:version="0.91 r13725"
   sodipodi:docname="fifi-drawing.svg">
  <defs
     id="defs4" />
  <sodipodi:namedview
     id="base"
     pagecolor="#ffffff"
     bordercolor="#666666"
     borderopacity="1.0"
     inkscape:pageopacity="0.0"
     inkscape:pageshadow="2"
     inkscape:zoom="0.79142853"
     inkscape:cx="450"
     inkscape:cy="382.27861"
     inkscape:document-units="px"
     inkscape:current-layer="layer1"
     showgrid="false"
     inkscape:window-width="1366"
     inkscape:window-height="705"
     inkscape:window-x="-8"
     inkscape:window-y="-8"
     inkscape:window-maximized="1"
     units="px" />
  <metadata
     id="metadata7">
    <rdf:RDF>
      <cc:Work
         rdf:about="">
        <dc:format>image/svg+xml</dc:format>
        <dc:type
           rdf:resource="http://purl.org/dc/dcmitype/StillImage" />
        <dc:title></dc:title>
      </cc:Work>
    </rdf:RDF>
  </metadata>
  <g
     inkscape:label="Layer 1"
     inkscape:groupmode="layer"
     id="layer1"
     transform="translate(0,-352.36219)">
    <path
       style="fill:#000000"
       d="m 28.789549,352.36224 c -2.431844,1.93796 0.391645,2.09966 2.95703,0 l -2.95703,0 z m 14.132805,0 c 2.745987,1.32697 5.889661,0.70195 6.322262,0 l -6.322262,0 z m 19.373036,0 c -6.794034,2.13169 7.046331,5.90391 6.160153,0 l -6.160153,0 z m 23.763659,0 c -14.486738,3.5519 16.326831,7.74911 5.177731,0 l -5.177731,0 z m 13.38671,0 c -6.772617,4.09952 8.066051,3.76424 2.093741,0 l -2.093741,0 z m 34.070291,0 c -2.86636,2.82346 5.71705,1.2362 5.69921,0 l -5.69921,0 z m 16.04101,0 c -9.97374,2.24961 3.05508,11.93493 13.17187,7.33594 27.63876,3.11216 28.60497,-4.97599 13.3867,-7.33594 l -26.55857,0 z m 63.46871,0 c 3.77609,5.22743 10.23008,3.63257 3.88867,0 l -3.88867,0 z m 22.0664,0 c -1.04605,0.65034 -1.69799,1.19778 -2.04297,1.66211 0.25312,-0.19547 0.88504,-0.4006 2.16015,-0.58008 1.67407,1.77155 -2.46772,1.40224 -2.29296,0.73828 -3.0323,4.88883 31.05985,-0.69942 6.80664,-1.82031 l -4.63086,0 z m 42.17576,0 c -29.27115,10.58261 -57.74599,22.64208 -84.98238,35.97463 -15.97338,11.3774 -33.07058,28.24677 -34.70897,18.04884 -1.67456,0.92328 -3.35479,1.84063 -5.01758,2.77345 1.59025,4.86482 -4.5219,5.54742 -5.06444,2.88281 -2.84368,1.62369 -5.67535,3.25518 -8.48242,4.90625 2.72411,2.19817 0.52687,6.36472 -0.82813,0.49414 -4.11824,2.4294 -8.19064,4.88823 -12.22655,7.37501 1.77111,5.40602 0.20279,8.7599 -1.25391,0.77344 -9.77355,6.04928 -19.29562,12.26269 -28.544898,18.62891 1.14759,7.31831 0.295937,9.78101 -1.357421,0.9336 -3.993126,2.76288 -7.942737,5.54887 -11.830071,8.36719 3.726206,6.5891 -5.71156,8.55033 -4.214842,3.09571 -4.799264,3.53976 -9.525608,7.11166 -14.150382,10.73243 7.9158,13.70239 21.40874,74.63212 -0.06445,62.71293 C 59.94268,517.56274 56.85914,477.58877 39.1665,504.50101 c 20.359388,0.14404 35.941426,52.32867 33.0117,83.69342 1.441298,15.10442 16.088625,58.6292 -10.982416,28.32815 -10.469328,-16.24569 -6.73617,-65.86372 -10.539056,-21.10353 -3.923076,-21.5591 -11.978336,-44.12522 -6.234372,-7.65431 -9.622668,37.24862 62.269554,44.83029 38.107401,71.68365 -22.525656,2.08788 -35.138642,-33.04831 -34.888653,-6.3086 -22.835399,-1.00832 34.528883,12.08501 47.609349,9.81641 49.198297,26.28848 -62.009916,-3.27797 -54.365204,23.62307 0.0961,-0.45411 0.38777,-1.04266 0.96289,-1.79492 6.777482,1.09442 0.947312,3.93473 -0.628906,2.83984 0.35586,0.94301 0.847334,1.94425 1.484374,3.01953 18.65813,-17.62366 36.127298,-3.06905 65.146453,-7.38281 40.98126,-3.33475 63.12103,36.59573 74.62496,70.28716 11.64484,35.80801 0.80037,91.95084 -43.96092,94.6485 -16.60783,-0.27851 -123.980162,13.9225 -95.790962,12.94141 56.156638,-6.49383 126.809932,1.15351 163.822172,-51.88089 19.01098,-6.72792 30.48184,-54.77639 32.28124,-60.24613 -14.40324,25.14723 -38.23472,66.94338 -55.68747,74.94731 1.88016,-29.85726 15.55729,-89.80356 10.83202,-99.22468 0.35158,53.61705 -26.96546,-14.84229 -41.17966,-28.59377 -8.35896,-16.19839 -24.09891,-64.53157 -15.93554,-20.69924 -12.37275,0.37085 -15.37285,-12.12917 -16.81054,-27.61134 -0.0739,6.48055 -2.91509,11.89043 -10.38475,15.54299 C 76.062421,625.66747 57.320486,565.24022 88.95944,519.9854 c 5.410204,-9.51031 17.34525,-11.23871 23.12304,-19.31251 12.19533,12.57281 14.20764,63.77212 -3.32031,49.83011 1.22162,18.48397 -7.04664,65.17513 -12.17578,20.584 -7.487843,18.84646 19.278,49.7851 23.02928,71.73247 -1.27361,-17.14495 -1.68564,-36.53541 -10.77342,-46.15433 -0.29781,-35.20567 71.60837,-60.01445 46.72653,-89.60944 -7.92695,8.43894 -18.51401,61.14455 -27.28904,41.19729 3.09903,-3.5768 3.97115,-7.87482 3.72461,-12.45899 0.79498,-0.1829 1.63505,-1.05947 0.18945,-2.14648 -0.13206,0.13407 -0.22134,0.24884 -0.32617,0.36914 -2.03464,-18.16144 -19.32323,-39.89133 11.75975,-39.66994 18.2265,0.7756 42.12783,-16.71622 49.37497,-8.25392 0.19127,-0.41206 0.68473,-0.9764 1.59375,-1.73047 8.51216,-0.008 1.38836,2.98748 -0.97265,2.62891 1.40268,2.30449 1.92224,5.99816 1.27148,11.64454 8.74689,-7.36116 22.76916,-3.90985 32.05857,-1.00782 -2.07537,0.66731 1.37951,1.38131 1.9629,0.6211 4.22141,1.36473 7.10834,2.38737 7.42773,1.70312 12.27323,27.1179 2.97685,-17.16224 22.81835,1.79493 29.04156,20.89771 75.78576,54.19777 65.17183,93.38092 1.01566,-23.74777 -25.40302,-17.92852 -9.20117,1.8418 12.5109,24.34916 -2.74714,59.32691 -9.7871,66.64654 27.86455,-15.57609 -23.23981,26.30298 3.04883,4.85351 12.94211,-16.25451 39.45644,-23.6362 15.16015,0.0312 -45.53286,17.78559 -43.89581,49.74447 -55.18943,83.87506 -0.84318,-1.12727 -1.61657,-2.29608 -2.35351,-3.48437 14.58447,31.95293 -15.13725,70.17728 -31.47264,96.14849 -7.48173,30.39802 -20.31085,69.49192 -58.61715,47.83598 -38.76764,-4.99752 -116.344181,-8.98101 -134.699151,-8.31056 44.88679,14.39906 93.710391,5.59129 139.394461,11.98634 28.24514,19.50357 -14.27901,84.76184 5.04492,90.32819 7.37479,-16.23984 3.74119,29.72979 11.46483,-3.08399 9.03823,12.91101 4.26453,24.10858 9.8789,3.4961 23.65956,21.82748 58.42077,-23.0634 35.93357,-50.90042 -25.17765,-57.77126 60.93566,-32.10248 50.48826,10.13282 7.2934,-2.96165 4.58303,71.56518 9.68554,20.51173 -3.56677,-56.27022 17.12732,57.64595 14.01562,2.5664 5.17409,-33.22715 28.44808,62.49305 18.96288,9.93751 8.0286,-35.67427 20.42935,27.59824 22.69139,-5.4336 12.25764,-13.2007 5.65531,36.04224 14.4707,-3.45508 22.26863,-26.34775 4.47498,-80.92219 57.08786,-75.26372 45.91905,-14.213 52.71151,16.90995 25.38475,46.64261 1.08772,11.08302 8.24903,75.27583 11.36327,30.4551 5.04809,-28.46175 9.79088,60.65813 14.36718,8.24219 8.14883,-18.82902 17.7151,47.17524 15.0996,1.18165 14.46111,-39.96363 21.69973,38.37859 30.94921,-6.67579 -15.76798,-25.29529 -8.81074,-67.23367 -7.4668,-78.69927 -23.24746,-39.78614 -38.51443,-82.6025 -76.85738,-111.42196 -3.11083,-7.08454 -2.0291,-15.67744 1.12305,-23.66604 -7.92824,11.74222 -14.60943,13.56505 -4.82422,-11.40429 23.90208,-27.77068 -23.36523,26.41143 -15.73632,-11.55665 -10.56472,-30.58813 9.86606,-14.99969 12.75,-10.82423 0.64582,-23.06452 6.5335,-18.5662 -5.75976,-14.48243 0.18938,-0.36741 -0.0248,-1.04817 -1.17579,-2.15039 -1.77966,1.33319 -0.72475,2.31909 0.23633,2.46875 -0.92751,0.28258 -1.94425,0.55527 -3.06445,0.8164 -18.63912,-16.89386 1.81256,-24.35525 16.52929,-27.26955 6.37023,12.97716 -9.4508,14.18076 8.63281,18.13087 10.02169,10.32105 6.01881,29.06947 -0.64063,43.7227 11.76616,-16.19281 28.758,-21.66895 20.16015,14.42774 -7.56883,60.10991 55.54457,100.8453 108.65814,98.8282 66.87189,21.13171 136.96846,26.67614 206.64441,24.76758 36.98663,-0.63345 74.29952,3.61534 111.16401,2.96486 l -0.0332,-2.31837 c -20.57641,-1.18315 -47.28299,-6.58578 -33.37693,-32.82424 -3.79601,-40.18741 8.85268,-129.00383 -43.49607,-128.51962 -46.56133,32.74437 -37.53305,102.60868 -80.08394,138.47275 4.31811,22.29312 -78.56955,28.87472 -76.77925,-3.1289 8.54862,-20.77429 42.4983,-69.90631 13.67381,-62.57427 8.62919,-17.93081 10.80376,-55.96577 -5.0625,-17.06251 -12.07248,18.12042 5.47416,-56.36751 -10.98241,-14.67189 -11.85312,37.30062 -5.62337,3.27131 -12.25389,-14.66016 -6.66053,35.3559 -41.13048,66.18519 -9.78907,99.97077 -11.33643,15.62629 9.24826,21.86318 -20.45507,14.94923 -21.97882,-5.97564 -89.96777,-14.1076 -46.50387,-18.53712 6.37701,-30.21785 29.06594,-63.49534 13.06835,-81.65826 7.74424,-20.90996 -2.17279,-45.06259 -10.96874,-11.6797 -11.60387,43.34496 5.42869,-69.72061 -11.80273,-13.13673 -13.2425,48.47048 -5.2643,-11.52751 -14.68359,-20.7422 -14.17138,15.92797 5.98633,69.14479 -18.39257,47.90433 -6.95809,24.39794 40.29649,95.66684 -13.97655,72.11138 -45.74895,-33.67169 -20.06958,-101.62712 19.30858,-129.14267 24.76953,-17.04181 8.58949,-19.64418 2.70703,-15.31251 18.80485,-20.29757 39.81307,-15.98148 61.79098,-7.1504 -0.96741,-1.05131 -1.90631,-2.2358 -2.80858,-3.60352 -15.79758,-32.04342 65.593,-21.78916 90.21674,-40.14846 25.6381,-1.63669 55.60902,-58.06594 46.15818,-52.01956 -12.67665,21.74761 -49.15132,57.97988 -24.03515,13.84766 -2.9231,-15.16116 21.37877,-46.59144 21.61132,-52.31059 -10.08688,13.16366 -20.36921,12.51659 -0.041,-0.45507 -0.44072,-1.41638 -3.9167,0.36411 -12.52538,7.05859 -12.7289,44.17892 -28.88409,101.45037 -85.77729,91.7657 -22.17702,6.71133 -92.87554,36.92905 -51.0742,-9.89455 -20.7801,12.16859 -65.36465,65.58499 -79.79097,102.78132 -11.3285,23.32374 -15.35385,89.09024 -27.07811,32.66214 -2.36882,-54.10936 48.33402,-87.00441 67.16794,-132.69931 -22.27093,24.97619 -45.84255,72.34997 -68.21676,83.01959 29.83808,-33.03444 43.46096,-71.01351 53.70505,-113.92587 19.31863,-31.92913 36.44823,-69.49737 54.0488,-87.41412 -15.76855,-18.98796 -27.22747,46.1915 -39.60155,1.90039 -27.17798,11.86449 24.8284,20.57801 4.24609,49.51567 -18.22505,33.93546 -2.8355,-17.19709 -20.95115,-22.74807 -2.81997,-24.29888 -29.13979,4.68065 -2.30274,11.57032 5.53882,45.20004 -10.29621,98.19764 -37.20701,136.0958 -33.13704,25.44558 -1.37981,-50.39187 -3.89063,-67.65825 7.46957,-50.13802 -8.84659,-113.20056 32.50584,-151.09776 22.00561,-22.09727 25.55688,-53.19692 53.09568,-34.87307 10.6818,-8.42429 27.9808,-45.33248 16.52538,-14.45704 18.19874,8.83084 21.55014,-12.38247 46.29685,2.29883 1.83615,-28.3881 24.74107,-3.18453 40.1328,-10.97462 -0.18289,4.10473 5.10731,0.37868 2.12108,-1.32617 2.72899,-2.06924 5.14653,-5.43896 7.07226,-10.65431 -2.84176,10.62859 -11.17092,53.10402 9.23047,24.53518 -11.02888,44.01952 29.72361,-14.924 4.48242,-25.95706 18.59587,7.56409 12.65317,32.03171 22.31053,11.15626 4.53547,22.00012 9.57776,20.96602 15.14648,14.40626 -0.94773,1.06351 -6.81557,1.65553 -3.18555,-1.44921 2.97934,0.36887 3.60327,0.94458 3.20508,1.42773 6.33036,-7.46947 13.34131,-22.05314 21.06053,-18.06057 13.56556,-15.82523 -30.76923,-26.96643 0.79297,-38.68947 8.69872,-11.92646 16.35191,-19.73162 23.25195,-25.95314 -3.37763,-1.8811 -6.78759,-3.70872 -10.22657,-5.48438 l -150.12686,0 c -2.29681,0.52776 -5.84566,0.79532 -6.89453,0 l -40.49998,0 c -1.28543,1.84941 -3.81771,1.76097 -3.40625,0 l -24.1074,0 c -0.44049,0.81244 -6.92228,1.93194 -3.48438,0 l -7.22851,0 c -1.66211,3.82716 -13.86436,1.86921 -19.74804,0 l -17.71874,0 c 6.19838,5.09989 -41.97928,-5.91235 -26.01951,18.51759 -2.58407,-3.23187 -24.78714,-12.83593 -22.01171,13.54688 -30.41001,13.80511 -1.79362,15.91055 13.93554,22.23048 -26.9189,24.32096 -43.53011,-44.82267 -57.54293,-6.89844 3.27076,-23.24048 -35.85616,-56.62689 -22.3203,-12.82032 13.56267,12.40228 17.84547,43.55321 6.44335,22.19338 -0.44253,1.24562 -4.83896,1.4804 -1.83007,-1.72657 0.59324,0.23323 0.98851,0.46059 1.28711,0.68359 -0.93232,-1.80415 -1.95245,-3.89644 -3.08203,-6.39453 -18.75471,-15.29511 -26.78811,-50.07138 -33.9785,-41.75003 -9.12452,-7.88246 -13.98387,-4.92266 -17.09765,0.34961 0.0355,-0.0391 0.0521,-0.069 0.0899,-0.10937 4.69683,1.84636 -0.80793,3.57363 -1.02344,1.89843 -3.57883,7.34331 -4.69528,17.01448 -8.73633,10.584 8.53607,-14.59728 -26.4448,0.26495 -1.2832,-10.959 -17.79214,-9.92477 -68.18045,-6.01467 -21.58788,-8.21875 32.76483,-1.27808 65.62858,-0.9943 98.45893,-1.12695 l -118.67766,0 z m 51.82614,9.7207 c 0.29808,-0.6116 0.59792,-1.2207 0.93359,-1.78906 -0.73462,0.81186 -0.98417,1.39575 -0.93359,1.78906 z m 55.09177,46.00589 c 0.18509,0.35816 0.3655,0.71055 0.54296,1.04298 0.10659,-0.2999 -0.0292,-0.65936 -0.54296,-1.04298 z m 391.49978,-50.24221 c 45.09247,25.11336 84.67917,59.59895 116.11711,104.85944 -20.54737,-70.77553 -13.49638,-91.43112 -71.41792,-110.34382 l -38.39842,0 c -2.02963,1.71953 -4.1274,3.52471 -6.30077,5.48438 z m -44.79686,197.63881 c 0.0391,0.12521 0.0482,0.28103 0.041,0.45507 0.25452,-0.33213 0.50999,-0.6307 0.76367,-0.98046 -0.2957,0.18579 -0.52101,0.34438 -0.80469,0.52539 z M 599.78727,690.17497 c 4.27905,4.65004 9.14872,6.34279 14.22851,6.08009 -4.77871,-2.1056 -9.52668,-4.19083 -14.22851,-6.08009 z m 14.22851,6.08009 c 22.14945,9.7595 44.9913,19.72534 67.33395,10.3047 -26.47527,-18.07009 56.69663,-59.59671 5.34961,-33.91214 -8.10352,18.88298 -43.98985,46.83596 -53.80857,21.13674 11.66169,-1.92584 16.10808,-5.9365 19.20312,-10.37697 -0.21743,-0.3531 -0.12162,-1.07741 0.74414,-2.35351 0.2114,0.13598 0.38119,0.2714 0.52343,0.40625 1.57836,-2.532 3.01072,-5.11688 5.28711,-7.48244 2.55942,-7.1196 1.98256,-8.42449 -0.67969,-6.67578 2.42237,1.53645 -1.48054,2.73863 -2.03906,1.55274 -8.08462,6.79467 -26.00847,26.57784 -41.91404,27.40041 z m 41.91404,-27.40041 c 0.77927,-0.65493 1.45344,-1.16805 2.03906,-1.55274 -0.28029,-0.17775 -0.61593,-0.3598 -1.08203,-0.54297 -0.96615,1.03115 -1.14598,1.69453 -0.95703,2.09571 z m -2.56836,12.60548 c -0.40746,0.65365 -0.82108,1.30665 -1.26757,1.94726 0.51355,0.83401 2.82501,-0.47065 1.26757,-1.94726 z m -216.86706,46.2012 c -0.009,0.32491 -0.0301,0.59178 -0.0371,0.92773 0.52547,0.0846 0.47065,-0.3 0.0371,-0.92773 z m 7.81054,33.78517 c 2.34097,-3.46712 4.7795,-7.777 6.94726,-12.54687 -2.71969,3.74286 -5.1679,8.03735 -6.94726,12.54687 z M 293.42807,946.52477 c -1.42776,0.57977 -3.2361,4.10858 -5.56445,12.15234 2.80801,-4.15936 4.59312,-8.22566 5.56445,-12.15234 z m -27.416,-197.63295 c -0.83504,-1.82954 -1.8187,-3.63698 -2.95508,-5.42189 0.87175,1.84759 1.86239,3.65994 2.95508,5.42189 z m -2.95508,-5.42189 c -10.44741,-22.14246 -5.57118,-48.35294 1.65234,-28.75002 -0.0303,-24.31929 33.79805,-37.45582 1.83008,-45.59573 -22.74864,-22.52439 -5.29402,-55.86451 9.95313,-64.58013 -6.52612,-30.15419 -31.6404,45.3341 -28.21093,-1.48047 -0.80431,-21.03197 68.10773,-52.6144 29.72654,-52.75003 -15.88322,27.54272 -26.23808,31.43863 -30.49607,12.96094 -4.61644,49.62476 -1.16283,-19.20707 -14.96483,-24.07814 0.51955,-0.17237 0.79298,-0.89672 -0.0547,-2.55468 -1.77492,0.84353 -1.60464,1.81493 -1.00977,2.29882 -0.73911,-0.0787 -1.52243,0.0165 -2.35547,0.3086 0.48972,-2.16125 0.73991,-4.10219 0.81055,-5.86329 1.8215,-0.0665 3.88338,-0.69212 1.82227,-2.03906 -0.73082,0.17654 -1.31876,0.34067 -1.82227,0.49609 -0.58633,-22.75035 -35.66672,-9.22384 -9.22069,6.44923 23.58847,26.96801 22.1403,73.99627 25.63474,89.16412 3.78886,16.25322 36.11871,86.4702 6.03711,39.85159 -2.14002,-1.66641 -4.00241,-3.51388 -5.67578,-5.48048 3.51725,7.48121 6.07316,15.10919 7.32031,21.84573 11.33207,19.05769 -23.87249,63.32505 0.92578,50.04104 3.2962,3.1526 5.9685,6.41163 8.09765,9.75587 z m -16.34374,-81.64264 c -2.35961,-5.01891 -5.15303,-9.96568 -8.29882,-14.53516 1.99938,5.31415 4.64826,10.24493 8.29882,14.53516 z m -8.29882,-14.53516 c -8.99988,-23.92068 -5.23679,-55.39547 -24.32616,-69.12505 16.89837,20.75284 5.59299,56.10507 -19.11132,27.80275 1.91382,-4.00977 2.83424,-13.48333 2.90625,-22.27149 0.0872,-0.18811 0.10981,-0.50444 0.01,-1.00196 0.009,-12.15169 -1.6356,-22.50823 -4.64063,-14.40626 -1.39277,-4.60708 -17.83623,-31.23794 -14.08202,-6.82422 14.84329,16.01635 12.44776,67.58095 -14.71093,34.05862 -11.04392,13.45406 -10.57258,18.42381 -5.07812,19.68946 0.17245,-0.25887 0.41543,-0.54743 0.83398,-0.90234 2.09758,0.39828 2.77047,0.86246 2.72266,1.25976 13.71402,0.0722 41.54718,-10.28225 38.31248,2.17969 -22.36801,-5.49189 -43.93022,28.41168 -19.87694,22.5801 20.14059,-27.38078 42.35465,-14.37183 57.04098,6.96094 z M 162.93791,615.5714 c -1.33729,-0.007 -2.52822,-0.121 -3.55469,-0.35742 -1.27922,1.92039 3.43451,1.356 3.55469,0.35742 z m 30.68553,-128.58016 c -0.19441,-0.31939 -0.39296,-0.62994 -0.6211,-0.89649 -0.25545,0.55326 0.0595,0.8112 0.6211,0.89649 z m -74.00778,155.82823 c 0.12643,1.70265 0.27681,3.36355 0.42969,5.00977 0.0183,-1.60727 -0.13412,-3.2805 -0.42969,-5.00977 z m 119.21088,106.19149 c 0.0871,-0.15217 0.19285,-0.33538 0.2793,-0.48633 0.003,-0.2974 -0.11205,-0.0222 -0.2793,0.48633 z M 41.21923,687.62419 c -0.13537,-0.35873 -0.237254,-0.7045 -0.333984,-1.04492 -0.10771,0.5092 0.04204,0.84218 0.333984,1.04492 z M 64.605936,467.34865 c -2.177648,-3.76955 -3.93738,-3.98233 -4.425779,1.90039 0.1833,0.62351 0.223931,0.72424 0.394531,1.30078 1.340788,-1.06855 2.67498,-2.13932 4.031248,-3.20117 z m -4.031248,3.20117 c -0.54767,0.43646 -1.091668,0.87494 -1.636718,1.3125 5.619534,9.45754 8.15105,20.70307 1.636718,-1.3125 z m -1.636718,1.3125 c -2.706426,-4.55484 -6.095893,-8.57376 -9.476557,-8.03907 0.164999,-1.25147 0.235123,-2.68384 0.126953,-4.36719 -3.024036,3.53777 -4.223518,6.22585 -4.462888,7.97657 -0.64294,1.04153 -1.27383,2.31526 -1.886718,3.88477 -10.749228,-21.8325 -23.567539,1.90724 -24.023424,-7.71681 -10.1178882,-38.54129 -2.286272,17.26619 -2.123046,35.50003 -0.187581,-0.31913 -0.426529,-0.67837 -0.783202,-1.12695 -1.621398,1.1112 -0.03898,2.53664 0.773436,2.56445 -0.110323,6.11094 -1.430286,6.25669 -5.412106,-7.01172 -0.984508,8.02397 -1.9372729,16.05012 -2.9062479,24.07618 C 23.838076,501.8269 40.65763,486.53769 58.93797,471.86232 Z M 8.7641701,517.60258 c -2.9538276,3.09136 -5.8318638,6.205 -8.65038583,9.33205 -0.82391808,80.88826 2.90486123,38.30132 8.65038583,-9.33205 z M 78.756318,456.61622 c 1.401218,-1.03348 2.799232,-2.06938 4.214842,-3.09571 -0.3166,-0.55988 -0.724344,-1.15244 -1.246094,-1.77734 -1.742488,2.02904 -2.629808,3.63782 -2.968748,4.87305 z m 16.044913,-11.4629 c 0.4509,-0.31196 0.905222,-0.62234 1.357421,-0.9336 -0.563988,-3.59663 -1.596464,-8.31876 -3.277342,-13.47657 l 0.619141,6.07813 c 0.469758,3.50905 0.90478,6.21296 1.30078,8.33204 z m 29.902319,-19.56251 c 0.41716,-0.25818 0.83583,-0.51584 1.25391,-0.77344 -0.4364,-1.33205 -1.06365,-2.77894 -1.95898,-4.21876 0.22085,2.02072 0.46091,3.65354 0.70507,4.9922 z m 13.48046,-8.14845 c 0.27722,-0.16354 0.55054,-0.33087 0.82813,-0.49414 -0.29862,-0.24095 -0.63747,-0.46556 -1.0625,-0.64258 0.0734,0.42393 0.15363,0.78685 0.23437,1.13672 z m 9.31055,-5.40039 c 1.68534,-0.96228 3.3666,-1.93032 5.06444,-2.88281 -0.24635,-0.75367 -0.67201,-1.60495 -1.33788,-2.56251 -3.11283,2.42503 -3.96717,4.26354 -3.72656,5.44532 z m 10.08202,-5.65626 c 11.31742,-6.23997 22.89308,-12.26481 34.70897,-18.04884 4.32852,-3.08309 8.57464,-5.76556 12.40625,-7.39063 21.05018,-19.04778 -10.50293,6.60766 -1.32227,-10.5918 -24.37815,-2.38407 9.66548,16.16704 -17.97851,14.0293 -26.75693,18.67845 -6.51881,-9.10375 -14.3789,-14.54297 -26.40362,1.14056 3.60626,24.85136 -12.62694,27.75392 -0.88935,4.02984 -1.11571,6.8794 -0.8086,8.79102 z m 685.24376,-54.02347 c -9.61404,7.48151 10.02803,4.10943 2.38086,0 l -2.38086,0 z m -771.239799,0.0977 c 2.038918,6.96149 14.657094,3.01667 0,0 z m 366.880649,0.0508 c -6.5941,2.33388 5.41686,4.46817 0,0 z m -10.99609,0.24804 c -6.19363,0.86887 2.2698,2.40551 0,0 z m -160.98037,0.12305 c -4.43057,3.86888 10.06046,0.83199 0,0 z m -66.24801,0.28125 c -6.84061,3.30768 6.14466,0.90104 0,0 z m 6.73046,0.28711 c -5.27824,1.8862 7.31478,0.42379 0,0 z m 290.18148,0.0879 c 3.50614,2.25514 -3.09727,4.56548 0,0 z m 7.25195,0.1211 c 6.01843,-0.11028 -2.03261,3.29123 0,0 z m 70.88082,0.0371 c 1.69432,10.80922 -16.9813,6.29695 0,0 z m -460.15208,0.11133 c -19.178017,15.13815 23.72839,5.23088 0,0 z m 425.94116,0.17969 c 7.98824,1.61046 -5.54711,4.29951 0,0 z m -187.92959,0.043 c -6.18719,0.87087 2.27178,2.40404 0,0 z m 18.61914,0.10351 c -4.17457,1.98929 2.40997,4.70889 0,0 z m -117.74603,0.72852 c -5.12002,5.57163 7.02804,2.48228 0,0 z m 175.92764,0.008 c -6.74523,0.18856 1.11358,3.1605 1.55078,0 -0.58601,-0.0148 -1.10108,-0.0127 -1.55078,0 z m -278.25766,0.006 c 3.40313,5.15797 -5.60215,6.36925 0,0 z m 215.03504,0.0293 c -16.34671,7.94865 6.65748,9.84725 0,0 z m -190.89834,0.42578 c 3.9233,4.61174 -5.47798,2.02946 0,0 z m -132.507731,0.11523 c -7.308842,4.70268 10.646808,1.09956 0,0 z m 74.046831,0.0449 c 2.47311,-0.15997 3.61177,6.59923 -2.6914,3.10351 0.89482,-2.22648 1.86704,-3.05018 2.6914,-3.10351 z m 392.7322,0.084 c 6.01844,-0.11027 -2.0326,3.29122 0,0 z m -375.76542,0.42383 c -15.74608,3.54374 16.89373,0.41255 0,0 z m 125.30267,0.54297 c -2.03254,3.29121 6.01846,-0.1104 0,0 z m -56.87887,0.0898 c -2.03262,3.29121 6.01842,-0.1104 0,0 z m 5.74413,0.51172 c 1.63893,8.39615 12.42857,4.02897 0,0 z m -150.415924,0.19141 c -6.357604,1.92839 8.81828,0.40996 0,0 z m 526.650094,0.006 c 15.74139,9.111 -0.93283,7.4051 0,0 z m -384.99002,0.96289 c -19.46043,2.62068 5.39522,12.95914 0,0 z m 223.69909,0.34375 c -5.62011,5.01506 2.42747,8.80453 0,0 z m -158.54483,0.10156 c 5.85283,2.30077 -4.15442,4.42791 0,0 z m 165.38858,0.14258 c -5.19964,12.65701 8.50903,21.08329 0,0 z m -16.79101,0.18112 c -10.7723,2.05933 4.11066,2.14408 0,0 z m -206.61317,1.30469 c -4.15437,4.42789 5.8528,2.30078 0,0 z m -105.60736,0.35937 c -4.154367,4.42791 5.85283,2.30078 0,0 z m -25.595681,1 c -4.154376,4.4279 5.852822,2.30073 0,0 z m 10.982416,0.51953 c -2.841038,6.90932 14.351885,7.70591 0,0 z m 627.136365,0.17188 c 3.08262,2.46369 -2.52529,5.7953 0,0 z m -653.214476,0.10742 c -7.307992,4.70212 10.646608,1.09347 0,0 z m 416.294686,0.88086 c 5.85281,2.30079 -4.15439,4.42786 0,0 z m 232.71276,0.0195 c 6.57997,10.41982 -9.76714,10.23484 0,0 z m -145.40617,0.23047 c 9.62902,9.80243 -3.40391,12.35244 0,0 z m 152.8339,0.2207 c 6.31294,2.11164 -2.56988,4.72304 0,0 z m -687.257425,0.23047 c -2.750174,1.8848 3.742016,4.70636 0,0 z m 692.835555,0.78128 c 4.33133,2.25328 2.46743,7.84806 0,0 z m -229.4491,0.0293 c 3.74202,4.70634 -2.75017,1.8848 0,0 z m -112.98821,1.28907 c 8.639,3.20069 -7.78337,6.59011 0,0 z m 375.29666,0.12305 c 6.01842,-0.11027 -2.03256,3.29121 0,0 z m -614.38638,0.10742 c -2.80957,4.00507 6.14383,0.95813 0,0 z m 424.0857,0.27734 c -2.17036,2.06653 1.8521,4.62554 0,0 z m -412.865,0.23633 c -3.09725,4.56549 3.50614,2.25516 0,0 z m 419.8025,0.16797 c 5.58787,1.74254 1.88668,4.45783 0,0 z m 195.48036,1.35156 c 3.60383,11.26276 20.14894,2.95723 0,0 z m -400.37673,0.13086 c -5.57462,13.4799 12.78331,15.24204 0,0 z m 120.46869,0.29883 c 4.66682,2.0457 -0.57219,8.06743 0,0 z m -353.74394,0.52734 c -9.75902,5.12337 3.84792,8.10158 0,0 z m 448.24583,0.5625 c 6.10932,4.40572 -4.13606,5.63682 0,0 z m 143.67375,0.8711 c 3.50631,2.25109 -3.09742,4.56353 0,0 z m 23.6328,0.67187 c 7.98823,1.61048 -5.54716,4.29949 0,0 z m -702.3414,0.59766 c -1.735778,11.96331 20.588846,10.07936 0,0 z m 685.75157,0.0586 c 8.55562,18.60931 -4.40107,13.19365 0,0 z m -384.99978,0.18555 c 4.21651,5.99855 -2.42877,2.62804 0,0 z m -253.267442,0.0918 c -2.750176,1.88479 3.742016,4.70634 0,0 z m 287.919762,0.19532 c 8.57407,7.90103 -3.1692,8.8246 0,0 z m -90.18354,0.32031 c 5.4566,6.04665 -6.86374,1.134 0,0 z m 268.50961,0.0645 c 6.7008,4.51032 -5.58065,5.86983 0,0 z M 39.682122,373.1924 c 3.914416,30.29883 19.403028,19.63681 0,0 z m 48.294894,0.25781 c -2.750178,1.8848 3.742018,4.70635 0,0 z m 14.660144,0.4082 c -13.966373,6.48033 20.4178,1.92693 0,0 z m 381.69705,0.59961 c 6.01844,-0.11041 -2.03261,3.29117 0,0 z m -6.62304,0.1875 c 4.15812,4.18726 -3.19145,10.36908 0,0 z m -394.18923,0.33203 c -18.589048,5.44797 2.419208,7.47527 0,0 z m 336.37091,0.66211 c 5.95551,22.2137 31.9167,13.97009 0,0 z m -21.60155,0.43946 c 0.78674,3.84018 8.37622,1.75312 0,0 z m 183.61512,0.46875 c -0.69474,12.09979 -17.48828,4.84045 0,0 z m -253.65219,0.45117 c 6.13705,0.89707 -6.84059,3.30617 0,0 z m 25.72068,0.70312 c 5.4566,6.04665 -6.86376,1.13395 0,0 z m 338.95684,0.1836 c 4.58013,0.97444 -0.59008,6.30252 0,0 z m -8.27343,0.20312 c 3.74203,4.70635 -2.75018,1.88481 0,0 z m 24.54686,0.29492 c 5.75674,18.22027 -1.60996,21.726 0,0 z m 7.66992,1.15821 c 5.1823,1.45996 4.3539,6.96017 0,0 z m -618.458636,0.61914 c -2.750176,1.8848 3.742006,4.70635 0,0 z m 623.739886,0.14845 c 4.83928,9.85362 1.80284,18.82987 0,0 z m -236.3612,1.125 c 0.90012,4.06374 -6.89384,0.83049 0,0 z m -112.85541,0.004 c -4.17445,1.98456 2.40958,4.70761 0,0 z m -350.173625,0.19141 c -2.750172,1.8848 3.74202,4.70632 0,0 z m 533.960635,0.27148 c 3.50617,2.25515 -3.09723,4.5655 0,0 z m -107.39642,0.23828 c 19.44229,2.09132 20.89685,13.70017 0,0 z m -380.513459,0.17969 c -7.308242,6.05802 10.618768,1.93053 0,0 z m 19.548817,0.48242 c -22.530626,18.01081 -6.639324,26.72253 0,0 z m 298.234202,0.14649 c 5.95578,0.62452 -3.19262,4.90627 0,0 z m -360.505652,0.75586 c 14.757493,23.78152 13.012595,9.92544 0,0 z m 668.749622,1.65429 c 28.80259,-0.004 3.40649,34.54633 1.4668,24.32229 -17.12205,-10.95805 27.68869,-14.22875 -8.29687,-15.74221 -6.12502,-2.89295 2.63132,-8.18595 6.19335,-8.57031 0.23748,-0.0256 0.45138,-0.03 0.63672,-0.01 z m -649.380491,0.11524 c 6.025852,4.7297 0.593048,5.58162 0,0 z m 75.458941,0.23633 c -1.69447,5.25033 5.357,14.9 0,0 z m -84.837843,0.64843 c 13.906384,21.64864 9.826948,12.92169 0,0 z m 167.445223,0.52735 c 11.19622,2.18265 -9.2831,3.96292 0,0 z m 560.00358,0.20117 c -6.06489,3.7026 2.22937,6.68828 0,0 z m -741.325748,0.11914 c -2.750175,1.88482 3.74202,4.70634 0,0 z m 423.751708,0.59961 c 3.50338,3.33007 -3.83583,8.39343 0,0 z m 103.59369,0.11328 c 1.89905,13.42225 -10.62336,12.52493 0,0 z m -62.64058,0.26953 c 4.27709,4.54565 -4.69311,8.23493 0,0 z m -274.68344,0.25391 c 5.85274,2.3065 -4.15531,4.42855 0,0 z m 28.06249,0.11914 c -2.81445,4.67196 -9.68896,3.41982 0,0 z m 110.92375,0.0723 c 5.85903,1.24155 5.57462,21.69651 0,0 z m 143.21867,0.4375 c 12.82231,3.45995 -3.30689,23.14 0,0 z m -466.30637,0.23612 c -4.155306,4.42855 5.852724,2.30651 0,0 z m 78.27534,0.0801 c -2.81121,4.00178 6.13719,0.95579 0,0 z m 363.93926,0.49609 c 9.06824,3.79825 -5.3692,3.70159 0,0 z m -410.099383,0.1504 c -7.424013,1.95323 10.258968,-0.0625 0,0 z m 84.122993,0.68359 c -9.35796,11.36982 12.69852,4.43184 0,0 z m 532.63056,0.0879 c 4.63331,9.01525 -2.19708,3.23516 0,0 z m 23.64843,0.23242 c -6.59414,2.33385 5.41688,4.46818 0,0 z m -222.41199,0.96094 c 7.30142,15.17785 1.04548,25.86883 0,0 z m -59.92379,0.86719 c -5.25721,7.17802 -8.51652,0.91181 0,0 z m -59.13864,0.10742 c 4.15938,6.16635 0.0616,13.22733 0,0 z m -250.09751,0.33789 c 3.67025,7.74178 5.60229,0.33827 0,0 z m 89.45307,0.51758 c 6.76087,18.46384 -13.12921,8.62769 0,0 z m 361.81035,0.19531 c 6.27407,0.30163 -6.65246,5.12197 -1.52149,0.004 0.59999,-0.0244 1.10321,-0.024 1.52149,-0.004 z m 165.34951,0.33595 c 29.00398,15.02484 -2.41556,22.05028 0,0 z m -378.27713,0.53515 c 1.94664,4.57834 -5.99128,5.84857 0,0 z m 224.828,0.3125 c 0.33328,-0.0256 0.72008,-0.0253 1.16797,0.008 1.04543,6.75342 -6.16695,0.37624 -1.16797,-0.008 z m -178.9667,0.83789 c 3.74202,4.70634 -2.75019,1.88481 0,0 z m 173.0292,0.006 c 2.50525,4.50651 -5.42109,5.47154 0,0 z m 151.64054,0.0293 c 5.23789,5.22074 -1.66092,8.53648 0,0 z m -529.91963,0.64063 c 7.94787,1.3306 -2.90179,5.99748 0,0 z m 273.97055,0.36328 c 8.81828,0.41004 -6.35761,1.92802 0,0 z m -215.99597,0.11115 c 3.50616,2.25516 -3.09722,4.56549 0,0 z m 437.38257,0.15821 c 13.81127,18.99837 -10.99099,9.11985 0,0 z m -346.56621,0.31836 c 5.85281,2.30079 -4.15442,4.42789 0,0 z m 135.56633,0.74609 c 5.85271,2.30651 -4.15532,4.42855 0,0 z m -308.61506,0.11133 c 7.69291,3.35065 -3.07631,5.32437 0,0 z m -55.15427,0.57812 c -0.93063,-0.005 -2.01571,0.0111 -3.27344,0.0547 -3.62754,5.09707 17.23299,0.0197 3.27344,-0.0547 z m 264.4979,0.39063 c 16.68556,17.86509 -9.39535,16.06133 0,0 z m 32.46287,0.0156 c 10.38362,4.48028 -6.70163,10.31311 0,0 z m -366.134555,0.4336 c -2.573158,4.71995 6.309502,2.11645 0,0 z m 139.308515,0.16211 c 11.64553,0.38863 -20.33673,28.54514 -6.17188,4.04297 l 4.90625,-3.99219 c 0.46946,-0.048 0.88997,-0.0633 1.26563,-0.0508 z m 375.26737,0.14843 c 4.64989,1.22536 -1.91037,6.08329 0,0 z m -33.65037,0.76954 c 4.12863,1.36399 -1.37913,4.97972 0,0 z m 25.58982,0.31445 c 3.50618,2.25516 -3.09726,4.5655 0,0 z m -497.79659,0.10742 c -3.097246,4.56549 3.506156,2.25517 0,0 z m 187.01552,0.11328 c 3.29672,3.13675 -2.31354,7.03015 0,0 z m 162.47452,0.55469 c 3.35696,3.81945 -7.74322,2.34618 0,0 z m -311.822093,0.0293 c -18.140638,7.20147 -8.612658,16.57046 0,0 z m 21.388653,0.30468 c -4.15438,4.4279 5.85287,2.30073 0,0 z m 552.53094,0.0937 c 7.98824,1.61049 -5.54714,4.29948 0,0 z m -412.98219,0.0743 c 5.85285,2.30075 -4.15442,4.4279 0,0 z m 252.16588,0.73438 c 15.48261,12.05051 -12.70237,2.32011 0,0 z m -26.60154,0.54101 c 7.9815,1.61939 -5.54919,4.29772 0,0 z m -128.60931,0.24414 c 3.82384,1.30254 1.08639,5.89654 0,0 z m 70.90426,0.73829 c 6.81652,17.87983 -19.12455,13.45475 0,0 z m -78.30465,0.13867 c 4.27675,7.49792 -2.30525,2.92422 0,0 z m 307.39241,0.28711 c 6.97352,8.65851 -6.83592,1.04711 0,0 z m -101.09369,1.57422 c 11.97012,3.99152 -9.71599,11.64904 0,0 z m 173.61709,0.41015 c 18.23481,2.95048 1.1073,18.02869 0,0 z m -474.79661,0.23047 c 3.29757,3.13512 -2.31483,7.02432 0,0 z m 110.87688,0.18555 c 6.0317,2.41314 -5.18965,3.82601 0,0 z m -9.95702,0.16015 c 7.36227,1.37258 -4.25515,5.05135 0,0 z m -218.29675,0.14063 c -2.75018,1.88481 3.74202,4.70633 0,0 z m 128.55657,0.17578 c 5.11241,3.48658 -7.60852,6.97953 0,0 z m -64.02536,1.03321 c 5.89167,0.78896 -1.3774,4.77104 0,0 z m 143.4921,0.29688 c 6.89063,17.88232 -1.4613,16.98505 0,0 z m -135.84757,0.43945 c 11.19176,5.56301 -2.34948,5.92867 0,0 z m 322.20685,0.13281 c 6.14297,0.95288 -2.80839,4.00372 0,0 z m 19.43163,0.17969 c 5.00658,0.98305 -4.00185,4.52345 0,0 z m -49.19919,0.0605 c 6.14298,0.95291 -2.80841,4.00374 0,0 z m -127.66204,0.25 c 3.50617,2.25515 -3.09722,4.56551 0,0 z m 38.39842,0.2832 c 6.99966,4.96592 -8.93158,4.40842 0,0 z m 67.63277,0.13867 c 17.87191,3.87591 -18.07766,7.32572 0,0 z m -111.33978,0.35742 c 3.50631,2.25106 -3.09742,4.56353 0,0 z m -237.79479,0.0645 c -8.29189,16.12435 5.68713,19.78139 0,0 z m 543.57587,1.91797 c 6.10821,4.41205 -4.13562,5.6366 0,0 z m -185.93154,0.39453 c 2.82886,4.73967 -5.65665,7.09547 0,0 z m -57.23629,0.13476 c 13.66777,9.20737 33.21821,1.32618 48.207,12.62697 21.5037,-8.68956 -3.60811,14.40407 3.94336,24.21094 -29.17189,2.41076 24.29516,6.04061 14.69335,10.29884 -10.66271,30.72954 -5.72929,82.79105 -24.08202,119.00986 -17.4907,21.84866 0.91245,-39.1232 -19.40038,-35.59964 14.65046,-4.17788 11.10738,-24.70442 5.2539,-33.33791 -2.93791,9.41973 -17.73344,1.70292 -0.14257,-0.21094 -4.37141,-6.2638 -9.93759,-5.85454 -10.20898,12.84962 2.52115,19.0763 -2.43471,78.4624 -24.5996,35.45119 -14.99052,-47.61952 60.37431,-88.24528 39.47264,-128.06454 -9.66044,2.58449 -15.66561,25.22964 -21.39648,38.96292 -0.0212,-0.41853 -0.78829,-1.06268 -3.02539,-1.81836 -0.51555,2.29354 2.34636,2.67843 2.92188,2.06836 -3.25797,7.75073 -6.43399,12.54882 -10.14843,9.08399 1.31314,0.0109 3.10413,-1.01284 0.85937,-2.75782 -1.05913,0.71795 -1.59289,1.27776 -1.80663,1.70703 -1.81402,-2.32972 -3.76081,-6.62665 -5.91016,-13.48829 6.58023,-17.97182 5.36508,-31.34794 5.36914,-50.99222 z m 28.47264,96.99812 c 0.0475,0.0682 0.0953,0.1413 0.14257,0.21094 0.0256,-0.082 0.0563,-0.15557 0.0801,-0.24024 -0.0834,0.008 -0.14071,0.0204 -0.22265,0.0293 z m 134.97257,-96.93562 c 0.32977,12.49662 -17.54301,16.51523 -3.416,2.93164 l 3.416,-2.93164 z m -401.72047,0.89844 c -5.90361,19.96137 -28.27451,44.79128 -8.10547,10.6797 l 5.98828,-8.24025 2.11719,-2.43945 z m 301.22639,0.19336 c 4.44735,5.39941 -6.43995,6.31757 0,0 z M 20.05518,415.249 c -5.327831,18.61365 1.677679,10.87536 0,0 z m 127.29876,0.18359 c 5.77733,9.2316 -5.37919,2.53319 0,0 z m -58.765596,0.12305 c -2.759926,7.72508 3.483168,3.26097 0,0 z m 468.445046,0.29102 c 7.92654,2.83101 -3.68316,3.12821 0,0 z m -398.12282,0.0234 c 6.92476,8.48542 -7.37018,1.335 0,0 z m 86.23823,0.27149 c 6.20647,3.86248 0.93409,8.71988 0,0 z m -152.218661,0.14062 c -2.525278,5.79533 3.082635,2.46369 0,0 z m -17.152334,0.10742 c -6.672194,8.98721 12.423986,2.85592 0,0 z m 662.105095,0.32618 c 3.019,19.11276 -12.43405,16.15366 0,0 z m -388.07596,0.0566 c 2.49769,4.50746 -5.42036,5.47192 0,0 z m 53.35544,0.625 c 3.42944,8.9295 -7.05017,3.09594 0,0 z m -297.99202,0.52148 c -3.45898,7.31408 6.88392,4.11125 0,0 z m 282.23812,0.53516 c 20.46047,31.11158 28.65556,119.31539 -21.25388,116.65242 -11.97102,-7.26862 18.21352,50.55584 12.41796,8.49806 46.24169,-3.89812 17.54372,-89.45376 32.40427,-87.94928 -6.32376,21.07767 -1.65944,46.99542 10.22265,43.5137 -20.17781,28.33984 -24.19999,82.08823 12.65234,79.85553 20.09689,-45.83291 7.68356,30.94789 30.75389,7.33398 8.07827,-12.57027 19.22724,-74.63631 17.0371,-27.74806 -11.86614,20.88555 2.77471,70.84899 -20.27929,102.65632 -11.01791,27.30846 -55.04761,45.95499 -65.3398,12.66407 -25.8328,-12.93992 -34.22428,19.34628 -5.06836,19.4551 -56.17582,9.39111 -47.47762,-88.40154 -29.74998,-99.65632 40.77525,-16.83297 -39.40564,-61.24073 -19.18163,-71.09966 -18.70575,-14.90976 -8.37499,-49.76929 9.13671,-44.87895 -0.41116,-31.06537 24.47711,-17.53895 18.11131,-43.92386 12.58841,-0.32955 30.49264,-4.16928 12.47266,-13.22657 l 5.66405,-2.14648 z m -148.98233,0.16211 c 10.61199,5.95493 -4.43457,8.52006 0,0 z m 131.2675,0.36523 c 6.10285,4.41697 -4.13757,5.63302 0,0 z m 176.61904,0.0312 c -1.31102,17.17287 -6.76091,8.00523 0,0 z m 236.32604,1.06445 c -16.74213,24.09453 16.18719,16.35392 0,0 z m -596.52505,0.16407 c 2.60281,13.59356 -13.17522,1.45283 0,0 z m 481.54661,0.17773 c 3.74202,4.70636 -2.75018,1.88481 0,0 z m 59.63277,0.13477 c 4.27673,7.49791 -2.30526,2.92421 0,0 z m -190.93153,0.24023 c -12.75632,30.53692 -16.69213,13.78311 0,0 z m 20.37889,0.0488 c 5.71672,5.70797 -3.46582,11.89414 0,0 z m -150.88077,0.24805 c 11.49311,18.37687 -8.4601,20.70668 0,0 z m -319.546695,0.20703 c -1.26746,13.78522 3.533296,6.9777 0,0 z m 264.954925,0.3789 c 4.12867,1.36398 -1.37911,4.97975 0,0 z m 307.10334,0.10743 c 3.74203,4.70637 -2.75019,1.88482 0,0 z m -105.60736,0.35546 c 3.74203,4.70636 -2.7502,1.88481 0,0 z m -289.02718,1.15822 c 7.88361,6.8363 -8.90162,6.30164 0,0 z m -12.42577,0.65625 c 4.05402,2.35288 -0.22902,7.28715 0,0 z m 194.35145,0.23828 c -13.475,2.71361 4.64336,2.91425 0,0 z m -368.031041,0.0391 c 1.422778,27.41536 9.628448,20.59041 0,0 z m 607.819971,0.25 c 20.10014,10.47571 -13.44085,9.14672 0,0 z m 129.65813,0.0527 c -8.94983,6.17748 -41.58979,68.5387 -5.14453,41.51565 -3.77883,22.21832 12.69516,26.39773 19.30663,3.27344 4.58237,28.60455 15.68773,-44.62918 -1.73242,-24.77737 -5.33213,-5.90328 -7.45872,-13.86287 -12.42968,-20.01172 z m -467.1345,0.32421 c 7.98122,1.61347 -5.54843,4.29721 0,0 z m 261.9061,0.2793 c 17.08347,2.04704 -18.46302,3.99587 0,0 z m -446.24194,0.46289 c 7.91285,5.86237 -8.36191,6.55963 0,0 z m -19.50389,0.0508 c 5.51734,13.70144 -5.90076,10.75897 0,0 z m 9.18749,0.0156 c 1.46477,6.72422 -8.90696,6.33838 0,0 z m 84.33003,0.043 c 3.74203,4.70633 -2.75019,1.88478 0,0 z m -59.53317,0.47851 c 3.74204,4.70632 -2.75015,1.88481 0,0 z m 543.23017,0.0352 c 4.67736,10.5395 -2.0699,3.47233 0,0 z m -448.58569,0.3457 c -1.92653,10.38703 -8.19794,5.50904 0,0 z m 278.63265,0.50391 c -0.38408,11.16236 -5.15171,12.59418 0,0 z m -350.03495,0.10742 c 7.03598,6.40905 -3.30434,8.50119 0,0 z m 486.91184,0.0234 c -5.63219,1.75787 2.30899,5.46424 0,0 z m -553.24189,0.0508 c 5.58842,3.62603 -2.34509,9.14078 0,0 z m -64.164019,0.54297 c -11.321738,18.71573 17.265201,21.77458 0,0 z m 171.128799,0.0137 c 6.30638,2.58184 -6.34868,4.12239 0,0 z m 165.31046,0.5 c -2.1671,2.06813 1.84747,4.63331 0,0 z m -350.759564,0.48633 c -2.428776,2.62803 4.216526,5.99856 0,0 z m 380.949004,0.26953 c -21.38058,3.42176 28.12124,1.00533 0,0 z m -383.521268,0.10745 c -1.503348,6.11194 5.687514,17.76066 0,0 z m 202.845588,1.32617 c 5.15744,0.96711 2.23311,7.20684 0,0 z m 490.82394,0.16406 c -2.17041,2.0665 1.85205,4.62554 0,0 z m -397.34158,0.0137 c 4.5803,3.56487 1.48068,9.74164 0,0 z m 113.70307,0.33007 c -0.85466,-0.10012 -0.7123,0.95555 2.92773,4.10743 0.9183,-1.94052 -1.82885,-3.97875 -2.92773,-4.10743 z m 181.85732,1.1836 c -34.47873,16.54829 9.31801,34.65104 0,0 z m -526.41377,0.46875 c 4.27674,7.49791 -2.30526,2.9242 0,0 z m 370.04472,0.3418 c 5.85273,2.30647 -4.15529,4.42861 0,0 z m 190.05653,0.28906 c 12.00487,7.91315 -5.89501,10.45995 0,0 z m -155.97061,0.27539 c 0.0274,2.86803 -7.99765,6.40836 0,0 z m 265.36704,0.15234 c -15.7698,17.96584 11.55009,8.70901 0,0 z m -312.48812,0.48438 c 4.41826,19.65602 2.92409,-8.91777 9.375,8.38282 -5.58291,9.38858 -15.53745,0.38191 -9.375,-8.38282 z m -223.96471,0.41018 c 5.26378,1.85972 1.8036,6.8033 0,0 z m -4.67187,0.0566 c 3.81907,1.3054 1.08528,5.89472 0,0 z m 172.2128,0.24219 c -3.52621,2.64889 4.10964,3.93195 0,0 z m -263.7401,0.22852 c 6.97681,0.33113 6.29002,7.88872 0,0 z m -18.51366,0.0957 c 8.26567,-0.12944 -9.12221,4.92445 -2.00977,0.0977 0.79394,-0.0591 1.45873,-0.0891 2.00977,-0.0977 z m 322.75177,0.0176 c -4.06158,8.94964 5.70056,8.5634 0,0 z m 151.19719,0.30664 c -9.84407,7.81754 7.31336,10.13256 0,0 z m 225.41979,0.13281 -0.98242,4.45704 0.98242,-4.45704 z m -506.32002,0.1875 c 4.98928,7.35736 -4.56192,14.3253 0,0 z m -116.71479,0.15625 c 1.07217,5.02609 -8.78545,3.12332 0,0 z m -143.460849,0.004 c 5.090285,4.86092 -5.749153,3.59127 0,0 z m -12.751946,0.28906 c -4.615836,34.77428 7.94631,8.55452 0,0 z m 444.542715,0.008 c 19.2135,4.92037 -7.13984,5.00972 0,0 z m 33.41014,0.31836 c 1.57914,11.45742 -9.23827,12.78594 0,0 z m -104.47064,0.70118 c -6.18723,0.87087 2.2718,2.40406 0,0 z m -105.1308,0.32618 c 5.85282,2.30081 -4.15437,4.4279 0,0 z m -173.26944,0.38476 c 6.77693,2.31442 2.26614,7.80401 0,0 z m 508.42354,0.0274 c -4.17458,1.98927 2.41001,4.70892 0,0 z m -467.61497,0.20507 c 11.27724,2.44104 2.72105,6.63019 0,0 z m 151.36125,0.1211 c 3.4762,3.26385 -2.75873,7.72279 0,0 z m 431.67944,0.14062 c -9.66484,22.00471 18.4966,8.97292 0,0 z m -327.75372,0.002 c -2.42777,8.13566 -2.21883,4.25501 -2.39258,2.95312 l 2.39258,-2.95312 z m 114.86907,0.0332 c 7.02804,2.48226 -5.12002,5.57163 0,0 z m -474.501681,0.76367 c -3.097226,4.56551 3.506156,2.25517 0,0 z m 249.382671,0.0547 c 5.01285,0.97803 -4.00086,4.52685 0,0 z m -199.51161,0.041 c -0.61267,6.77019 -10.21882,3.68609 0,0 z m 574.7282,0.8711 c -1.8126,0.22854 0.80753,4.25869 0,0 z m -460.98803,0.11718 c 9.07511,2.2151 1.04229,7.64645 0,0 z m 15.72265,1.34766 c 6.4346,3.45235 -2.17432,8.04184 0,0 z m -139.70305,0.006 c 3.50616,2.25515 -3.09722,4.56548 0,0 z m 81.10542,0.29883 c 3.74203,4.70635 -2.75019,1.88481 0,0 z m -32.38474,0.11719 c 5.82304,2.28783 -3.40694,5.73259 0,0 z m 639.47425,0.11132 c 19.0947,10.98011 -19.49787,4.42559 0,0 z m -646.10511,0.21485 c 5.85283,2.30078 -4.1544,4.42786 0,0 z m 321.08576,0.26953 c 4.892,18.37377 -2.13031,14.92187 0,0 z m 241.5233,0.2207 -0.47265,0.35938 0.47265,-0.35938 z m -234.69713,0.42774 c 6.3973,5.92228 -3.30414,14.94427 0,0 z m -479.630589,0.47461 c -2.750181,1.8848 3.742024,4.70635 0,0 z m 135.447179,0.64062 c 24.00316,5.21293 -0.23847,10.16473 0,0 z m 253.46666,0.38086 c 6.51815,1.79509 -3.52475,6.12456 0,0 z m -62.13082,0.10352 c -0.41193,5.94017 -3.44228,2.62816 0,0 z m 371.08768,0.0625 c -6.01448,12.75114 7.39405,10.5189 0,0 z m -590.14225,0.83398 c -1.77013,6.09013 -5.49666,0.19843 0,0 z m 571.19304,0.16992 c -2.17042,2.06652 1.85208,4.62556 0,0 z m -23.7578,0.26172 0.0606,0.61719 -0.0606,-0.61719 z m -568.40788,0.17188 c 7.9416,3.75089 -5.59562,6.33976 0,0 z m 283.14437,0.008 c -6.7308,1.79687 -1.18205,5.28228 0,0 z m 271.26938,0.42383 -0.75195,6.16798 0.75195,-6.16798 z m -510.48994,0.006 c 5.85282,2.30075 -4.15437,4.42791 0,0 z m -105.800727,0.94839 c -6.374042,6.88717 7.726502,4.39111 0,0 z m 505.499707,0.0449 c -0.0918,-0.0185 -0.17111,-0.009 -0.23828,0.0195 -1.16407,0.51149 1.227,7.63153 1.44336,0.95312 -0.53839,-0.62737 -0.92959,-0.91708 -1.20508,-0.97265 z m -35.02537,0.11523 c 0.21068,-0.004 0.42696,-6.4e-4 0.65039,0.0117 0.46132,0.0256 0.95054,0.0881 1.46876,0.18945 3.05384,16.85946 -33.41484,51.44811 -14.85546,12.85548 11.14292,20.01039 -0.53638,-12.78189 12.73631,-13.05665 z m -443.917711,0.41211 c 0.88211,12.61912 6.245994,2.07033 0,0 z m 458.847391,0.61719 c 9.35061,3.13589 -4.00859,6.60464 0,0 z m -123.61712,0.041 c 2.35324,8.1929 -3.67867,3.92136 0,0 z m -277.71077,0.0762 c -1.64899,6.29053 -9.60169,5.20331 0,0 z m 85.54292,0.45117 c 4.21652,5.99857 -2.42877,2.62804 0,0 z m -184.306539,0.97656 c -12.227241,6.71833 -4.037539,6.01664 0,0 z m 59.790983,0.26368 c 6.142974,0.95293 -2.808416,4.00375 0,0 z m 88.089786,0.14649 c 10.06046,0.83202 -4.43056,3.86886 0,0 z m -140.954991,0.20898 c -1.24209,22.13749 17.15228,16.75819 0,0 z m 10.365229,0.26172 c -5.134574,9.16121 11.359696,5.48257 0,0 z m 116.445242,0.1582 c 0.74465,6.70136 -3.47402,10.7576 -4.79883,10.04297 -1.41795,2.00244 -7.00269,1.55222 -1.59765,-3.69141 0.70402,0.53152 1.17724,1.02953 1.48242,1.49219 0.53764,-1.63711 1.97116,-4.18397 4.91406,-7.84375 z m -4.91406,7.84375 c -0.41109,1.25169 -0.30397,1.97305 0.11523,2.19922 0.39652,-0.55994 0.47464,-1.30491 -0.11523,-2.19922 z m 114.66205,-7.65625 c 4.36254,3.16568 2.89539,9.0532 0,0 z m 206.64636,0.0723 c 4.21652,5.99855 -2.42879,2.62803 0,0 z m -89.14643,0.27734 c -2.22251,8.44865 4.03911,11.68192 0,0 z m -287.36117,0.008 c 3.74203,4.70631 -2.75016,1.88479 0,0 z m 721.47226,0.12891 c 17.56319,0.65987 -11.7898,28.14989 -8.67774,10.67969 -12.31019,-0.62055 -14.7609,-10.96385 -1.58203,-9.20703 3.43262,-0.87447 6.20458,-1.32685 8.41211,-1.44922 0.66686,-0.037 1.2811,-0.0447 1.84766,-0.0234 z m -55.2695,0.0117 c -6.18722,0.8709 2.2718,2.40408 0,0 z m -326.1092,0.47851 c 6.51426,1.79936 -3.52784,6.12178 0,0 z m -387.443136,0.13672 c -6.630844,3.514 7.049132,11.14081 0,0 z m 469.265366,0.0664 c 12.3592,8.1842 -12.20848,12.00081 0,0 z m -289.90023,0.69141 c 4.12861,1.36399 -1.37909,4.97973 0,0 z m -87.5605,0.33007 c 8.81828,0.41609 -6.3583,1.92836 0,0 z m -77.992144,0.23633 c -2.046716,3.67255 5.063855,12.23801 0,0 z m 192.703014,0.16406 c 3.0572,4.19407 -3.08963,7.96707 0,0 z m -89.873,1.02344 c -1.30421,11.94894 -12.64115,6.00532 0,0 z m -81.455026,0.6875 c 3.807697,2.94004 -2.256977,8.05282 0,0 z m 120.228446,0.48047 c 4.82908,2.32401 -2.87181,5.36761 0,0 z m 377.57987,0.0781 c -10.77709,-0.0487 -0.95082,3.539 0,0 z m -320.63654,0.41015 c 4.12865,1.3691 -1.37957,4.98085 0,0 z m 152.3085,0.27344 0.36719,3.92187 -0.36719,-3.92187 z m -307.65216,0.12305 c 0.84007,5.13582 -2.18969,-0.17581 0,0 z m 92.68159,0.47656 c 7.30834,0.41957 -5.27877,1.88533 0,0 z m -93.89253,0.18164 c -2.12092,13.42499 -25.452603,27.33971 -5.5957,5.32422 l 5.5957,-5.32422 z m 104.96869,1.43555 c 0.26442,10.43828 -6.97734,1.72424 0,0 z m 69.60152,0.0703 c 6.39624,3.45361 7.0333,9.47889 0,0 z m 252.32603,0.18164 c -1.59006,0.72649 -1.19299,1.0985 -0.32421,1.22461 -8.65754,1.14485 23.13831,6.056 2.38867,-0.17774 -0.0134,4.9e-4 -0.0182,0.004 -0.0312,0.004 0.54393,-0.2282 0.33052,-0.60858 -2.03321,-1.05078 z m -118.80657,1.16211 c -5.47796,2.02951 3.9233,4.61177 0,0 z m 35.05858,0.20117 c -6.56464,12.36039 27.6298,16.9221 -0.33789,2.12695 l 0.33789,-2.12695 z m 324.46465,0.35352 c -41.44904,-0.32282 -24.14621,73.78209 -1.33788,22.89064 4.29155,-5.21144 15.39023,-22.18913 1.33788,-22.89064 z m -260.42758,0.46093 c -0.70495,28.14695 -32.71439,33.68512 -36.76561,58.55668 0.3924,-19.2251 1.31653,-36.0396 21.73241,-33.41603 7.35086,-6.61709 11.93861,-15.82754 15.0332,-25.14065 z m -389.16385,0.25196 c 7.97642,3.35203 -2.70117,5.8444 0,0 z m -31.396462,0.43554 c 4.929942,0.65108 -2.983056,5.1489 0,0 z m 151.314362,0.52735 c 4.11771,7.14182 -4.06875,14.48109 0,0 z m -108.27337,0.29883 c 51.99954,9.68485 -79.041497,58.70394 -28.46483,14.97071 5.08566,16.16224 12.10748,-21.26262 29.6367,-3.12891 8.51895,4.19323 -6.63464,-11.31962 -1.17187,-11.8418 z m 635.54847,0.4375 c 12.12293,11.8209 -15.07571,14.50155 0,0 z m -492.56223,0.69531 c 5.08186,2.77356 1.28814,8.8853 0,0 z m 324.42365,0.25781 c -2.31008,4.94304 5.30127,7.41439 0,0 z m -527.540716,0.15431 c 5.931222,8.25548 -4.543506,18.02926 0,0 z m 413.066166,0.10742 c 1.11137,20.1578 -13.59789,19.58846 0,0 z m -372.70487,0.082 c 8.27854,13.4717 -18.52699,6.39381 0,0 z m 105.71479,0.51563 c 3.49993,2.25857 -3.09858,4.56308 0,0 z m -20.35546,0.24218 c 16.92559,12.71993 12.48207,28.15941 0,0 z m 67.75778,0.0996 c 16.39754,6.87117 3.29086,11.70786 0,0 z m 189.23036,0.44922 c 0.005,8.88684 13.79396,6.09835 0,0 z m -47.11716,0.0937 c -2.16707,2.06812 1.84745,4.63332 0,0 z m -192.92568,1.52539 c 4.52875,1.89253 1.43935,8.31371 0,0 z m -50.43942,0.0234 c 5.85739,2.29605 -4.15161,4.43114 0,0 z m 247.37486,0.0879 c -0.50949,4.54743 6.39536,3.85105 0,0 z m -126.27922,0.13281 c 10.29394,11.43829 4.46766,19.62237 0,0 z m 235.86705,1.11914 c -4.18034,1.98671 2.40839,4.71086 0,0 z m -440.499748,0.58789 c 7.235142,13.20404 4.063957,40.1188 -0.304687,32.33987 -6.222264,18.91717 -11.962524,17.77732 -1.966796,-9.66603 1.632698,-7.38303 -0.983573,-15.63852 2.271483,-22.67384 z m -14.384757,0.0137 c 3.506136,2.25518 -3.097268,4.56549 0,0 z m 491.079795,2.04492 c -2.1704,2.06652 1.85208,4.62557 0,0 z m -278.06429,0.14258 c 3.6442,1.0064 2.22815,5.66036 0,0 z m 295.44905,0.32421 c -5.4839,2.02657 3.92106,4.61411 0,0 z m -512.851272,0.19336 c 18.76461,9.3101 11.972138,27.42496 0,0 z m 169.497952,0.0781 c 5.00654,0.98304 -4.00186,4.52347 0,0 z m -70.42966,0.8125 c 28.03426,12.63826 -23.2554,12.39395 0,0 z m 601.37272,0.23242 c 13.46953,14.69389 -23.77791,7.49522 0,0 z m -519.69307,0.0176 c 5.03935,4.097 2.26408,11.28209 0,0 z m -73.72847,0.16601 c 3.74204,4.70632 -2.75015,1.8848 0,0 z m 348.84551,0.006 c -4.17458,1.98927 2.40998,4.7089 0,0 z m 5.83983,0.43555 c -6.18722,0.87091 2.27177,2.40405 0,0 z m -253.17173,0.59961 c 2.07236,4.80991 -5.45447,7.35879 0,0 z m -53.93747,0.96484 c 8.22457,2.38452 6.73352,10.24745 0,0 z m -131.716719,0.22461 c 9.223129,5.61266 0.69662,9.81728 0,0 z m 213.285039,0.16016 c 20.52155,12.0989 6.42813,21.23952 0,0 z m -73.8691,0.0723 c 3.40682,5.43318 -1.02237,11.32424 0,0 z m 559.8493,0.43359 c -20.83685,23.89106 6.45087,26.90849 0,0 z m -655.97621,0.57226 c -26.8371,10.34134 6.01331,8.65673 0,0 z m 134.33197,1.24805 c 14.77426,9.22507 1.34849,12.38162 0,0 z m -60.97849,0.45314 c 11.62132,2.16025 -3.92379,6.68266 0,0 z m 29.04686,0.13086 c -0.12925,9.76956 -6.43351,1.96648 0,0 z m -194.087779,0.46289 c -1.944286,3.76872 -13.452594,0.14291 0,0 z M 284.973,481.7219 c 1.71446,18.81336 17.40977,32.87571 34.11716,45.83987 -1.97549,-1.6601 -4.20959,-3.92401 -6.74608,-6.97657 -3.39874,-5.9994 -19.01453,-23.2509 -6.17773,-27.10939 23.56235,-0.41702 32.74709,47.69255 14.99608,35.66994 27.16265,20.86274 55.57767,39.24971 30.14451,70.64068 -0.70158,3.41657 -3.18208,9.61219 -6.43554,16.46095 0.48517,-0.49432 1.00983,-1.00476 1.58789,-1.53516 6.2181,10.72242 -4.47545,14.3107 -5.96875,10.23048 -10.85871,20.38117 -25.21575,39.39937 -20.70506,7.7168 1.3106,-18.36461 34.83374,-62.47534 15.41795,-56.09575 3.91243,-18.69475 15.28974,-28.24496 -1.64453,-11.02148 -23.39757,-18.09854 -47.71998,-52.23901 -48.5859,-83.82037 z m 55.51754,143.2208 c 1.56308,-2.93385 3.03004,-5.85173 4.38086,-8.69532 -4.08948,4.16673 -4.9822,7.05224 -4.38086,8.69532 z m -19.32811,-95.79695 c -0.69144,-0.53108 -1.38336,-1.04942 -2.07227,-1.58398 0.72693,0.61088 1.41898,1.14151 2.07227,1.58398 z M 155.4926,482.43069 c -2.15292,7.94234 -13.0379,7.94683 0,0 z m 140.9882,0.45898 c 9.20223,11.18111 -3.60958,12.38289 0,0 z m -92.89643,0.1836 c 32.75689,3.16779 -0.43233,5.96091 0,0 z m 320.35334,0.36328 c -3.25348,3.96063 2.90019,4.75623 0,0 z m -48.05662,0.17773 c -11.2577,13.76995 2.24103,5.20512 0,0 z m -216.49011,0.61328 c 9.00774,14.99271 -4.26625,14.91476 0,0 z m -9.63085,0.0156 c 8.21158,5.29747 6.91394,13.61224 0,0 z m 160.13858,0.0371 c 3.74202,4.70633 -2.75018,1.88479 0,0 z m -294.74397,2.10351 c 5.17151,2.8104 11.87305,-0.0825 0,0 z m 402.53297,0.17969 c -0.84269,3.71651 7.21255,2.43604 0,0 z m -178.18935,0.50195 c 0.83763,5.46123 7.00739,1.21283 0,0 z m -106.92182,1.39454 c 3.50616,2.25518 -3.09729,4.56547 0,0 z m -87.23432,1.23632 c 4.58076,0.96899 -0.59039,6.30117 0,0 z m 620.61879,0.66993 c -2.29015,2.76444 -12.93036,3.79848 0,0 z m -277.37289,1.86523 c -5.48397,2.02657 3.92104,4.61413 0,0 z m -429.366947,0.32231 c -4.563416,6.52117 5.422124,11.02851 0,0 z m 612.964497,1.6211 c -4.75244,3.82247 4.66141,6.03928 0,0 z m -394.35525,0.17383 c 14.40645,9.45862 18.79503,48.97347 2.59961,14.12891 -0.13206,-3.16306 -7.43426,-10.62161 -2.59961,-14.12891 z m -96.91986,0.21875 c 2.4644,3.35715 9.83306,1.7146 0,0 z m 16.41405,0.42383 c 7.31478,0.42381 -5.27822,1.88622 0,0 z m 21.24999,0.4375 c -5.17439,0.79013 4.16975,4.02863 0,0 z m -51.582,0.99218 c -6.74779,0.1843 1.10866,3.16268 1.55078,0.004 -0.5862,-0.0152 -1.10093,-0.016 -1.55078,-0.004 z m 103.39056,0.78321 c 5.15746,0.96711 2.23315,7.20686 0,0 z m 36.65428,0.66211 c -5.81724,14.4663 4.21322,12.03232 0,0 z m -170.91202,0.57617 c -0.39743,5.18573 8.81095,4.04798 0,0 z m 17.18163,0.55859 c -2.18738,5.39372 3.61969,9.10161 0,0 z m 359.91386,0.0742 c -13.4817,2.71728 4.64131,2.91748 0,0 z m -363.26151,0.20117 c -4.18018,1.98202 2.40799,4.70956 0,0 z m 63.08981,0.46875 c 0.99936,7.10054 17.95246,5.94551 0,0 z m 403.98025,0.95899 c -14.38446,13.59504 11.14537,7.14854 0,0 z m -308.09358,0.23632 c -2.23661,20.25976 24.79075,9.9438 0,0 z m -177.30654,0.0137 c -0.66337,0.005 -1.41465,0.0251 -2.26172,0.0605 2.40694,2.89974 12.21259,-0.13673 2.26172,-0.0605 z m 55.35348,0.47461 c -5.74917,3.59127 5.09027,4.86094 0,0 z m 8.98046,0.27734 c -7.74635,4.29135 19.34133,2.20768 0,0 z m -149.314365,0.0645 c 3.742025,4.70632 -2.75018,1.88479 0,0 z m 200.558475,0.82618 c -2.17037,2.06653 1.8521,4.62554 0,0 z m -77.3105,0.21679 c -1.44691,3.34718 2.71069,4.58778 0,0 z m 458.72826,1.10352 c -21.60179,8.74758 6.63386,10.16785 0,0 z m -335.15411,0.14453 c -2.1704,2.06652 1.85209,4.62556 0,0 z m -60.78317,0.35351 c -16.45835,9.73006 -2.78106,13.39134 0,0 z m -89.90229,0.0586 c -6.9055,5.24984 2.94073,7.35008 0,0 z m 78.3105,1.98828 c -17.19588,11.85018 11.59685,8.73128 0,0 z m -160.197173,0.61523 c -1.284489,4.26679 2.760006,7.00188 0,0 z m 45.654263,1.3047 c -4.18037,1.98672 2.4084,4.71086 0,0 z m 152.71672,0.33985 c -4.25003,4.83123 7.99792,6.13872 0,0 z m 313.9881,0.0215 c -10.60499,13.65925 10.48976,7.81366 0,0 z m -525.646186,0.91797 c -1.296518,-0.11109 -1.10815,5.4628 1.748046,2.53125 -0.718148,-1.82626 -1.315876,-2.49421 -1.748046,-2.53125 z m 584.152016,1.16601 c -14.82375,6.62042 8.30749,9.34016 0,0 z m -45.35154,0.8418 c -15.6475,4.98922 -4.656,11.61504 0,0 z m -570.767255,0.41406 c -4.174436,1.98455 2.409613,4.7076 0,0 z m 228.634635,0.0742 0.42382,0.95703 -0.42382,-0.95703 z m -39.57224,1.01563 c -6.30605,9.24827 22.32884,1.26029 0,0 z m -3.57226,0.50195 c -6.18722,0.87088 2.2718,2.40407 0,0 z m 68.86519,0.30273 c -7.63149,4.07255 5.87418,4.51199 0,0 z m -171.007714,1.05469 -3.39453,4.0332 3.39453,-4.0332 z m 25.548814,0.3457 c 11.47981,14.03646 -4.28292,17.28517 0,0 z m 487.74387,0.61133 c -17.24164,0.37029 -10.28699,48.05759 -0.14649,56.62114 7.78626,-25.25579 -11.58489,-40.99049 10.64648,-52.62309 -4.20925,-2.8522 -7.67861,-4.05866 -10.49999,-3.99805 z m -69.2695,0.0391 c -7.10958,14.19692 11.03791,6.7308 0,0 z M 273.9359,516.1554 c 0.12349,8.02469 5.77918,0.68787 0,0 z m 69.62496,0.0254 c -3.52617,2.64889 4.10967,3.93188 0,0 z m -108.29487,2.11133 c -5.63213,1.75788 2.30904,5.46425 0,0 z m -81.77925,0.92187 c 3.95678,3.65717 -4.05109,6.80262 0,0 z m 288.73812,0.39453 c 5.8528,2.30082 -4.15439,4.42788 0,0 z m 145.44719,0.17579 c -15.34122,7.33574 9.61986,5.3903 0,0 z m -53.96287,0.55468 c -5.33799,7.1771 8.59732,6.98218 0,0 z m -208.54089,0.68946 c -5.17418,0.7846 4.16891,4.02764 0,0 z m 300.94124,0.12304 c -1.73884,10.78916 12.62016,3.42831 0,0 z m -321.37873,2.58977 c -4.94636,1.64355 3.41983,3.92462 0,0 z m -101.56635,0.52734 -4.24609,2.16406 4.24609,-2.16406 z m 386.41384,1.3457 c -12.46895,6.52268 11.31132,5.03451 0,0 z m -61.80465,0.17969 c -2.57702,8.13712 9.87651,2.76984 0,0 z m 114.45697,0.5332 c -2.92334,7.32072 10.9834,1.10659 0,0 z m -294.64046,0.92969 c 14.64262,10.31329 17.14053,5.13728 0,0 z m -62.03512,0.94922 c -5.18007,0.78085 4.16608,4.0305 0,0 z m -49.65818,3.81836 c -4.17446,1.98456 2.40963,4.70763 0,0 z m 164.80851,0.37109 c -9.88074,20.01691 9.07705,14.64881 0,0 z m 232.44713,0.23242 c -4.41193,7.09247 13.1122,6.06837 0,0 z m 16.60546,0.0176 c -1.74684,-0.0329 -4.98499,2.15736 -10.67578,8.00978 -5.99086,15.81244 8.13128,32.80578 -0.12305,48.51761 22.2295,-12.49847 62.90224,-46.76897 31.41015,-36.77737 1.6065,-0.63374 -2.99228,-1.41088 -0.44531,0.13477 -15.91219,16.41849 -26.22102,20.12401 -10.63867,-3.73243 -18.79216,18.32159 -2.6744,-16.02351 -9.52734,-16.15236 z m -136.33782,0.47266 c -1.13796,12.22969 16.84808,11.57152 0,0 z m 79.13668,0.49805 c -10.26393,3.65987 -4.4152,8.31484 0,0 z m -84.55659,1.83789 c -4.58148,7.70252 10.66761,3.32776 0,0 z m -157.64836,0.39259 c -3.27199,7.0976 10.66192,7.669 0,0 z m 325.99006,2.38476 c -7.56772,5.40879 7.48263,14.47246 0,0 z m -46.46677,0.57031 c -7.70391,7.00958 10.92449,4.07584 0,0 z m 189.22645,0.26563 c -0.5164,-0.0292 -1.042,-0.0277 -1.57617,0.006 -15.66474,0.0382 -50.09178,70.12778 -37.90818,22.84766 8.09549,-19.09195 -19.50427,33.64245 -23.01561,45.66801 -29.82634,40.1584 -25.53506,90.10235 -48.78709,130.54306 -2.97639,-24.21105 -17.36101,-46.40791 -7.66991,-8.42579 4.26697,24.70101 -22.07747,2.85374 0.56055,24.58205 28.35381,32.53392 -0.81918,101.47393 -0.23047,117.95516 37.87971,-46.29363 -5.30863,-112.17478 25.58201,-160.48644 17.85571,-15.36508 55.3952,-34.84148 12.01953,-14.03907 -29.91831,-12.01193 24.30862,-42.52076 -3.49414,-40.52152 16.41863,-49.07819 96.71575,-52.27925 100.33588,-103.54108 -2.36587,-6.90009 -8.07037,-14.15053 -15.8164,-14.5879 z m -540.22431,0.0781 c -13.3596,11.71047 10.23689,4.14506 0,0 z m -99.74017,1.16407 c -5.47798,2.02948 3.9233,4.61176 0,0 z m 6.125,0.72851 c -9.04356,9.51978 7.43138,7.01624 0,0 z m 206.85339,0.56055 c -13.73478,10.78105 10.1777,6.16579 0,0 z m -218.24597,1.02734 c -4.57606,9.62988 11.11516,12.34039 0,0 z m 653.43128,0.0391 c 3.74201,4.70635 -2.75019,1.88482 0,0 z m -466.3845,0.62891 c -1.84414,10.5608 11.96342,11.75921 0,0 z m 141.74796,0.63867 c -7.68193,5.23175 11.60319,4.20404 0,0 z m 315.4217,0.15039 c 4.33191,2.57822 -4.68233,4.85994 0,0 z m -623.62661,1.0293 c -12.00335,13.18516 7.89282,5.12295 0,0 z m 629.58559,3.40625 c 6.73744,7.67671 -5.77259,18.31741 -1.30664,3.36329 l 1.30664,-3.36329 z m -657.65002,0.38086 c -7.33506,10.87181 12.59564,4.93095 0,0 z m 57.8691,1.31251 c -4.1746,1.98926 2.41,4.7089 0,0 z m 26.49609,0.1875 c -2.28213,3.94924 4.18009,6.07518 0,0 z m 192.56434,0.50586 c 2.2132,9.25669 -12.67599,2.21953 0,0 z m 55.46481,0.40039 c -7.4073,5.98879 11.58511,3.26058 0,0 z m -116.59172,0.69726 c -0.70635,11.92413 14.13722,12.48748 0,0 z m -86.02535,0.21485 c -6.08841,5.67788 -4.63882,6.47276 -2.56249,5.29883 -0.69669,2.8944 5.37352,8.07328 2.50194,-1.51758 -0.27476,0.0143 -0.5157,0.0485 -0.74024,0.0937 1.00213,-1.11046 1.62952,-2.54297 0.80079,-3.875 z m 513.47042,1.50195 c 37.02667,18.94157 -53.342,79.98748 -41.77928,45.05472 13.30947,-15.0503 27.15405,-33.23695 41.77928,-45.05472 z m -626.25551,0.98633 c 6.30928,2.1232 -2.57369,4.71971 0,0 z m 216.17175,0.45313 c -7.93893,14.03154 6.92388,15.93201 0,0 z m -292.38851,0.91992 c -2.15847,2.06993 1.84458,4.63564 0,0 z m 580.7907,0.70117 c -7.63325,3.89808 12.20585,3.40809 0,0 z m -102.44722,1.20117 c -11.5829,8.70679 4.11358,8.96141 0,0 z m -84.65815,1.10547 c -9.95476,7.70493 10.7467,3.07285 0,0 z m 60.38864,0.55469 c 1.67582,12.21312 12.65725,12.91591 0,0 z m 29.77928,1.64453 c -14.19652,10.45452 5.77113,9.76816 0,0 z m -204.1288,1.76953 c -3.05478,16.70487 11.76476,6.16772 0,0 z m 287.84359,1.38087 c -6.05138,1.17242 0.74755,3.10431 0,0 z m 13.08399,0.54883 c -5.92776,5.92159 10.41884,2.43503 0,0 z m -109.23432,2.65039 c -6.89673,0.0109 -19.0935,14.74129 -6.66601,33.3008 -8.21961,14.42983 -17.40512,28.26977 -26.96288,41.81643 34.55535,-37.52277 86.44317,-4.16967 128.31633,-11.03711 -23.28621,-14.0491 -47.29241,3.2404 -68.17769,-16.01955 13.84719,-9.62252 35.44428,-19.41361 8.57812,-13.15821 4.54056,-24.79337 -39.23262,43.54994 -34.48045,0.11719 11.34276,-15.93867 10.51812,-17.48377 -0.38086,-16.78907 6.14081,-12.94492 3.91147,-18.23684 -0.22656,-18.23048 z m -60.33786,2.41992 c -2.17041,2.06652 1.8521,4.62555 0,0 z m -123.99602,3.38281 c -14.34799,23.9768 9.14781,9.5123 0,0 z m 218.60144,0.23828 c -0.94516,0.14771 -2.50929,7.46536 -1.28711,18.63283 2.4734,-13.31088 2.12105,-18.76311 1.28711,-18.63283 z m -204.02919,0.88867 3.27735,8.90822 -3.27735,-8.90822 z m -104.34564,3.50586 2.76758,2.56837 -2.76758,-2.56837 z m 77.99019,2.19142 c -12.5314,14.36472 9.53735,12.80806 0,0 z m 20.68944,1.83984 c -8.77298,7.71499 5.87325,7.17067 0,0 z m 35.89646,1.84571 c -22.89449,11.91388 7.76052,8.39061 0,0 z m -16.21483,0.23047 c -8.47176,21.31404 11.23173,7.07002 0,0 z m -148.59562,1.32812 c -7.10919,10.96839 7.30079,8.69089 0,0 z m 143.41008,0.66406 c -16.08557,10.08526 7.49605,11.26386 0,0 z m -262.73619,2.17969 c -5.73915,7.75163 9.19294,8.03174 0,0 z m 484.03293,1.05469 c -0.82797,0.0982 -4.40431,2.87672 -9.52928,9.01173 7.41268,-5.45083 10.14471,-8.72281 9.65819,-8.99611 -0.0304,-0.017 -0.0737,-0.0222 -0.12891,-0.0156 z m -167.04872,0.62891 c -15.16406,23.15358 10.97216,7.79026 0,0 z m -189.53897,0.47656 c -13.15035,6.37603 6.06822,5.5929 0,0 z m 120.99993,1.02148 c -12.50157,12.44029 6.65083,10.3449 0,0 z m -115.45891,0.80078 c -13.22649,8.00073 3.61852,9.92095 0,0 z m 174.57998,0.22462 c -12.53174,17.13144 2.64887,32.46362 0,0 z m -98.90229,0.61719 c -9.48755,7.04049 1.48907,2.75442 0,0 z m 85.72066,1.31836 c -12.30183,19.43904 10.05681,13.16444 0,0 z m -55.2363,0.26758 c -9.35482,12.26654 8.85106,8.49826 0,0 z m -101.67963,0.01 c -16.47127,11.379 4.22695,13.05294 0,0 z m 92.77143,1.16797 c -14.34795,17.02378 9.33789,7.86911 0,0 z m 54.77536,0.25 c -21.75253,16.88086 4.99583,16.91309 0,0 z m -67.09176,0.75977 c -19.30536,4.93128 18.10005,5.92509 0,0 z m 38.291,0.60937 c -12.17421,16.63694 7.93425,10.75202 0,0 z m -261.04868,0.76758 c -7.67469,5.23342 11.60481,4.20152 0,0 z m 268.98227,2.41797 c -6.32045,18.73981 6.66544,7.25713 0,0 z m 425.87085,2 c -28.38088,12.82457 -8.86649,82.46242 -5.63867,99.77937 11.35532,-32.01093 -0.94515,-66.97463 5.63867,-99.77937 z m -5.63867,99.77937 c -0.30845,0.86957 -0.6245,1.7384 -0.96875,2.60351 1.60909,2.54779 1.68794,1.25484 0.96875,-2.60351 z M 427.95534,606.98547 c -10.26713,14.85783 7.71787,10.20293 0,0 z m -277.96469,0.77929 c -10.81128,1.8071 5.17291,5.2416 0,0 z m 321.74397,0.32422 c -5.74917,3.59129 5.09027,4.86095 0,0 z m 397.34351,3.20508 c -16.02373,15.43979 -24.90397,101.2417 -4.90623,42.91214 3.41844,-13.57973 9.55434,-29.18893 4.90623,-42.91214 z m -487.28682,2.10938 c -39.19185,12.28115 19.34853,39.98119 10.24999,48.26174 17.64664,-12.31038 4.84696,-57.52017 18.40819,-17.10547 -7.24504,26.17122 16.81891,-30.59005 -13.73046,-28.43948 l -7.5918,-2.20312 -7.33592,-0.51367 z m 62.53511,0.44531 c -18.47255,16.80703 10.01183,8.80825 0,0 z m -9.43944,0.99805 c -8.78618,18.10473 10.10018,9.05587 0,0 z m 222.9276,1.52929 -7.11522,5.40236 7.11522,-5.40236 z m -205.18152,0.35352 c -16.37286,17.91765 9.99955,8.33227 0,0 z m 13.71093,0.082 c -10.79504,16.81652 4.10168,20.43726 0,0 z m -314.69318,0.0332 c -12.92263,8.36401 4.78265,5.84243 0,0 z m 235.74986,3.81055 c 14.23741,0.21296 -12.62862,5.39218 -3.41796,0.0273 1.33738,-0.0345 2.4688,-0.0415 3.41796,-0.0273 z m 84.47848,4.26954 c -2.15849,2.06993 1.84462,4.63559 0,0 z m 326.84356,4.77344 c -31.15153,7.72031 37.70355,92.98605 27.7871,77.97857 -6.31859,-25.64803 -11.72236,-59.14817 -27.7871,-77.97857 z m -634.20082,0.93945 c -15.20487,8.96358 9.19457,4.04365 0,0 z m 312.74592,3.02539 c 3.57892,7.42874 -5.64347,13.27887 0,0 z m -32.02342,1.44728 c -18.39531,4.08226 -30.43529,32.85612 -42.25779,28.46486 25.51177,30.46359 29.66283,-43.8144 30.62108,-1.94337 -2.19604,50.51138 54.12512,-20.12365 11.63671,-26.52149 z m -276.785,3.72656 c -8.32109,13.22441 2.58026,10.11903 0,0 z m 43.18357,5.32812 c -0.0718,-0.10075 -0.31115,0.55563 -0.75391,2.12891 0.11785,0.5481 0.19105,1.09392 0.26367,1.63867 0.39399,-2.26803 0.58166,-3.63918 0.49024,-3.76758 z m -0.49024,3.76758 c -0.55281,3.18237 -1.58669,8.41745 -2.78515,14.27931 2.27761,-4.44396 3.45115,-9.28451 2.78515,-14.27931 z m -2.78515,14.27931 c -7.21223,14.07216 -25.31026,24.14873 -29.93944,22.52736 10.09606,5.69907 20.07836,15.45295 18.31835,28.24612 3.00406,-10.52794 8.21528,-34.11497 11.62109,-50.77348 z m -29.93944,22.52736 c -0.22965,-0.12958 -0.45982,-0.26913 -0.68945,-0.39453 0.1739,0.17765 0.41751,0.29931 0.68945,0.39453 z m -3.13476,-39.02346 c -9.95727,12.76236 8.84925,4.92935 0,0 z m 7.88086,1.17773 c -4.60193,5.87214 6.01293,9.62276 0,0 z m 156.35928,9.50782 c 10.3159,18.7098 13.20183,30.25507 -5.64258,36.16605 -6.60069,42.56473 0.82733,-32.00849 -11.39647,2.48828 -14.60095,-10.86976 16.31113,-25.12472 17.03905,-38.65433 z m 417.2068,1.21485 c -0.75846,-0.0636 -4.14048,0.56893 -10.1289,2.46679 7.74174,-1.15482 11.10406,-2.38522 10.1289,-2.46679 z m -426.57593,0.75586 c -4.97866,2.74575 -1.94204,4.21474 0,0 z m -4.67187,3.09179 c -7.11646,3.22881 -2.33387,5.73681 0,0 z m 145.83976,3.56837 c 3.88962,19.21965 -2.51951,13.39448 0,0 z m -318.73225,0.36719 c -0.29328,-0.0204 2.7566,3.19256 10.02539,9.69531 -6.09573,-6.42102 -9.73214,-9.67486 -10.02539,-9.69531 z m 144.62297,1.99023 c -1.06611,-0.1229 -5.37982,2.31669 -12.63867,9.1875 10.01143,-4.63702 14.00938,-9.02941 12.63867,-9.1875 z m 167.30264,2.37696 c 9.15209,21.79942 -0.37639,84.7887 -10.85741,28.78908 -1.97465,-9.92751 3.53288,-22.51483 10.85741,-28.78908 z m -132.55462,3.49414 c -5.94401,13.83455 4.24902,8.01537 0,0 z m -10.31835,0.31054 c -12.83781,30.54855 -44.25921,21.3808 0,0 z m -252.51743,0.75391 c 8.043442,1.18722 -2.816946,4.46577 0,0 z m 93.45112,0.98242 c 0.12134,0.25882 3.73824,2.61485 10.48827,6.29103 -7.23515,-4.7115 -10.60957,-6.54987 -10.48827,-6.29103 z m -145.195232,1.82031 c -4.056424,8.18031 15.791889,9.76424 3.455076,1.79689 l -3.455076,-1.79689 z m 53.585907,5.67775 c -2.254035,0.0575 1.592101,5.13863 2.644531,0.9375 -1.279158,-0.69781 -2.12438,-0.95077 -2.644531,-0.9375 z m 802.708535,0.75391 c -24.97929,1.76667 -31.41645,47.0149 -4.26758,18.74219 3.04141,-3.79509 15.04392,-16.90756 4.26758,-18.74219 z M 4.9204222,684.21013 c -4.6779388,7.51591 17.8168928,3.53909 0,0 z m 309.4236478,4.64453 c 0.38961,33.97089 -12.65594,27.90172 0,0 z m 44.89256,0.24414 c 22.06276,0.12821 43.63105,36.41974 10.26171,12.85157 -15.36163,-7.29259 -39.93774,12.06075 -18.02734,-11.65235 l 5.62891,-1.09571 c 0.71089,-0.0744 1.42502,-0.1076 2.13672,-0.10351 z m -336.784968,1.89258 c -17.3432275,2.634 7.007583,4.83832 0,0 z m 319.825988,1.28321 c -0.72332,23.25174 -17.50661,19.25105 0,0 z m -65.81832,0.68555 c -12.51394,7.45719 4.83048,18.25802 0,0 z m -245.558453,2.74023 c -20.9902813,10.80439 3.155036,11.0682 0,0 z m 376.216583,0.49219 c 24.68654,13.21063 7.94591,95.69115 1.17969,32.33791 4.33692,-35.80065 -10.34624,21.19352 -12.44531,-17.3086 -4.51418,-7.64218 5.41494,-13.25466 11.26562,-15.02931 z m -107.07807,2.24219 c 5.87747,21.25852 13.3092,84.29079 -18.51366,61.77543 -3.49012,46.27501 -9.57088,-76.0991 0.0234,-20.50001 19.30369,-6.58472 -7.73903,-21.61966 18.49022,-41.27542 z m 21.74999,2.20312 c 28.72618,14.33429 -28.27914,61.77112 -10.88085,15.34181 6.74259,-16.64058 11.67967,26.84933 7.83398,-10.2461 l 1.12695,-3.76563 1.91992,-1.33008 z m 88.44527,1.36133 c -0.42571,0.0768 -1.49977,3.25129 -2.33985,10.40235 2.4718,-6.5974 2.82231,-10.48943 2.33985,-10.40235 z m 29.64841,2.26562 -0.0996,0.17188 0.0996,-0.17188 z M 90.904749,705.5324 c -2.622506,19.7464 2.520771,73.58185 -11.238275,24.66018 -30.573724,-51.30982 18.677213,85.47211 -17.029287,35.92972 -0.77246,30.44132 33.899836,66.35331 34.078106,81.67974 12.124977,-8.89162 73.005747,-0.34749 35.052717,-13.92579 -7.31269,-25.5395 32.61456,-88.78587 2.16015,-87.51374 -3.65449,52.57226 -19.25132,-73.81847 -22.6328,-17.60548 2.3419,43.73182 -12.703663,-5.89938 -17.181629,-19.33985 l -3.208982,-3.88478 z m 286.109211,1.96486 c 14.6854,13.38658 11.87778,34.71357 0,0 z m -4.40039,1.88867 c 7.94543,2.80903 -3.74434,3.17395 0,0 z m 20.45116,0.50976 c 9.8971,23.02315 -1.92695,20.12434 0,0 z m -33.66599,0.1875 c 36.57138,11.18883 -22.64714,14.83631 0,0 z m 410.69899,1.41992 c -15.23327,10.26318 -55.49886,67.15726 -43.13475,59.08989 16.22717,-17.90672 35.21857,-35.52028 43.13475,-59.08989 z m -420.8611,1.86329 c 13.60636,8.54545 -11.01326,17.02289 0,0 z m -16.18554,0.12304 c 3.87906,3.24437 -3.76264,4.88697 0,0 z m -242.128763,3.08008 c 7.024442,17.12693 31.707153,71.72685 24.005843,21.6426 -3.53703,-55.64621 8.50493,64.58778 25.68748,20.11915 0.74777,31.51457 -19.81099,116.44419 -53.156212,58.39262 -8.21828,-17.98132 -36.675582,-62.76352 -7.337886,-26.60549 8.288792,-17.45383 -19.402804,-92.99904 5.019528,-36.24807 15.07692,24.12017 7.249055,-32.98835 5.781247,-37.30081 z m 249.624863,2.97461 c 7.09897,7.77713 -7.74723,10.80177 0,0 z m 473.91574,0.47853 c -0.94922,5.58237 7.72257,1.39094 0,0 z m -444.19897,0.26757 c 6.13716,0.95577 -2.81123,4.00178 0,0 z m -106.37299,0.48829 c -1.16613,17.27651 0.45525,15.77191 0,0 z m 592.81217,0.74218 c -11.58851,6.54393 4.03057,8.03923 0,0 z m -522.66377,5.58203 c 2.30566,20.13475 -25.75852,30.34161 -4.81249,3.74415 l 4.81249,-3.74415 z m 11.69727,0.88086 c -2.31745,13.83448 -11.04111,5.16303 0,0 z m 456.86302,1.59375 c -6.84058,3.73161 5.94968,4.72458 0,0 z M 445.469,732.24531 c -6.48344,4.34801 3.16443,5.01512 0,0 z m 122.96477,0.33594 c -3.74022,17.06099 -5.26845,79.98572 8.6836,30.21487 10.16137,-27.30242 -1.20836,33.36427 5.16405,41.53909 -4.44671,22.84053 -28.46778,68.53134 -37.78708,21.55861 0.99707,-18.67071 -20.65876,-54.94368 0.82422,-42.5723 3.5998,-23.58701 0.73355,-55.57634 7.09374,-13.99024 12.23995,21.21939 10.97049,-31.18051 16.02147,-36.75003 z m 253.43932,0.21289 c -18.90993,23.95297 -0.76337,3.60826 -1.00586,24.00783 6.54667,-23.44894 4.67676,-20.65735 11.76952,1.02149 -25.68991,14.83773 -37.13785,-17.3935 -10.76366,-25.02932 z m 39.16795,0.78906 c -10.26581,5.36 8.8777,3.6788 0,0 z m -17.73046,0.959 c 12.71471,19.7266 -8.45759,27.40271 -7.26953,2.17578 0.56545,7.52034 12.34242,18.15364 7.64062,2.24023 l -0.37109,-4.41601 z m -457.4646,1.02343 c 8.15626,23.32703 0.99651,13.49695 0,0 z m 406.39041,0.0137 c -5.57674,5.85331 9.58131,7.0185 0,0 z m -352.40216,0.0469 c -3.52615,2.64887 4.10968,3.93189 0,0 z m 10.02344,0.28711 -2.45898,3.1543 2.45898,-3.1543 z m 236.25378,2.16602 2.88085,2.46289 -2.88085,-2.46289 z m -442.61109,1.38281 -1.99413,4.24414 1.99413,-4.24414 z m 165.76553,2.64453 c 10.29641,22.69966 -14.59822,39.53834 -3.42382,6.65626 l 1.74609,-4.84962 1.67773,-1.80664 z m 423.19312,2.22266 c 4.83725,7.29998 -0.63552,15.75956 0,0 z m -499.23018,0.0254 c 5.20061,2.50065 -4.15577,6.85341 0,0 z m 68.11911,3.49023 c 4.2165,5.99858 -2.42877,2.62805 0,0 z m -101.14449,0.0703 c -13.9269,12.6487 -15.02417,25.09704 0,0 z m 570.56218,1.77345 c -12.20388,5.16104 7.71782,4.37287 0,0 z m -93.42572,3.58789 c -0.10472,10.16219 17.94852,6.41455 0,0 z m -354.50957,0.8086 c 11.87801,11.97314 -6.99216,13.04986 0,0 z m -28.75194,1.69531 c 7.43541,11.5019 -9.14015,10.27643 0,0 z m -72.5605,2.42578 c 4.43804,21.62881 -13.08356,12.90775 0,0 z m 477.32785,4.43946 c 16.01249,3.38331 20.54765,14.45838 19.87109,28.35549 3.75361,-16.81665 11.53391,-28.08678 31.18357,-24.18166 12.39698,32.95644 16.78531,87.92386 -0.0801,114.06844 -29.15232,4.34611 -77.92039,4.06089 -95.60345,-7.28517 10.16089,-38.7171 29.04214,-74.34412 44.62887,-110.9571 z m 19.87109,28.35549 c -1.08604,4.86551 -1.83343,10.19893 -2.4336,15.76173 1.29122,-5.46886 2.19171,-10.79324 2.4336,-15.76173 z m -2.4336,15.76173 c -6.29461,26.66006 -21.66444,56.62709 -13.04296,64.1602 10.60511,-14.55312 10.57769,-41.3107 13.04296,-64.1602 z M 274.42418,763.74925 c 6.66889,27.92291 -5.24252,15.34973 0,0 z m 142.96281,0.0312 c 6.2461,4.79574 9.77368,8.67326 11.49218,11.68555 -0.34144,-2.19974 -0.55965,-4.89704 -0.57032,-8.16993 9.09812,12.79096 4.66668,20.40843 1.79493,13.07423 -1.51377,7.16356 -22.43711,1.17307 -12.71679,-16.58985 z m 12.71679,16.5899 c 0.26188,-1.23925 -0.0636,-2.86937 -1.22461,-4.9043 0.3212,2.06936 0.75065,3.69384 1.22461,4.9043 z M 872.8086,765.28636 c -18.17939,7.17651 8.95606,3.49528 0,0 z m -481.67551,2.15234 c 6.31273,2.11837 -2.57044,4.72273 0,0 z m 413.10915,1.62695 c -3.83464,6.20352 8.23871,1.07299 0,0 z M 327.2347,770.3723 c 6.40029,10.14328 -4.91337,4.80069 0,0 z m 519.13056,0.77148 c -4.70055,3.55624 5.85618,5.72548 0,0 z m -83.42574,1.75 c 11.06761,10.9859 19.18657,2.84326 0,0 z m -352.17363,0.004 c 4.13383,1.36596 -1.37761,4.98264 0,0 z m 252.8944,0.90234 c -0.14824,20.8216 -1.09466,36.75112 8.52733,29.12502 -12.00767,32.83693 22.29536,-13.30102 7.10742,17.91799 -9.33048,23.20029 -34.22384,65.77134 -43.74607,17.58204 -14.40247,-27.6331 20.21457,-21.96322 9.26367,-56.70121 2.76189,-21.83435 7.17751,54.97904 12.94921,10.95118 2.02052,-6.21968 2.22009,-13.2556 5.89844,-18.87502 z m -365.59355,0.25586 c 15.3655,14.14108 13.02786,40.82176 40.94334,40.1719 -8.66714,21.93096 -3.48769,22.62286 5.25781,1.80274 -8.02423,28.41246 19.56989,-18.23586 5.6035,17.30275 -9.75215,18.14409 -64.33421,16.92574 -81.91206,3.39453 2.58637,-1.02478 2.95359,-1.5902 2.40625,-1.71875 -0.58486,-0.13738 -2.18702,0.23016 -3.19921,1.04883 -2.12274,-1.80612 -3.63637,-3.80452 -4.29102,-6.00587 6.94743,-19.92349 19.42532,-53.65374 9.08789,-11.08789 -2.11511,36.21212 10.16255,-33.46674 18.39452,-38.94534 3.1866,29.34682 10.55665,36.95081 7.70898,-5.9629 z m -27.70116,60.95317 c 14.88328,2.31137 38.14662,-38.93858 13.01171,-10.78907 l -6.79296,5.78906 -6.49414,4.97267 c 0.0902,0.0174 0.18454,0.0132 0.27539,0.0273 z m 118.70501,-60.7813 c -1.4469,16.44941 -18.67284,24.42351 -2.72851,1.9336 l 2.72851,-1.9336 z m -110.77923,1.02344 c 5.00656,0.98304 -4.00185,4.52346 0,0 z m 522.57392,0.88477 c -6.59411,2.33386 5.41687,4.46815 0,0 z m -480.63058,0.41407 c 5.58839,3.62605 -2.34515,9.14079 0,0 z m 75.94722,3.95703 c -4.16717,15.77509 -2.56965,70.65813 -18.79101,55.13871 21.83102,-19.83053 -5.90181,-38.12309 18.79101,-55.13871 z m 444.50366,0.99219 c -4.01504,4.17176 7.24073,3.98432 0,0 z m -428.00758,2.25781 0,0.002 c 1.82427,0.10195 4.06138,1.08195 6.79102,3.17579 9.22493,17.84055 -13.25852,66.27789 5.75194,19.55666 6.01664,-7.73003 10.77419,-3.80605 13.16015,4.16211 l 0.54297,-4.80079 1.35156,-6.97266 c 0.67264,16.39026 15.38427,50.55874 6.94336,13.25391 12.68641,-20.74951 38.39652,41.36966 45.34567,60.01176 30.70123,50.10225 -49.22536,8.84449 -65.88277,14.79103 -21.35283,4.04463 -107.71137,38.93997 -75.55074,-10.54297 13.27644,-32.92716 40.22244,-30.73569 68.28708,-27.70315 -1.88165,-0.54971 -3.90309,-1.40657 -6.08203,-2.64063 -41.13521,7.90648 -4.71864,-82.87597 -9.49805,-23.27931 11.03848,37.15399 -7.81193,-37.65212 8.08203,-39.00393 0.24399,-0.0208 0.49721,-0.0243 0.75781,-0.01 z m 6.74024,64.93364 c 2.29424,0.67025 4.37005,0.86036 6.24413,0.65626 -2.0868,-0.22006 -4.16463,-0.43154 -6.24413,-0.65626 z m 6.24413,0.65626 c 13.00188,1.37121 26.04362,2.39294 37.89646,-0.32813 21.1152,-2.66527 -12.42212,-4.11414 -24.14061,-17.78518 -1.5114,9.20647 -5.79139,17.24601 -13.75585,18.11331 z m 13.75585,-18.11331 c 1.1669,-7.10788 0.67177,-14.8731 -1.03711,-20.58008 l -0.16991,1.51562 c -4.30025,8.18225 -2.83649,14.34719 1.20702,19.06446 z M 323.07844,783.94848 c 8.48984,10.37614 -5.87752,2.74627 0,0 z m -213.76745,0.69726 c -4.54108,-0.0314 -11.535556,5.59747 -14.886712,11.12697 13.892102,8.16343 0.712856,11.40269 -0.908202,1.68164 -2.857258,6.12535 -0.313177,11.38173 16.357414,7.5879 6.81432,-1.04274 27.48187,-14.17857 12.95116,-18.61916 -3.11355,13.47649 -11.9677,13.12951 -15.86132,10.12696 1.27608,-0.3656 1.86591,-1.56758 -0.88477,-3.80469 -0.39749,0.23599 -0.69667,0.45858 -0.98437,0.67578 0.0426,-1.88373 2.32849,-3.57623 8.42969,-3.46485 -0.19902,-3.78459 -1.88024,-5.29445 -4.21289,-5.31055 z m -15.794914,12.80861 c 0.25898,-0.55522 0.566782,-1.11825 0.908202,-1.68164 -0.34543,-0.20298 -0.690781,-0.40434 -1.070311,-0.61328 -0.0174,0.83514 0.04566,1.59652 0.162109,2.29492 z m 27.515604,-12.47658 c -8.74485,0.75519 7.10635,3.21262 0,0 z m 462.15404,0.56641 c 5.00655,0.98303 -4.00186,4.52341 0,0 z m -181.66591,0.50586 c 1.6266,8.32285 -7.83333,9.45876 0,0 z m -52.65037,1.04492 c 17.8702,2.8514 -3.4451,3.38385 0,0 z m 483.96848,2.61914 c -6.84758,3.72365 5.94849,4.72637 0,0 z m 44.70897,0.0606 c -22.98405,6.54252 16.15267,5.4171 0,0 z m -76.40036,1.50392 c -4.34847,5.085 4.79953,8.09713 0,0 z m -428.76538,1.5625 c 6.4575,7.22138 -11.04613,8.24857 0,0 z m -42.87692,0.45898 c 38.3921,11.58014 -13.0206,13.32667 0,0 z m -219.32996,1.63086 0.004,2.55273 -0.004,-2.55273 z m 156.89053,2.5 c 10.73145,20.40512 -35.42679,69.61359 -13.27538,24.38674 3.21717,-8.51029 5.9355,-18.49923 13.27538,-24.38674 z m 78.9902,1.41797 c 10.97835,7.17246 -9.23418,11.67962 0,0 z m 7.41405,0.94726 c 3.8796,3.24838 -3.76281,4.8888 0,0 z m 6.69336,0.082 c 7.7461,1.87383 -3.86549,7.02193 0,0 z m 388.14626,0.19532 c 16.07714,10.94813 18.58546,0.76869 0,0 z m -438.24975,0.50195 c -12.98857,0.43285 -9.60546,13.16617 0,0 z m 67.45699,1.14649 c 13.05121,24.64481 -11.34874,39.12769 -3.00976,5.43751 l 1.45508,-3.9922 1.55468,-1.44531 z m 173.28701,0.6289 c -21.79774,17.12157 49.4131,13.31139 11.69141,1.1875 l -6.09766,-0.98047 -5.59375,-0.20703 z m 0.87891,0.27149 c 9.29972,4.9182 -3.4176,8.71427 0,0 z m 8.14844,0.625 c 5.85283,2.30081 -4.15438,4.42798 0,0 z m -130.80853,0.20117 c -6.11578,10.6189 5.0531,15.78808 0,0 z m 356.45098,1.09765 c -4.75882,3.81999 4.66034,6.04132 0,0 z m 20.21092,0.95509 c -7.30246,2.0011 4.75203,5.25179 0,0 z m 29.49022,0.26953 c -3.13887,7.44847 15.17702,1.15577 0,0 z m 40.74217,2.04492 c -3.48034,5.3896 23.76326,0.73874 0,0 z m -307.95101,0.88282 c 6.96854,2.04785 -4.86453,4.34926 0,0 z m -8.64452,0.14648 c 6.10395,4.41058 -4.138,5.63321 0,0 z m 289.27328,0.0645 c -2.10666,3.0566 7.51819,7.80853 0,0 z m -529.19502,2.1582 c -4.97167,2.74457 -1.94267,4.21622 0,0 z m 40.1367,3.18359 c -6.88585,20.73865 16.95846,22.51847 -7.37696,30.34573 -1.24499,-10.53238 3.86385,-20.7308 7.37696,-30.34573 z m 470.82005,3.64453 c -3.23324,8.06858 6.72854,4.79921 0,0 z m -520.45479,0.4961 c -18.06933,15.75605 -11.21116,29.65402 0,0 z m 18.45507,0.82618 c -7.68728,4.3013 -4.42495,7.06324 0,0 z m 470.12082,1.27344 c -8.69757,2.19566 5.65439,4.78268 0,0 z m -52.56833,2.88671 c -5.19607,8.30585 25.26735,3.21435 0,0 z m -100.15814,1.08008 c -0.91302,0.82694 -1.64337,1.59237 -2.23047,2.31055 8.05431,3.95315 -3.02887,7.72865 -0.77344,1.03516 -9.64463,14.69461 52.0488,4.21218 8.72266,-3.01368 l -5.71875,-0.33203 z m -3.00391,3.34571 c 0.21754,-0.33142 0.4813,-0.67778 0.77344,-1.03516 -0.10766,-0.0528 -0.17842,-0.10531 -0.29297,-0.1582 -0.2135,0.43817 -0.35523,0.82168 -0.48047,1.19336 z m -321.79279,-2.84375 c -13.99008,8.48151 -13.5372,19.28672 0,0 z m 556.28095,3.70117 c -0.68863,0.009 -1.42696,0.0273 -2.2168,0.0566 -2.49899,8.75086 23.56398,-0.33458 2.2168,-0.0566 z m -215.7616,0.87109 c 10.64681,1.09956 -7.30888,4.70269 0,0 z m -244.63072,1.76367 0.46679,8.10744 -0.46679,-8.10744 z m 431.57788,0.6543 c -7.39239,3.23962 6.5384,3.98756 0,0 z m -64.41794,3.07423 c -7.20652,1.43403 3.54816,5.33316 0,0 z m 41.72655,3.05859 c -5.97742,7.30571 6.24403,5.86262 0,0 z m -638.84144,3.5918 c -11.38916,13.94905 69.60909,4.6337 20.00388,2.30273 -6.61126,-1.16989 -13.26709,-2.29428 -20.00388,-2.30273 z m 611.85902,1.08398 c -6.49101,6.3145 9.17278,3.06885 0,0 z m -531.80829,1.11719 c 1.79217,-0.0277 3.51684,0.21397 5.14062,0.76172 24.1387,8.13066 72.355,-2.94054 83.26363,14.77735 -18.51847,48.97678 -65.46902,39.82547 -106.39838,39.5098 -51.09351,6.24594 -8.88848,-54.63557 17.99413,-55.04887 z m 475.53879,3.06055 c -1.08795,-0.0166 -2.31771,-0.005 -3.70311,0.0371 4.32775,6.50465 20.02265,0.21175 3.70311,-0.0371 z m 132.39446,0.94923 c -1.88334,6.5409 28.63681,3.95309 0,0 z m -26.71091,7.18945 c -4.95079,3.86454 4.86621,4.52217 0,0 z m -508.61691,1.30078 c -6.00496,8.35079 8.65512,15.52427 0,0 z m 438.10132,1.76367 c -3.84055,6.19754 8.23727,1.07285 0,0 z m 15.67773,1.88868 c -5.25691,3.82713 7.49975,2.79246 0,0 z m 29.72459,2.45899 c -3.98929,5.38685 8.51508,2.86868 0,0 z m 53.74997,0.55078 c -11.31568,5.82376 21.03652,2.18735 0,0 z m -632.55239,0.83978 c -5.87968,16.24037 9.14508,9.8402 0,0 z m 138.08001,0.0527 c -3.13828,14.91991 8.89587,8.02993 0,0 z m 56.12496,0.25391 c -9.36608,11.55847 7.28176,11.20807 0,0 z m -399.710708,4.80668 c -0.900173,-0.0153 -1.81735,-0.005 -2.746091,0.0312 -10.808721,0.42207 -23.202069,4.16757 -30.9081863,7.40821 l 0.052734,3.78516 c 3.2501693,-0.7713 7.6382663,-1.99736 13.4277273,-3.82422 4.601042,-2.87657 56.495432,-4.71234 27.724593,-6.46876 -2.297194,-0.59836 -4.850254,-0.88557 -7.550777,-0.93164 z m 292.943188,2.83789 c -8.32105,13.22442 2.58026,10.11903 0,0 z m 549.75556,1.67773 c -23.86486,2.78844 17.80508,6.33823 0,0 z m -484.77121,1.59766 c -10.06693,18.00314 2.99556,25.71047 0,0 z m 9.48631,1.30079 c -10.53141,10.34129 19.90285,0.0291 0,0 z m -142.33195,1.46484 c -13.87427,4.22572 9.43911,7.71915 0,0 z m 160.2421,1.00391 -5.17577,2.83203 5.17577,-2.83203 z m -148.99796,0.0176 c -2.5629,10.16077 18.96402,0.39153 0,0 z m -22.84764,2.16797 c -16.45287,10.4932 9.42011,9.68005 0,0 z m 38.49216,1.66406 c -5.60742,6.76125 12.40427,4.1034 0,0 z m 26.78123,3.88086 c -16.31765,7.06027 11.29502,9.31076 0,0 z m -16.67381,0.32226 c -1.63379,9.49573 15.05845,6.11896 0,0 z m 519.14228,13.16994 c -40.2438,2.86807 12.95827,13.61988 11.66993,3.72852 l -3.0586,-2.1797 -8.61133,-1.54882 z m -289.32991,1.6875 c -0.88923,-0.005 -1.81725,-0.002 -2.78516,0.0117 20.54364,8.8875 30.35127,0.14482 2.78516,-0.0117 z m -219.58776,0.51757 c 24.99781,-0.15926 -2.28292,37.31044 32.07029,33.94144 23.79969,-5.60241 50.98388,18.36536 14.166,25.64455 -29.26728,13.62462 -82.33254,-40.76844 -48.82223,-59.45122 0.91902,-0.0861 1.77954,-0.12963 2.58594,-0.13477 z m 275.75179,0.78711 c -2.65043,-0.0122 -5.29784,0.008 -7.9414,0.0606 -9.7609,0.19699 -19.46766,0.84564 -29.06444,1.97657 51.26995,1.98481 103.12425,11.50424 154.47843,18.26368 -37.31356,-12.63609 -77.71627,-20.11834 -117.47259,-20.3008 z m -236.203,1.7129 c 34.00953,23.16985 -41.62088,24.99817 -10.91405,3.08985 l 5.51367,-2.09571 5.40038,-0.99414 z m -226.10924,0.18164 c -32.382496,5.27341 -74.502137,-4.28638 -99.61127,11.82032 34.982263,-4.95812 70.570565,4.97891 103.46869,-10.14063 l 0.6875,-1.30859 -4.54492,-0.3711 z m 369.14432,1.24024 c 9.3462,0.51574 -14.67418,23.59662 8.80859,30.35744 -32.65413,-8.13808 -2.95459,44.5005 3.00782,10.02931 34.45676,5.52443 -32.78012,45.01312 -37.35936,4.71289 -10.62684,-22.69582 10.98504,-29.97447 23.20312,-44.8887 0.94361,-0.17769 1.71677,-0.24534 2.33983,-0.21094 z m -118.56634,0.8789 c 0.4991,-0.005 1.03278,0.005 1.60547,0.0332 32.82509,9.6476 -15.04219,50.37021 -11.02733,15.91407 12.77251,0.52857 -6.05006,-15.75828 9.42186,-15.94728 z m -169.39443,0.0156 c 9.41788,0.50649 -8.82112,49.35526 10.52929,30.15432 -6.89604,-27.93411 15.97647,-36.03853 9.46093,-3.06446 4.63844,24.26764 0.7708,70.06686 -29.33397,39.56643 -8.77727,-18.92311 -11.04624,-54.61778 8.875,-66.64457 0.16371,-0.0167 0.31926,-0.0197 0.46875,-0.0117 z m 236.94908,0.45312 c -17.94668,0.14877 -50.32608,14.55662 -15.12889,6.75977 3.46203,1.61595 43.41936,-6.33544 18.50194,-6.58984 -1.04386,-0.12767 -2.1766,-0.17986 -3.37305,-0.16993 z m -269.35141,0.53125 c -5.20399,6.68169 15.87364,5.45596 0,0 z m 529.91963,0.64844 c 31.60767,22.42653 82.81693,4.45869 121.10149,13.95704 24.45945,-2.3266 -38.63977,-15.89943 -48.56637,-8.64454 -24.1036,0.80498 -49.54351,4.01017 -72.53512,-5.3125 z m -472.62083,0.80274 c 6.73868,9.74916 -4.98515,4.67906 0,0 z m -178.896384,1.47461 c 13.365217,2.12114 -15.18721,3.91176 0,0 z m 490.775114,0.25586 c -9.96395,2.6672 4.38508,4.41048 0,0 z m -179.41005,4.27148 c -0.89733,11.62623 -6.83635,5.84062 0,0 z m 133.64445,2.76173 c 16.40912,6.87559 -2.08587,14.02009 0,0 z m -222.84948,0.0488 c -41.66257,1.3604 20.86111,3.46034 0,0 z m 275.54085,0.78906 c 15.50019,17.27566 94.71713,23.02738 98.79097,11.50391 -31.21727,-12.23741 -67.96081,3.79322 -98.79097,-11.50391 z m -434.27514,1.24609 c -4.0348,8.39757 61.1849,0.75325 12.61718,0.4336 l -5.1875,-0.29883 -7.42968,-0.13477 z m 307.96662,2.23242 c 0.75849,6.60258 31.06832,-0.27154 0,0 z m -90.85347,2.83985 c 27.12981,3.48659 18.82668,10.42441 0,0 z m 282.47446,1.89258 c 21.82152,5.38517 -19.92281,6.37774 0,0 z m -381.49197,0.21093 c 4.06223,11.64418 -3.47015,28.54008 -1.65821,5.55861 l 1.65821,-5.55861 z m -71.86129,0.70118 c -6.20997,9.71604 24.57404,3.5648 0,0 z m 109.58783,2.70898 c -11.86484,6.4827 22.03606,1.5674 0,0 z m 595.50553,1.10157 c -24.06038,7.466 62.32287,5.04337 13.28905,0.46875 l -7.5332,-0.36914 -5.75585,-0.0996 z m -505.12081,1.08203 c 6.13716,0.95579 -2.81124,4.00177 0,0 z m -242.99597,0.0898 c -8.81987,8.83824 27.96733,0.52433 0,0 z m 597.73014,1.21679 c 11.11773,9.87606 82.829,14.34983 26.44334,3.5 -8.78231,-1.3864 -17.55847,-2.94562 -26.44334,-3.5 z m 84.27925,4.83985 c 23.53418,6.36876 73.1418,18.47693 82.5566,11.70313 -27.30002,-5.32313 -55.11389,-7.30551 -82.5566,-11.70313 z m -771.392144,5.62695 c 24.380861,6.34049 93.192104,7.41356 91.896424,6.32228 -30.352097,-4.83529 -61.193989,-6.5467 -91.896424,-6.32228 z m 606.814104,1.87306 c -0.70366,0.003 -1.41195,0.0304 -2.12108,0.084 -32.73359,6.20384 93.77906,8.90975 33.49217,4.11524 -10.83078,1.01273 -20.8161,-4.24613 -31.37109,-4.19922 z m -225.22252,1.42187 c -29.85228,0.16487 17.31881,5.67932 26.05077,0.45899 -6.32818,-0.51489 -12.67851,-0.45743 -19.01952,-0.41602 -2.70899,-0.0414 -5.04108,-0.054 -7.03125,-0.043 z m 304.00373,2.56055 c -1.44332,7.76721 80.26008,9.01106 24.42382,2.36328 -7.76275,-2.83403 -16.36099,-1.49999 -24.42382,-2.36328 z m -477.72238,0.51172 c 21.13368,5.44408 6.43868,24.30598 -8.27344,17.43751 -0.42167,-5.83024 -0.12512,-17.35242 8.27344,-17.43751 z m 2.3457,0.95312 c -22.27326,8.28492 17.97103,5.47046 0,0 z m 334.09942,2.84375 c -26.97355,0.42511 35.38149,6.22958 47.17575,10.38869 21.99382,2.16888 60.10031,13.55304 73.66988,-0.99805 -40.2443,13.68738 -80.49023,-9.53975 -120.84563,-9.39064 z m -313.56233,0.69141 c -4.18035,1.9867 2.40841,4.71087 0,0 z m 259.44908,5.14259 c 5.03095,6.02569 2.2444,13.32649 0,0 z M 8.8012794,963.01501 c -0.8585718,0.0986 -1.6843333,0.26651 -2.4804673,0.45704 l 0.011719,0.80273 c 0.7563461,-0.37418 1.5674208,-0.78672 2.4687486,-1.25977 z m 12.0644456,1.86133 c 1.302954,24.15051 106.149395,11.92057 42.470681,11.05079 -14.034018,0.13244 -33.970256,3.56925 -42.470681,-11.05079 z m 812.868685,1.10352 c -68.67549,1.82703 67.57979,10.33846 10.2539,0.76172 l -5.87305,-0.59375 -4.38085,-0.16797 z m -697.62071,0.58593 c -25.05111,3.3642 32.28049,0.20469 0,0 z m 123.5722,6.51954 c 0.74899,9.18343 11.05872,7.59942 0,0 z m 10.97851,0.69336 c 3.93885,24.54382 22.41143,15.3915 0,0 z m 134.76555,4.60352 c -5.48394,2.02658 3.92107,4.61413 0,0 z m 13.39258,0.42774 c -31.01609,1.67624 8.05965,4.52143 0,0 z m 8.8867,1.13867 c -0.91911,-0.0116 -1.94666,-0.005 -3.09375,0.0215 6.00627,4.2216 16.88046,0.15267 3.09375,-0.0215 z M 98.941854,980.6908 c -5.477934,2.02949 3.923266,4.61174 0,0 z m 146.716706,1.42774 c -18.35398,9.62068 2.69824,9.4878 0,0 z m 479.30833,0.34766 c 47.16829,5.5192 94.55305,11.61744 141.96086,13.26758 -28.3373,-3.82898 -97.73791,-12.93532 -141.96086,-13.26758 z m -454.36302,3.02148 c -35.14863,27.07002 -74.87831,23.62862 -116.42182,24.84182 -14.39628,-4.9906 -36.99877,-3.0206 -25.19724,10.5742 9.42776,-22.58588 1.0721,5.0541 14.93358,-1.9433 -5.48985,32.0779 10.4583,34.1616 36.96482,30.6035 l 82.69526,-1.209 c -0.66948,-7.6371 3.26795,-16.4461 7.20704,-25.2539 -6.01038,17.5344 8.5173,42.0793 9.70897,8.3711 -1.60639,-4.6659 0.25978,-13.2783 -4.70702,-16.3965 -1.39219,1.319 -2.50403,2.8257 -3.4082,4.4394 5.67502,-12.9379 9.99237,-25.52675 -1.77539,-34.02732 z m 389.32009,2.52344 c -44.11524,5.55932 6.7369,1.42089 28.17577,8.52149 -8.94598,-4.17616 -18.38488,-7.60782 -28.17577,-8.52149 z m 28.17577,8.52149 c 2.08495,0.97336 4.15326,1.97232 6.18163,3.00586 -1.5055,-1.18546 -3.652,-2.16801 -6.18163,-3.00586 z m -288.32601,-5.46289 c -0.85618,-10e-4 -1.60215,0.007 -2.24805,0.0234 -18.08509,0.45875 43.58074,7.50466 34.70506,3.56641 -7.12999,-1.57056 -14.33656,-2.87067 -21.63476,-3.3086 -4.70765,-0.19094 -8.25373,-0.27765 -10.82225,-0.28125 z m 195.20301,0.82813 c 19.55976,2.75572 45.83367,0.33078 11.89062,0.45703 l -6.11914,-0.3086 -5.77148,-0.14843 z m 123.84173,5.59765 c -20.68676,2.08441 -31.88874,8.434 0,0 z m -663.267207,5.9922 c -16.415332,0.2892 -31.99253,5.2073 -48.5878632,5.166 l 0.1445312,10.0977 c 4.145299,8.0765 2.0373507,11.5357 0.1542968,10.8144 l 0.1914061,13.5625 c 1.1137888,1.7351 0.7859574,2.9354 0.048828,3.3809 l 0.080078,5.6523 c 5.9390641,0.2576 12.2823691,0.3713 17.1933501,-0.3144 l 53.197235,-0.7774 c -3.937495,-27.5245 11.68155,21.1665 11.35351,-11.4941 0.859189,-20.7124 15.015025,3.152 17.791005,-5.1152 1.19606,10.7741 8.15196,15.9132 14.12889,-4.1719 0.84633,-6.4957 5.20106,-18.9794 -3.21484,-22.0293 -6.47043,4.1611 -9.66713,11.1765 -10.69921,17.8925 -0.12295,-1.2462 -0.27859,-2.5802 -0.50195,-4.1191 -5.43423,-30.55533 -11.988306,18.5641 -19.843738,-11.6953 -11.075737,-5.4748 -21.411881,-7.0261 -31.435529,-6.8496 z m 738.581617,1.9336 c 18.9387,5.7287 82.68366,8.7869 77.79292,1.6152 -26.23546,3.7136 -51.73745,1.0356 -77.79292,-1.6152 z m -754.52692,2.5351 c 5.276324,34.9438 -1.850308,31.0692 0,0 z m 309.8299,1.0625 c -9.8269,6.7285 -8.95762,28.5819 -23.04295,3.5528 -24.54725,-8.7323 0.0859,27.7022 3.02539,14.9941 -0.78392,7.9773 2.09257,31.9616 7.02733,11.9121 5.37656,25.1083 19.29067,-17.8049 17.4082,7.5567 11.8496,-2.3326 34.05403,5.7124 34.52146,-8.3672 4.36784,18.5093 9.1392,-43.74928 7.33008,-4.8067 8.46748,28.0251 10.1736,-37.18885 -11.14648,-18.3398 -32.90057,-20.3232 -12.60311,54.1188 -25.71874,11.9004 -0.19588,-6.5422 0.29014,-18.6999 -9.40429,-18.4024 z m -54.97457,0.07 c -19.64881,14.9562 -1.6047,65.6949 -4.71875,19.8536 -4.61525,-9.5064 12.81094,-11.4633 4.71875,-19.8536 z m 146.77335,2.2442 c -20.63519,15.4993 -1.41815,22.3334 -0.59376,21.5801 2.05276,40.1567 19.82064,-14.408 0.59376,-21.5801 z m -321.72053,0.668 c 5.85282,2.3007 -4.15442,4.4278 0,0 z m 294.04281,0.043 c -19.48242,13.3601 -1.65149,57.8582 -5.04883,14.2051 -6.54091,-18.3005 19.98547,18.7147 8.76367,-10.9336 l -1.79687,-2.5879 -1.91797,-0.6836 z m -107.2851,0.098 c -3.23029,3.4222 2.2527,6.927 0,0 z m 118.44329,0.5195 c -5.08599,26.4165 13.59551,50.5548 0.31446,10.4336 l -0.36719,-5.125 0.0527,-5.3086 z m -260.55258,0.061 c 5.07508,13.387 -1.76543,4.8226 0,0 z m 350.50175,2.1836 c -5.51394,23.3512 37.75248,44.4854 12.54492,9.7929 l -4.98046,-5.9609 -7.56446,-3.832 z m -18.15233,0.2285 c -18.7705,26.7738 23.2303,44.8262 7.76562,8.4258 l -3.29101,-4.7891 -4.47461,-3.6367 z m -430.861083,0.3203 c 5.064054,12.2379 -2.046858,3.6728 0,0 z m 373.288843,0.062 c 4.23753,6.4395 -0.88565,13.5719 0,0 z m 104.66988,0.2988 c -27.51909,19.9466 8.94208,15.1673 0,0 z m -81.4902,0.057 c -28.31343,7.7562 3.27871,52.8018 -0.0605,13.1328 12.10784,44.7745 31.07955,-7.9361 0.0605,-13.1328 z m -344.6834,0.5527 c 5.85741,2.296 -4.15164,4.4312 0,0 z m 364.59355,0.3437 c -5.79948,18.3803 8.91521,45.4009 5.32226,9.5098 l -3.33789,-7.3496 -1.98437,-2.1602 z m 143.10148,2.5606 c -0.7423,-0.037 -1.58488,0.1243 -2.57031,0.5684 -22.87096,-2.0845 7.74142,45.739 3.06836,10.2656 2.06135,-13.8844 14.03562,32.6964 18.49217,5.2734 -7.37266,-25.9885 -4.53643,27.5414 -11.31249,-11.0996 -3.11014,-0.9473 -4.4611,-4.8481 -7.67773,-5.0078 z m -15.50585,0.1894 c -12.7837,27.1545 8.50141,36.8067 0,0 z m -533.935246,0.047 c 3.742016,4.7064 -2.750188,1.8849 0,0 z m 274.339686,0.3262 c 7.60549,9.0663 -6.06259,21.1386 0,0 z m 210.92567,0.2422 c -7.5035,18.2185 19.51516,28.9676 0,0 z m 21.18943,0.088 c -20.49219,-0.4195 -7.45347,43.002 -3.83007,13.1445 2.72789,32.0901 13.61592,-10.6612 3.83007,-13.1445 z m -280.0682,0.2343 c -6.9129,4.8897 -1.21469,10.0976 0,0 z m 288.41195,0.1953 c -3.06325,13.2578 4.11194,22.6869 0.86133,3.8477 l -0.86133,-3.8477 z m 68.45699,0.2559 c -18.1514,15.2048 18.2461,36.2762 9.13086,2.1387 l -9.13086,-2.1387 z m 31.18553,0.035 c -20.89615,23.2436 15.18208,23.1132 31.90233,20.7051 8.58114,-38.5179 -16.68469,-5.2971 -31.90233,-20.7051 z m -395.39625,0.5195 c -4.12097,2.246 2.32459,5.8739 0,0 z m 484.1794,0.1309 c -0.6276,-0.01 -1.26904,0.028 -1.92382,0.1074 -34.60933,19.1015 4.33135,22.1439 23.37108,18.8027 3.09595,-1.7761 8.54984,-1.4773 15.46874,-0.9277 -0.82637,-0.3492 -2.21072,-2.4222 -0.95313,-4.0176 1.56557,2.7448 1.67095,3.8623 1.29493,4.0449 7.70037,0.6167 17.19671,1.5071 27.52733,0.2676 30.88664,-5.3795 -28.02087,-19.0556 -39.23045,-10.0098 -9.58715,0.6898 -16.14075,-8.1915 -25.55468,-8.2675 z m 37.2578,18.0097 c -0.11839,-0.01 -0.2243,-0.017 -0.3418,-0.027 0.13393,0.056 0.25097,0.072 0.3418,0.027 z m -511.12667,-17.748 c -8.44453,23.5054 14.22506,19.8618 0,0 z m 341.29083,0.3691 c -3.05154,18.8233 8.19303,35.7082 0,0 z m 31.36912,0.2852 c -17.95277,24.4744 17.47237,30.8668 0,0 z m -79.80073,0.051 c -7.96113,24.2417 14.8708,32.3219 0,0 z m -47.11912,0.1132 c -10.78472,14.3359 14.86851,3.147 0,0 z m -482.989963,0.076 c 16.383702,14.484 6.645662,23.6206 0,0 z m 103.283133,0.2949 c 7.0373,6.4023 -3.30506,8.5017 0,0 z m 296.67172,0.8262 c 4.21653,5.9985 -2.42877,2.628 0,0 z m 283.13851,0.8867 c -5.98972,20.5804 17.07255,13.9383 0,0 z m -666.280872,0.3711 c 3.742046,4.7062 -2.750158,1.8848 0,0 z m 33.312472,0.2774 c 3.24181,4.3673 -5.27265,4.6266 0,0 z m 43.59764,0.5625 c 22.87943,17.0136 -27.20595,6.8978 0,0 z m 90.7187,0.3515 c 8.59851,32.2824 -29.94886,20.6226 0,0 z m 484.18723,0.5508 c -33.15291,23.6103 32.36258,14.7249 0,0 z m 133.85929,1.1543 c -17.80881,14.1966 14.80399,11.6973 29.71679,11.0938 l -0.0781,-5.5606 c -11.59485,-0.022 -22.22911,-1.2425 -29.63867,-5.5332 z m -740.56012,0.2246 c -6.04708,8.1241 1.41509,17.0899 0,0 z m 261.47446,0.055 c 3.74203,4.7064 -2.75018,1.8848 0,0 z m -9.74023,0.2988 c 3.59122,4.0797 -3.01529,8.6322 0,0 z m -81.48433,1.6113 c -6.30527,13.5935 4.01141,21.3511 0,0 z m 536.86493,1.3614 c 3.66618,7.9325 -6.98169,0.6891 0,0 z m -51.98044,1.1094 c 5.85283,2.3009 -4.15442,4.428 0,0 z m 92.87495,0.1953 c 7.48183,1.2609 -3.81668,6.3694 0,0 z m -741.91951,0.957 c -4.64841,13.0228 9.08639,2.7158 0,0 z m 418.79079,0.7363 c -2.17035,2.0664 1.8521,4.6254 0,0 z m -121.21283,0.2989 c -3.49801,6.904 4.69299,10.9586 0,0 z m -118.34759,2.3261 c -13.99899,14.364 13.69813,14.9512 0,0 z m 431.37867,2.3516 c -3.47421,3.2192 5.84667,1.9816 0,0 z m -592.87467,1.834 c 6.10284,4.417 -4.13754,5.6331 0,0 z m 169.18741,0.1328 c -9.52963,9.4444 11.17855,7.8193 0,0 z m 270.38266,0.4687 c -6.10541,2.269 4.75169,2.5899 0,0 z m -456.531,0.9395 c -5.23179,6.412 8.93541,12.9283 0,0 z m -7.80468,1.9805 c -14.72663,6.9281 10.98869,8.6367 0,0 z m 176.46084,2.2226 c -0.72105,0.9484 1.39506,0.7319 0,0 z m -207.021369,0.1563 c -8.43101,5.4155 8.888079,4.6252 0,0 z"
       id="path4147"
       inkscape:connector-curvature="0" />
  </g>
</svg>
