<?xml version="1.0" encoding="UTF-8" standalone="no"?>
<!-- Generator: Adobe Illustrator 21.1.0, SVG Export Plug-In . SVG Version: 6.00 Build 0)  -->

<svg
   xmlns:dc="http://purl.org/dc/elements/1.1/"
   xmlns:cc="http://creativecommons.org/ns#"
   xmlns:rdf="http://www.w3.org/1999/02/22-rdf-syntax-ns#"
   xmlns:svg="http://www.w3.org/2000/svg"
   xmlns="http://www.w3.org/2000/svg"
   xmlns:sodipodi="http://sodipodi.sourceforge.net/DTD/sodipodi-0.dtd"
   xmlns:inkscape="http://www.inkscape.org/namespaces/inkscape"
   version="1.1"
   id="Layer_1"
   x="0px"
   y="0px"
   viewBox="0 0 400 100"
   style="enable-background:new 0 0 400 100;"
   xml:space="preserve"
   inkscape:version="0.91 r13725"
   sodipodi:docname="gradients_logo.svg"><metadata
     id="metadata27"><rdf:RDF><cc:Work
         rdf:about=""><dc:format>image/svg+xml</dc:format><dc:type
           rdf:resource="http://purl.org/dc/dcmitype/StillImage" /><dc:title></dc:title></cc:Work></rdf:RDF></metadata><defs
     id="defs25" /><sodipodi:namedview
     pagecolor="#ffffff"
     bordercolor="#666666"
     borderopacity="1"
     objecttolerance="10"
     gridtolerance="10"
     guidetolerance="10"
     inkscape:pageopacity="0"
     inkscape:pageshadow="2"
     inkscape:window-width="1366"
     inkscape:window-height="705"
     id="namedview23"
     showgrid="false"
     inkscape:zoom="0.7675"
     inkscape:cx="200"
     inkscape:cy="50"
     inkscape:window-x="-8"
     inkscape:window-y="-8"
     inkscape:window-maximized="1"
     inkscape:current-layer="Layer_1" /><g
     id="g3"><path
       d="M45.5,52.8c-0.9,0.4-1.2,1.2-1.2,2.1V64l-0.5,0.2l-2.1-2.4c-2.3,0.9-6.2,2.1-9.5,2.1c-5.8,0-12.1-4.7-12.1-13.4   c0-8.2,6.4-14.6,14.9-14.6c2.2,0,5.1,1,6.3,2.1l1.3-2h1.5l0.2,9.5h-0.9C42,41.1,38.9,37,33.4,37c-4.5,0-8.5,4.6-8.5,13.2   c0,7.3,3.9,12.5,8.8,12.5c4.3,0,6.5-2.4,6.7-5v-2.4c0-1-0.3-1.9-1.3-2.3c-0.9-0.4-3.2-0.6-3.9-0.6v-0.9h13v0.9   C47.6,52.4,46.3,52.5,45.5,52.8z"
       id="path5" /><path
       d="M87.9,63.7c-3.2,0-4.7-2.2-5.2-6.7c-0.4-3.1-1.1-6.9-5.7-6.9h-3.1c0,4.3,0,8.2,0,9.9c0,0.9,0.3,1.6,1.2,2   c0.5,0.2,2.2,0.4,2.9,0.4v0.9H65.6v-0.9c0.7,0,2.3-0.2,2.8-0.4c0.9-0.4,1.2-1.1,1.2-2c0-3.7,0-16.7,0-20.3c0-0.9-0.2-1.7-1.2-2   c-0.7-0.2-2.1-0.5-2.8-0.6v-0.9h13.8c4,0,8.4,1.8,8.4,6.1c0,4.3-4.5,6.1-7.3,6.9v0.4c1.9,0.2,5.2,1.2,6,4.1c0.6,2.2,0.8,4.1,1.3,6   c0.5,1.8,1.5,1.9,2.1,1.9c1.1,0,1.7-0.7,1.7-3.5v-0.8h1v0.8C92.7,61.9,91.4,63.7,87.9,63.7z M77.3,37.4h-3.5V49h2.4   c3.5,0,6.7-1.3,6.7-5.8S80.3,37.4,77.3,37.4z"
       id="path7" /><path
       d="M124.4,63.3v-0.9c1.4-0.1,4-0.6,4-1.5c0-0.3,0-0.6-0.2-0.9l-2.4-6.2h-9.7c-0.7,1.8-1.2,3.2-1.6,4.3   c-0.3,0.9-0.4,1.7-0.4,2.2c0,1.4,3.1,2.1,4.5,2.1v0.9h-10.8v-0.9c0.7,0,2.1-0.4,2.8-0.7c0.9-0.6,1.7-1.7,2.2-3.1   c2.8-6.8,6.1-15.1,9.1-22.7h1.5c4,10.2,7.9,20.2,9.3,23.8c0.3,0.8,0.7,1.4,1.6,1.9c0.7,0.4,1.9,0.7,2.6,0.7v0.9H124.4z M120.9,41.4   l-4.3,11h8.7L120.9,41.4z"
       id="path9" /><path
       d="M165.4,63.3h-12.1v-0.9c0.8,0,2.4-0.2,2.9-0.4c0.9-0.4,1.2-1.1,1.2-1.9V39.8c0-0.9-0.3-1.6-1.2-2c-0.9-0.4-2.1-0.6-2.8-0.6   v-0.9h12.7c5.4,0,14.7,2.8,14.7,13.6C180.9,59.2,173,63.3,165.4,63.3z M165.1,37.4c-0.9,0-2.6,0-3.4,0.1v21.6c0.2,1.9,1.3,3,4.3,3   c6.9,0,10.1-5.1,10.1-12.2C176,42.8,171.7,37.4,165.1,37.4z"
       id="path11" /><path
       d="M199.9,63.3v-0.9c0.7,0,2.4-0.2,2.9-0.4c0.9-0.4,1.2-1,1.2-1.9V39.8c0-0.9-0.2-1.5-1.2-1.9c-0.7-0.3-2.2-0.7-2.9-0.7v-0.9   h12.4v0.9c-0.7,0-2.2,0.3-2.9,0.5c-1,0.3-1.2,1-1.2,1.9v20.3c0,0.9,0.3,1.5,1.2,1.9c0.5,0.2,2.2,0.6,2.9,0.6v0.9H199.9z"
       id="path13" /><path
       d="M254.7,63.3h-23.3v-0.9c0.7,0,2.5-0.2,3.1-0.5c0.9-0.4,1.2-1,1.2-1.9V39.8c0-0.9-0.2-1.5-1.2-1.9c-0.7-0.3-2.4-0.7-3.1-0.7   v-0.9h21.7v6.1h-1.1c-0.4-1.7-2.5-4.7-4.2-4.9c-0.9-0.1-2-0.2-3.3-0.2h-4.7v11.4h3.4c2.2,0,2.8-0.7,3.3-1.2   c0.6-0.6,1.1-2.6,1.2-3.6h1.1v11h-1.1c-0.1-1.1-0.7-3.3-1.2-3.8c-0.5-0.6-1.2-1.2-3.3-1.2h-3.4v8.7c0,3.2,0.7,3.6,4.7,3.6   c2.8,0,5.5,0.1,6.5-0.9c1.2-1.2,2.8-4.3,3.2-5.5h1L254.7,63.3z"
       id="path15" /><path
       d="M299.5,38.2c-1.1,0.7-1.3,2.7-1.3,5.3v20.1h-1.5l-17.7-22.2v14.4c0,3,0.5,4.7,1.3,5.4c0.7,0.6,3.4,1.2,4.1,1.3v0.9h-11.8   v-0.9c0.7,0,3.2-0.7,3.7-1.1c0.9-0.7,1.3-2.3,1.3-5.4V42.1c0-1.1-0.5-2.5-1.3-3.1c-0.9-0.7-3.2-1.7-4.2-1.7v-0.9h8.1l16.5,20.7   V43.7c0-2.8-0.5-4.8-1.3-5.3c-0.7-0.5-3.1-1.1-4-1.2v-0.9h11.7v0.9C302.4,37.2,300.1,37.8,299.5,38.2z"
       id="path17" /><path
       d="M342.7,43.2c-0.4-1.7-2.6-5.4-4.3-5.6c-0.9-0.1-2.1-0.2-3.2-0.2h-1.9v22.4c0,0.9,0.3,1.6,1.2,2c0.5,0.2,2.5,0.6,3.2,0.7   v0.9h-13.1v-0.9c0.7,0,2.7-0.3,3.2-0.5c0.9-0.4,1.2-1.1,1.2-2V37.4h-1.9c-0.9,0-2.2,0-3.2,0.2c-1.7,0.2-3.8,3.9-4.3,5.6H319v-6.9   h24.7v6.9H342.7z"
       id="path19" /><path
       d="M371,63.8c-3.2,0-5.3-1-6.5-2l-1.4,1.9h-1.3l-0.3-9.2h0.9c1.6,4.2,4.1,8.2,9,8.2c3.5,0,5-2,5-5c0-2.4-1.5-4.2-3.9-5.2   c-2.2-0.9-3.4-1.3-5.6-2.3c-3-1.3-4.7-3.5-4.7-7c0-4.2,3.4-7.3,7.9-7.3c2,0,4.3,0.9,5.7,2l1.3-1.9h1.3l0.2,8.9h-0.9   c-1.6-4.5-3.4-7.9-8.6-7.9c-1.1,0-3.7,0.9-3.7,4c0,2.4,1.3,3.8,3.5,5c1.9,1.1,3.6,1.4,5.4,2.3c3.4,1.5,5.6,3.1,5.6,7.3   C379.9,60.4,376.1,63.8,371,63.8z"
       id="path21" /></g></svg>