<?xml version="1.0" encoding="UTF-8" standalone="no"?>
<!-- Created with Inkscape (http://www.inkscape.org/) -->

<svg
   xmlns:dc="http://purl.org/dc/elements/1.1/"
   xmlns:cc="http://creativecommons.org/ns#"
   xmlns:rdf="http://www.w3.org/1999/02/22-rdf-syntax-ns#"
   xmlns:svg="http://www.w3.org/2000/svg"
   xmlns="http://www.w3.org/2000/svg"
   xmlns:sodipodi="http://sodipodi.sourceforge.net/DTD/sodipodi-0.dtd"
   xmlns:inkscape="http://www.inkscape.org/namespaces/inkscape"
   width="210mm"
   height="50mm"
   viewBox="0 0 744.09449 177.16535"
   id="svg4186"
   version="1.1"
   inkscape:version="0.91 r13725"
   sodipodi:docname="gradients_logo2.svg">
  <defs
     id="defs4188" />
  <sodipodi:namedview
     id="base"
     pagecolor="#ffffff"
     bordercolor="#666666"
     borderopacity="1.0"
     inkscape:pageopacity="0.0"
     inkscape:pageshadow="2"
     inkscape:zoom="1.2471534"
     inkscape:cx="372.04724"
     inkscape:cy="88.582677"
     inkscape:document-units="px"
     inkscape:current-layer="layer1"
     showgrid="false"
     inkscape:window-width="1366"
     inkscape:window-height="705"
     inkscape:window-x="-8"
     inkscape:window-y="-8"
     inkscape:window-maximized="1" />
  <metadata
     id="metadata4191">
    <rdf:RDF>
      <cc:Work
         rdf:about="">
        <dc:format>image/svg+xml</dc:format>
        <dc:type
           rdf:resource="http://purl.org/dc/dcmitype/StillImage" />
        <dc:title></dc:title>
      </cc:Work>
    </rdf:RDF>
  </metadata>
  <g
     inkscape:label="Layer 1"
     inkscape:groupmode="layer"
     id="layer1"
     transform="translate(0,-875.19685)">
    <g
       transform="translate(179.9,908.1622)"
       id="g3">
      <path
         inkscape:connector-curvature="0"
         d="m 45.5,52.8 c -0.9,0.4 -1.2,1.2 -1.2,2.1 l 0,9.1 -0.5,0.2 -2.1,-2.4 c -2.3,0.9 -6.2,2.1 -9.5,2.1 -5.8,0 -12.1,-4.7 -12.1,-13.4 0,-8.2 6.4,-14.6 14.9,-14.6 2.2,0 5.1,1 6.3,2.1 l 1.3,-2 1.5,0 0.2,9.5 -0.9,0 C 42,41.1 38.9,37 33.4,37 c -4.5,0 -8.5,4.6 -8.5,13.2 0,7.3 3.9,12.5 8.8,12.5 4.3,0 6.5,-2.4 6.7,-5 l 0,-2.4 c 0,-1 -0.3,-1.9 -1.3,-2.3 -0.9,-0.4 -3.2,-0.6 -3.9,-0.6 l 0,-0.9 13,0 0,0.9 c -0.6,0 -1.9,0.1 -2.7,0.4 z"
         id="path5" />
      <path
         inkscape:connector-curvature="0"
         d="M 87.9,63.7 C 84.7,63.7 83.2,61.5 82.7,57 82.3,53.9 81.6,50.1 77,50.1 l -3.1,0 c 0,4.3 0,8.2 0,9.9 0,0.9 0.3,1.6 1.2,2 0.5,0.2 2.2,0.4 2.9,0.4 l 0,0.9 -12.4,0 0,-0.9 c 0.7,0 2.3,-0.2 2.8,-0.4 0.9,-0.4 1.2,-1.1 1.2,-2 0,-3.7 0,-16.7 0,-20.3 0,-0.9 -0.2,-1.7 -1.2,-2 -0.7,-0.2 -2.1,-0.5 -2.8,-0.6 l 0,-0.9 13.8,0 c 4,0 8.4,1.8 8.4,6.1 0,4.3 -4.5,6.1 -7.3,6.9 l 0,0.4 c 1.9,0.2 5.2,1.2 6,4.1 0.6,2.2 0.8,4.1 1.3,6 0.5,1.8 1.5,1.9 2.1,1.9 1.1,0 1.7,-0.7 1.7,-3.5 l 0,-0.8 1,0 0,0.8 c 0.1,3.8 -1.2,5.6 -4.7,5.6 z m -10.6,-26.3 -3.5,0 0,11.6 2.4,0 c 3.5,0 6.7,-1.3 6.7,-5.8 0,-4.5 -2.6,-5.8 -5.6,-5.8 z"
         id="path7" />
      <path
         inkscape:connector-curvature="0"
         d="m 124.4,63.3 0,-0.9 c 1.4,-0.1 4,-0.6 4,-1.5 0,-0.3 0,-0.6 -0.2,-0.9 l -2.4,-6.2 -9.7,0 c -0.7,1.8 -1.2,3.2 -1.6,4.3 -0.3,0.9 -0.4,1.7 -0.4,2.2 0,1.4 3.1,2.1 4.5,2.1 l 0,0.9 -10.8,0 0,-0.9 c 0.7,0 2.1,-0.4 2.8,-0.7 0.9,-0.6 1.7,-1.7 2.2,-3.1 2.8,-6.8 6.1,-15.1 9.1,-22.7 l 1.5,0 c 4,10.2 7.9,20.2 9.3,23.8 0.3,0.8 0.7,1.4 1.6,1.9 0.7,0.4 1.9,0.7 2.6,0.7 l 0,0.9 -12.5,0 z m -3.5,-21.9 -4.3,11 8.7,0 -4.4,-11 z"
         id="path9" />
      <path
         inkscape:connector-curvature="0"
         d="m 165.4,63.3 -12.1,0 0,-0.9 c 0.8,0 2.4,-0.2 2.9,-0.4 0.9,-0.4 1.2,-1.1 1.2,-1.9 l 0,-20.3 c 0,-0.9 -0.3,-1.6 -1.2,-2 -0.9,-0.4 -2.1,-0.6 -2.8,-0.6 l 0,-0.9 12.7,0 c 5.4,0 14.7,2.8 14.7,13.6 0.1,9.3 -7.8,13.4 -15.4,13.4 z m -0.3,-25.9 c -0.9,0 -2.6,0 -3.4,0.1 l 0,21.6 c 0.2,1.9 1.3,3 4.3,3 6.9,0 10.1,-5.1 10.1,-12.2 -0.1,-7.1 -4.4,-12.5 -11,-12.5 z"
         id="path11" />
      <path
         inkscape:connector-curvature="0"
         d="m 199.9,63.3 0,-0.9 c 0.7,0 2.4,-0.2 2.9,-0.4 0.9,-0.4 1.2,-1 1.2,-1.9 l 0,-20.3 c 0,-0.9 -0.2,-1.5 -1.2,-1.9 -0.7,-0.3 -2.2,-0.7 -2.9,-0.7 l 0,-0.9 12.4,0 0,0.9 c -0.7,0 -2.2,0.3 -2.9,0.5 -1,0.3 -1.2,1 -1.2,1.9 l 0,20.3 c 0,0.9 0.3,1.5 1.2,1.9 0.5,0.2 2.2,0.6 2.9,0.6 l 0,0.9 -12.4,0 z"
         id="path13" />
      <path
         inkscape:connector-curvature="0"
         d="m 254.7,63.3 -23.3,0 0,-0.9 c 0.7,0 2.5,-0.2 3.1,-0.5 0.9,-0.4 1.2,-1 1.2,-1.9 l 0,-20.2 c 0,-0.9 -0.2,-1.5 -1.2,-1.9 -0.7,-0.3 -2.4,-0.7 -3.1,-0.7 l 0,-0.9 21.7,0 0,6.1 -1.1,0 c -0.4,-1.7 -2.5,-4.7 -4.2,-4.9 -0.9,-0.1 -2,-0.2 -3.3,-0.2 l -4.7,0 0,11.4 3.4,0 c 2.2,0 2.8,-0.7 3.3,-1.2 0.6,-0.6 1.1,-2.6 1.2,-3.6 l 1.1,0 0,11 -1.1,0 c -0.1,-1.1 -0.7,-3.3 -1.2,-3.8 -0.5,-0.6 -1.2,-1.2 -3.3,-1.2 l -3.4,0 0,8.7 c 0,3.2 0.7,3.6 4.7,3.6 2.8,0 5.5,0.1 6.5,-0.9 1.2,-1.2 2.8,-4.3 3.2,-5.5 l 1,0 -0.5,7.5 z"
         id="path15" />
      <path
         inkscape:connector-curvature="0"
         d="m 299.5,38.2 c -1.1,0.7 -1.3,2.7 -1.3,5.3 l 0,20.1 -1.5,0 -17.7,-22.2 0,14.4 c 0,3 0.5,4.7 1.3,5.4 0.7,0.6 3.4,1.2 4.1,1.3 l 0,0.9 -11.8,0 0,-0.9 c 0.7,0 3.2,-0.7 3.7,-1.1 0.9,-0.7 1.3,-2.3 1.3,-5.4 l 0,-13.9 c 0,-1.1 -0.5,-2.5 -1.3,-3.1 -0.9,-0.7 -3.2,-1.7 -4.2,-1.7 l 0,-0.9 8.1,0 16.5,20.7 0,-13.4 c 0,-2.8 -0.5,-4.8 -1.3,-5.3 -0.7,-0.5 -3.1,-1.1 -4,-1.2 l 0,-0.9 11.7,0 0,0.9 c -0.7,0 -3,0.6 -3.6,1 z"
         id="path17" />
      <path
         inkscape:connector-curvature="0"
         d="m 342.7,43.2 c -0.4,-1.7 -2.6,-5.4 -4.3,-5.6 -0.9,-0.1 -2.1,-0.2 -3.2,-0.2 l -1.9,0 0,22.4 c 0,0.9 0.3,1.6 1.2,2 0.5,0.2 2.5,0.6 3.2,0.7 l 0,0.9 -13.1,0 0,-0.9 c 0.7,0 2.7,-0.3 3.2,-0.5 0.9,-0.4 1.2,-1.1 1.2,-2 l 0,-22.6 -1.9,0 c -0.9,0 -2.2,0 -3.2,0.2 -1.7,0.2 -3.8,3.9 -4.3,5.6 l -0.6,0 0,-6.9 24.7,0 0,6.9 -1,0 z"
         id="path19" />
      <path
         inkscape:connector-curvature="0"
         d="m 371,63.8 c -3.2,0 -5.3,-1 -6.5,-2 l -1.4,1.9 -1.3,0 -0.3,-9.2 0.9,0 c 1.6,4.2 4.1,8.2 9,8.2 3.5,0 5,-2 5,-5 0,-2.4 -1.5,-4.2 -3.9,-5.2 -2.2,-0.9 -3.4,-1.3 -5.6,-2.3 -3,-1.3 -4.7,-3.5 -4.7,-7 0,-4.2 3.4,-7.3 7.9,-7.3 2,0 4.3,0.9 5.7,2 l 1.3,-1.9 1.3,0 0.2,8.9 -0.9,0 c -1.6,-4.5 -3.4,-7.9 -8.6,-7.9 -1.1,0 -3.7,0.9 -3.7,4 0,2.4 1.3,3.8 3.5,5 1.9,1.1 3.6,1.4 5.4,2.3 3.4,1.5 5.6,3.1 5.6,7.3 0,4.8 -3.8,8.2 -8.9,8.2 z"
         id="path21" />
    </g>
  </g>
</svg>
